<?xml version="1.0" encoding="UTF-8" standalone="no"?>
<!DOCTYPE svg PUBLIC "-//W3C//DTD SVG 1.1//EN" "http://www.w3.org/Graphics/SVG/1.1/DTD/svg11.dtd">
<svg width="100%" height="100%" viewBox="0 0 1536 2048" version="1.1" xmlns="http://www.w3.org/2000/svg" xmlns:xlink="http://www.w3.org/1999/xlink" xml:space="preserve" xmlns:serif="http://www.serif.com/" style="fill-rule:evenodd;clip-rule:evenodd;stroke-linejoin:round;stroke-miterlimit:1.41421;">
    <g id="Draw-Layer" serif:id="Draw Layer">
        <g transform="matrix(1,0,0,1,959.03,1623.51)">
            <path d="M0,-782.843C6.861,-782.73 13.705,-782.399 20.525,-781.677C28.95,-780.469 37.36,-779.182 45.824,-778.253C52.361,-777.534 58.913,-776.843 65.444,-776.049C73.623,-774.745 81.733,-772.879 89.82,-771.128C94.262,-770.163 98.691,-769.179 103.172,-768.402C109.435,-767.316 115.761,-766.604 122.069,-765.802C127.889,-764.988 133.729,-764.021 139.282,-762.169C145.335,-759.245 151.176,-755.943 156.922,-752.433C163.174,-748.611 169.446,-744.893 175.416,-740.66C178.485,-738.103 181.432,-735.412 184.18,-732.495C187.085,-729.411 189.777,-726.137 192.411,-722.822C195.042,-719.254 197.518,-715.598 199.844,-711.804C202.91,-706.804 205.621,-701.577 208.375,-696.402C213.505,-686.746 218.56,-677.062 223.001,-667.064C226.148,-659.324 229.094,-651.504 231.73,-643.573C234.68,-634.71 237.488,-625.722 239.773,-616.667C242.109,-607.402 244.195,-598.07 246.656,-588.835C249.258,-579.081 251.293,-569.265 253.332,-559.386C256.352,-544.735 259.091,-530.059 261.267,-515.262C262.32,-505.986 262.88,-496.688 263.574,-487.374C264.309,-477.488 265.48,-467.636 266.375,-457.761C267.32,-447.292 268.387,-436.823 268.074,-426.296C267.758,-415.757 266.57,-405.39 265.254,-394.937C263.312,-379.534 262.598,-364.027 261.078,-348.585C259.579,-333.362 258.198,-318.131 256.331,-302.952C253.94,-287.025 250.663,-271.277 247.609,-255.464C245.547,-244.761 244.312,-233.913 243.016,-223.097C242.321,-217.299 241.601,-211.505 240.851,-205.715C239.762,-198.536 238.304,-191.481 236.164,-184.531C233.758,-176.706 231.098,-168.964 228.637,-161.159C226.203,-153.433 224.016,-145.624 221.504,-137.921C219.344,-131.303 216.964,-124.754 214.38,-118.288C212.216,-113.551 209.848,-108.949 207.141,-104.476C204.043,-99.359 200.703,-94.386 197.398,-89.398C191.397,-80.335 185.281,-71.301 178.791,-62.573C175.302,-58.278 171.647,-54.127 167.906,-50.042C163.374,-45.088 158.702,-40.402 153.474,-36.199C147.895,-31.925 142.263,-27.709 136.41,-23.823C129.621,-19.315 122.234,-15.918 114.776,-12.704C112.44,-11.742 110.093,-10.807 107.723,-9.925C103.816,-8.472 99.711,-7.531 95.688,-6.452C89.325,-4.751 82.999,-2.949 76.528,-1.731C74.543,-1.547 72.555,-1.393 70.566,-1.226C66.504,-0.886 62.445,-0.48 58.371,-0.261C52.328,0.062 46.251,-0.175 40.226,-0.775C31.654,-2.186 23.151,-4.007 14.563,-5.304C5.297,-6.706 -3.777,-8.683 -12.895,-10.859C-18.211,-12.124 -23.48,-13.585 -28.793,-14.878C-34.063,-16.159 -39.313,-17.476 -44.539,-18.921C-49.598,-20.32 -54.742,-21.39 -59.797,-22.8C-64.57,-24.136 -69.324,-25.468 -74.156,-26.585C-78.234,-27.527 -82.285,-28.519 -86.289,-29.734C-90.043,-30.87 -93.77,-32.042 -97.578,-32.98C-101.57,-33.968 -105.602,-34.8 -109.563,-35.917C-112.949,-36.87 -116.305,-37.925 -119.672,-38.941C-132.968,-42.964 -146.503,-46.238 -159.495,-51.192C-165.057,-53.772 -170.468,-56.638 -176.027,-59.226C-179.336,-60.769 -182.492,-62.523 -185.633,-64.37C-189.544,-66.674 -193.704,-68.441 -197.894,-70.155C-202.449,-72.322 -206.756,-74.993 -211.082,-77.566C-213.309,-78.89 -215.687,-79.894 -217.945,-81.156C-219.957,-82.281 -221.656,-83.866 -223.695,-84.933C-227.969,-87.159 -231.828,-88.632 -236.395,-89.374C-241.473,-90.198 -246.258,-90.734 -251.312,-90.937C-255.387,-91.105 -259.402,-91.327 -263.473,-90.925C-265.379,-90.738 -267.277,-90.487 -269.174,-90.215C-270.197,-90.146 -271.223,-90.103 -272.242,-89.991C-275.476,-89.641 -278.669,-89.167 -281.867,-88.68C-284.687,-88.355 -287.506,-88.026 -290.305,-87.527C-293.164,-87.015 -295.91,-86.031 -298.703,-85.249C-301.699,-84.413 -304.773,-83.906 -307.785,-83.128C-310.883,-82.331 -313.859,-81.12 -316.875,-80.066C-319.437,-79.171 -322.031,-78.39 -324.559,-77.402C-329.477,-75.48 -334.332,-73.382 -339.168,-71.261C-342.68,-69.726 -346.066,-67.964 -349.383,-66.05C-352.075,-64.494 -354.727,-62.917 -357.518,-61.567C-361.243,-60.049 -364.96,-58.514 -368.602,-56.804C-372.117,-55.156 -375.578,-53.413 -379.133,-51.859C-386.289,-48.722 -393.484,-45.738 -400.387,-42.062C-403.605,-40.347 -406.797,-38.581 -409.941,-36.738C-413.074,-34.906 -416.07,-32.843 -419.195,-30.991C-422.629,-28.952 -426.25,-27.226 -429.789,-25.374C-432.233,-24.097 -434.663,-22.815 -437.147,-21.635C-441.513,-19.949 -445.945,-18.49 -450.551,-17.534C-456.181,-16.367 -461.55,-14.171 -467.141,-12.886C-471.408,-12.631 -475.695,-12.691 -479.969,-12.632C-482.301,-12.601 -484.633,-12.542 -486.949,-12.257C-489.97,-11.889 -493.043,-11.544 -496.072,-11.028C-497.841,-11.03 -499.617,-11.174 -501.371,-11.304C-503.183,-11.441 -505.001,-11.588 -506.816,-11.762C-513.279,-12.981 -519.575,-14.973 -525.824,-16.995C-530.594,-18.538 -535.469,-19.628 -540.258,-21.089C-543.35,-22.035 -546.504,-22.961 -549.592,-24.02C-553.119,-25.961 -556.405,-28.383 -559.633,-30.753C-563.621,-33.679 -567.82,-36.253 -572.133,-38.663C-575.82,-40.722 -579.527,-42.761 -583.145,-44.948C-585.771,-46.533 -588.298,-48.256 -590.772,-50.057C-594.301,-52.979 -597.686,-56.065 -601.102,-59.12C-605.32,-62.894 -609.531,-66.636 -613.523,-70.652C-621.512,-78.685 -629.577,-86.625 -636.767,-95.381C-643.202,-104.196 -648.942,-113.459 -654.016,-123.132C-657.008,-128.835 -659.496,-134.753 -662.141,-140.62C-664.208,-145.201 -666.371,-149.733 -668.413,-154.322C-670.961,-160.62 -673.431,-166.953 -675.707,-173.355C-678.578,-181.409 -680.832,-189.644 -683.098,-197.882C-685.145,-205.304 -687.062,-212.695 -688.312,-220.3C-689.396,-226.899 -690.444,-233.503 -691.388,-240.123C-692.497,-248.746 -693.604,-257.368 -694.871,-265.976C-695.871,-272.757 -697.048,-279.514 -698.045,-286.298C-699.05,-294.26 -699.895,-302.257 -700.168,-310.273C-700.508,-320.398 -700.293,-330.577 -700.203,-340.71C-700.109,-350.98 -699.801,-361.234 -699.297,-371.491C-698.809,-381.382 -698.66,-391.308 -697.895,-401.183C-696.969,-413.105 -696.293,-425.054 -696.078,-437.007C-695.876,-448.004 -695.808,-459.082 -694.638,-470.033C-692.004,-487.807 -688.244,-505.514 -682.219,-522.448C-680.449,-527.417 -678.562,-532.355 -677.016,-537.398C-675.449,-542.491 -673.953,-547.593 -672.062,-552.581C-669.019,-560.621 -665.89,-568.657 -662.622,-576.617C-659.74,-583.178 -656.678,-589.641 -653.223,-595.929C-649.379,-602.921 -644.996,-609.566 -640.437,-616.109C-631.781,-628.53 -623.513,-641.209 -614.431,-653.323C-609,-660.199 -603.458,-666.992 -598.301,-674.077C-594.687,-679.038 -591.318,-684.178 -587.715,-689.145C-578.175,-700.687 -567.045,-710.983 -555.344,-720.328C-544.555,-728.344 -533.348,-735.707 -521.167,-741.384C-514.433,-743.891 -507.404,-745.779 -500.34,-747.087C-483.368,-748.414 -466.301,-744.671 -449.477,-742.87C-440.441,-741.902 -431.41,-741.038 -422.32,-740.738C-412.785,-740.421 -403.258,-740.64 -393.727,-740.05C-391.17,-739.894 -388.618,-739.721 -386.069,-739.49C-382.415,-738.784 -378.836,-737.831 -375.286,-736.716C-375.122,-735.031 -374.815,-733.357 -374.363,-731.714C-372.301,-724.218 -367.285,-717.71 -360.578,-713.784C-353.906,-709.882 -344.941,-708.327 -337.461,-710.761C-336.913,-710.939 -336.363,-711.114 -335.812,-711.282C-333.799,-710.236 -331.821,-709.12 -329.855,-707.98C-326.956,-706.294 -324.105,-704.564 -321.358,-702.664C-319.636,-701.234 -317.933,-699.781 -316.238,-698.317C-313.447,-695.093 -310.703,-691.827 -308.039,-688.505C-305.273,-684.831 -302.556,-681.122 -299.84,-677.409C-298.016,-674.913 -296.262,-672.39 -294.66,-669.741C-292.832,-666.718 -291.293,-663.484 -289.68,-660.339C-286.23,-653.605 -278.895,-648.519 -271.75,-646.55C-268.042,-645.529 -264.173,-645.249 -260.387,-645.68C-258.378,-644.122 -256.344,-642.597 -254.289,-641.105C-252.457,-639.777 -250.594,-638.413 -248.59,-637.351C-245.105,-635.495 -241.34,-633.683 -237.41,-632.98C-233.422,-632.265 -229.285,-631.64 -225.199,-631.745C-220.047,-631.882 -214.855,-632.714 -209.809,-633.718C-208.07,-634.062 -206.395,-634.589 -204.738,-635.206C-200.336,-636.847 -195.957,-638.741 -191.812,-640.976C-190.234,-641.823 -188.738,-642.827 -187.293,-643.874C-183.898,-646.331 -180.219,-649.046 -177.152,-652.038C-172.551,-656.523 -168.617,-661.73 -164.996,-667.019C-162.664,-670.429 -160.609,-674.077 -159,-677.882C-156.238,-684.417 -153.602,-690.788 -151.555,-697.562C-149.503,-704.376 -147.846,-711.331 -145.428,-718.026C-140.93,-727.386 -135.197,-735.955 -128.981,-744.269C-126.345,-747.555 -123.589,-750.736 -120.505,-753.593C-118.814,-754.653 -117.077,-755.614 -115.294,-756.507C-108.197,-759.046 -100.839,-760.868 -93.559,-762.788C-84.594,-765.152 -75.617,-767.394 -66.762,-770.159C-57.949,-772.913 -48.969,-775.066 -40.031,-777.363C-32.863,-779.204 -25.716,-781.023 -18.437,-782.302C-12.306,-782.859 -6.178,-782.945 0,-782.843M-22.527,-841.859C-29.766,-840.941 -36.855,-839.855 -43.961,-838.238C-48.801,-837.136 -53.598,-835.835 -58.398,-834.597C-63.652,-833.245 -68.922,-831.964 -74.152,-830.531C-79.031,-829.198 -83.824,-827.609 -88.68,-826.198C-98.797,-823.261 -109.055,-820.808 -119.219,-818.042C-123.973,-816.745 -128.676,-815.327 -133.301,-813.628C-137.676,-812.023 -141.953,-810.105 -146.148,-808.073C-148.324,-807.019 -150.453,-805.757 -152.422,-804.351C-158.465,-800.042 -164.035,-795.527 -168.809,-789.859C-173.227,-784.609 -177.387,-779.132 -181.492,-773.64C-187.598,-765.476 -193.109,-757.011 -197.504,-747.796C-199.93,-742.702 -202.145,-737.456 -203.961,-732.113C-205.043,-728.929 -205.926,-725.667 -206.852,-722.433C-208.49,-716.717 -210.09,-711.009 -212.107,-705.422C-213.452,-702.703 -214.964,-700.083 -216.65,-697.563C-217.77,-696.314 -218.93,-695.115 -220.15,-693.969C-221.095,-693.383 -222.057,-692.829 -223.036,-692.305C-223.073,-692.294 -223.111,-692.283 -223.148,-692.272C-225.64,-694.314 -228.08,-696.416 -230.504,-698.542C-233.809,-701.441 -237.09,-704.339 -240.074,-707.57C-245.586,-713.534 -250.484,-720.085 -256.469,-725.605C-260.148,-728.995 -264.086,-732.097 -267.84,-735.405C-269.843,-737.172 -271.844,-738.943 -273.855,-740.701C-275.044,-742.066 -276.237,-743.426 -277.426,-744.792C-280.727,-748.581 -284.035,-752.378 -287.68,-755.843C-291.414,-759.39 -295.391,-762.663 -299.414,-765.87C-305.082,-770.394 -310.488,-774.613 -316.957,-777.812C-323.547,-781.073 -330.539,-783.788 -337.312,-786.605C-341.953,-788.534 -346.672,-790.23 -351.418,-791.882C-356.336,-793.589 -361.246,-795.409 -366.328,-796.581C-377.355,-799.124 -388.812,-799.921 -400.105,-800.374C-409.805,-800.765 -419.512,-800.511 -429.207,-801.046C-437.887,-801.527 -446.562,-802.456 -455.187,-803.546C-464.207,-804.683 -473.238,-806.148 -482.309,-806.823C-487.301,-807.198 -492.324,-807.519 -497.328,-807.323C-499.676,-807.23 -502.016,-806.988 -504.344,-806.679C-509.32,-806.015 -514.211,-805.405 -519.113,-804.39C-529.992,-802.132 -540.223,-798.198 -550.367,-793.714C-558.176,-790.265 -565.551,-785.956 -572.672,-781.273C-581.879,-775.218 -590.645,-768.491 -599.227,-761.597C-606.117,-756.062 -612.664,-750.073 -618.914,-743.831C-626.637,-736.12 -633.602,-727.741 -639.941,-718.855C-644.198,-712.885 -648.301,-706.833 -652.685,-700.962C-659.367,-692.461 -666.121,-684.023 -672.395,-675.21C-678.371,-666.812 -684.059,-658.226 -689.918,-649.749C-695.727,-641.343 -701.336,-632.929 -706.262,-623.968C-712.32,-612.948 -717.109,-601.12 -721.699,-589.448C-725.379,-580.093 -729.43,-570.796 -732.473,-561.21C-734.027,-556.312 -735.445,-551.378 -737.16,-546.527C-738.848,-541.749 -740.613,-537.003 -742.172,-532.179C-745.246,-522.695 -747.699,-512.89 -749.559,-503.101C-751.887,-490.835 -754.02,-478.343 -755.031,-465.906C-755.848,-455.87 -755.918,-445.753 -756.102,-435.691C-756.285,-425.421 -756.82,-415.124 -757.602,-404.886C-758.371,-394.796 -758.676,-384.698 -759.148,-374.589C-759.609,-364.644 -760.043,-354.698 -760.16,-344.741C-760.352,-328.409 -760.727,-312.034 -759.113,-295.765C-757.421,-278.652 -754.373,-261.74 -751.965,-244.728C-750.552,-233.873 -749.206,-223.007 -747.449,-212.202C-746.652,-207.3 -745.914,-202.386 -744.941,-197.515C-743.992,-192.761 -742.648,-188.085 -741.363,-183.413C-738.633,-173.484 -735.883,-163.601 -732.305,-153.933C-728.027,-142.37 -723.414,-130.902 -718.293,-119.687C-716.156,-115.011 -713.934,-110.382 -711.879,-105.667C-709.852,-101.023 -707.75,-96.417 -705.348,-91.948C-700.758,-83.413 -695.758,-75.175 -690.152,-67.265C-682.984,-57.156 -675.016,-47.769 -666.512,-38.781C-663.437,-35.527 -660.164,-32.464 -657.008,-29.292C-654.02,-26.288 -651.012,-23.331 -647.84,-20.519C-644.574,-17.624 -641.324,-14.71 -638.066,-11.808C-633.082,-7.37 -627.82,-3.304 -622.48,0.708C-615.68,5.817 -608.258,9.829 -600.875,14.009C-596.289,16.606 -592.02,19.563 -587.746,22.63C-585.75,24.059 -583.719,25.434 -581.641,26.739C-577.512,29.325 -572.93,31.157 -568.363,32.817C-560.016,35.852 -551.383,37.848 -542.922,40.489C-537.797,42.091 -532.754,43.802 -527.523,45.032C-520.992,46.571 -514.363,47.544 -507.672,48.134C-503.824,48.473 -499.988,48.86 -496.121,48.962C-491.961,49.07 -487.884,48.243 -483.809,47.48C-479.6,47.245 -475.366,47.42 -471.152,47.282C-465.363,47.094 -459.809,46.348 -454.031,45.544C-449.777,44.95 -445.703,43.407 -441.621,42.13C-438.023,41.005 -434.344,40.341 -430.687,39.45C-427.266,38.61 -423.941,37.274 -420.664,35.997C-410.191,31.923 -400.172,27.044 -390.332,21.641C-385.988,19.255 -381.949,16.344 -377.633,13.899C-372.98,11.266 -368.285,8.716 -363.473,6.384C-358.684,4.059 -353.723,2.087 -348.848,-0.05C-344.86,-1.797 -340.985,-3.788 -337.023,-5.596C-331.396,-7.905 -325.828,-10.263 -320.566,-13.378C-316.743,-15.639 -312.833,-17.633 -308.813,-19.453C-307.082,-20.128 -305.336,-20.762 -303.566,-21.335C-300.07,-22.468 -296.66,-23.882 -293.133,-24.909C-289.566,-25.948 -285.891,-26.519 -282.312,-27.519C-279.344,-28.346 -276.448,-29.309 -273.412,-29.822C-272.983,-29.881 -272.555,-29.94 -272.126,-29.999C-271.136,-30.096 -270.144,-30.156 -269.148,-30.21C-266.76,-30.338 -264.387,-30.666 -262.019,-31.034C-260.017,-31.168 -258.011,-31.191 -256,-31.198C-254.332,-31.202 -252.68,-30.995 -251.02,-30.925C-250.882,-30.919 -250.745,-30.914 -250.607,-30.909C-249.836,-30.356 -249.059,-29.81 -248.23,-29.347C-245.695,-27.933 -243.043,-26.781 -240.551,-25.273C-238.055,-23.757 -235.531,-22.3 -232.98,-20.87C-229.141,-18.721 -225.14,-16.958 -221.091,-15.274C-218.072,-13.822 -215.23,-12.097 -212.293,-10.452C-208.992,-8.605 -205.535,-7.081 -202.133,-5.441C-199.008,-3.941 -195.98,-2.249 -192.848,-0.765C-186.641,2.169 -180.316,4.927 -173.852,7.231C-164.723,10.485 -155.484,13.399 -146.133,15.942C-137.152,18.384 -128.32,21.352 -119.27,23.54C-114.32,24.735 -109.414,25.907 -104.547,27.415C-99.527,28.977 -94.461,30.266 -89.34,31.45C-84.605,32.544 -79.945,33.884 -75.266,35.188C-70.211,36.602 -65.07,37.669 -60.012,39.067C-54.641,40.552 -49.246,41.884 -43.832,43.2C-38.656,44.462 -33.52,45.884 -28.336,47.122C-19.145,49.313 -9.984,51.255 -0.645,52.665C11.684,54.528 23.832,57.223 36.215,58.774C46.137,60.016 55.973,60.044 65.922,59.173C78.195,58.102 90.402,57.009 102.363,53.895C111.91,51.411 121.465,49.016 130.586,45.219C137.633,42.286 144.676,39.344 151.625,36.192C156.164,34.134 160.645,31.88 164.84,29.184C175.375,22.407 185.324,14.555 195.156,6.817C203.223,0.469 210.027,-7.136 216.781,-14.823C225.059,-24.245 232.363,-34.511 239.48,-44.823C245.066,-52.921 250.602,-61.05 255.906,-69.335C258.723,-73.738 261.383,-78.202 263.781,-82.851C267.125,-89.331 269.781,-96.187 272.488,-102.948C276.285,-112.421 279.52,-122.12 282.43,-131.902C285.25,-141.382 288.262,-150.8 291.359,-160.198C293.07,-165.394 294.715,-170.616 296.062,-175.921C298,-183.546 298.937,-191.359 299.984,-199.144C301.339,-209.239 302.502,-219.36 303.772,-229.467C305.196,-238.766 307.135,-247.971 308.973,-257.198C311.086,-267.796 312.98,-278.437 314.504,-289.132C316.391,-302.386 317.918,-315.687 319.172,-329.015C320.145,-339.417 321.301,-349.804 322.109,-360.218C322.91,-370.519 323.629,-380.82 324.781,-391.085C325.93,-401.288 327.5,-411.409 327.914,-421.679C328.75,-442.355 325.727,-462.913 323.895,-483.464C322.977,-493.781 322.559,-504.124 321.387,-514.421C319.969,-526.851 317.957,-539.222 315.863,-551.554C314.156,-561.605 311.949,-571.562 309.93,-581.55C308.926,-586.531 307.895,-591.503 306.707,-596.445C305.57,-601.159 304.191,-605.812 303.012,-610.514C300.723,-619.675 298.758,-628.917 296.187,-638.003C293.598,-647.152 290.84,-656.339 287.625,-665.284C283.445,-676.925 278.809,-688.386 273.785,-699.691C269.586,-709.144 264.656,-718.269 259.801,-727.398C255.215,-736.03 250.562,-744.648 244.703,-752.495C237.012,-762.8 229.172,-773.355 219.391,-781.8C213.586,-786.812 207.437,-791.531 201.02,-795.734C196.891,-798.437 192.629,-800.917 188.422,-803.495C183.973,-806.222 179.516,-808.929 174.871,-811.327C168.422,-814.655 161.77,-818.011 154.852,-820.202C149.848,-821.784 144.66,-822.585 139.488,-823.402C133.968,-824.268 128.426,-824.991 122.884,-825.704C110.405,-827.595 98.137,-830.714 85.758,-833.159C76.375,-835.011 66.809,-835.823 57.32,-836.921C51.679,-837.575 46.029,-838.184 40.39,-838.869C29.411,-840.468 18.469,-842.21 7.355,-842.632C3.452,-842.78 -0.448,-842.887 -4.343,-842.887C-10.417,-842.887 -16.478,-842.627 -22.527,-841.859" style="fill:rgb(244,244,242);fill-rule:nonzero;"/>
        </g>
        <g transform="matrix(1,0,0,1,1141.46,971.224)">
            <path d="M0,448.518C0.253,448.555 0.507,448.591 0.761,448.627C0.513,448.594 0.265,448.56 0.017,448.527C0.011,448.524 0.005,448.52 0,448.518M-1.575,448.312C-1.378,448.331 -1.183,448.358 -0.989,448.391L-1.575,448.312ZM-599.778,-122.571C-604.075,-122.489 -608.349,-122.407 -612.638,-122.278C-621.634,-122.004 -630.653,-121.77 -639.657,-121.376C-649.899,-120.926 -660.122,-120.372 -670.364,-119.704C-681.321,-118.993 -692.329,-117.551 -703.185,-115.919C-707.388,-115.286 -711.618,-114.731 -715.794,-113.958C-718.321,-113.489 -720.856,-113.02 -723.384,-112.551C-725.231,-112.208 -727.071,-111.672 -728.876,-111.141C-733.478,-109.79 -738.228,-108.157 -742.149,-105.364C-746.657,-102.696 -750.243,-99.106 -752.911,-94.598C-754.453,-91.941 -755.559,-89.165 -756.229,-86.271C-764.014,-80.583 -768.868,-71.686 -768.868,-61.852C-768.858,-59.137 -768.511,-56.514 -767.824,-53.983C-769.758,-52.448 -771.577,-50.745 -773.396,-49.086C-775.854,-46.844 -777.821,-44.019 -779.266,-40.922C-779.505,-40.843 -779.743,-40.764 -779.981,-40.684C-785.216,-38.922 -790.259,-36.536 -795.274,-34.235C-801.009,-31.61 -806.618,-26.141 -809.806,-20.688C-811.579,-17.661 -812.815,-14.334 -813.504,-10.892C-814.835,-9.835 -816.15,-8.767 -817.462,-7.727C-821.298,-4.68 -824.271,-1.344 -827.036,2.828C-831.989,10.3 -833.466,19.956 -831.239,28.609C-830.924,29.834 -830.532,31.052 -830.071,32.251C-835.655,34.555 -841.203,37.005 -846.587,39.714C-849.056,40.956 -851.364,42.476 -853.681,43.98C-856.544,45.835 -859.169,48.066 -861.81,50.226C-866.22,53.828 -869.243,60.066 -871.005,65.312C-873.759,73.519 -872.485,83.378 -868.138,90.808C-865.481,95.343 -861.271,99.691 -856.497,101.992C-854.11,102.999 -851.72,104.007 -849.333,105.015C-846.29,105.449 -843.247,105.855 -840.196,106.234C-838.61,106.433 -836.817,106.027 -835.22,105.859C-834.786,105.813 -834.352,105.766 -833.917,105.718C-832.876,106.53 -831.774,107.28 -830.61,107.968C-828.22,108.976 -825.833,109.984 -823.442,110.992C-818.126,112.421 -812.81,112.421 -807.493,110.992C-798.662,109.269 -789.947,106.965 -781.183,104.889C-781.468,106.555 -781.613,108.26 -781.618,110.003C-781.388,113.066 -781.298,116.203 -780.333,119.124C-779.325,121.511 -778.313,123.902 -777.306,126.289C-774.642,130.796 -771.052,134.386 -766.544,137.054C-762.046,139.798 -757.106,141.259 -751.974,141.78C-752.937,142.312 -753.884,142.881 -754.817,143.499C-759.325,146.167 -762.911,149.753 -765.579,154.261C-769.634,161.195 -770.735,169.636 -768.603,177.378C-765.316,189.318 -754.296,198.621 -741.887,199.362C-741.799,201.634 -741.454,203.903 -740.845,206.113C-739.484,210.963 -737.077,215.205 -733.628,218.834C-741.946,221.868 -750.119,225.471 -758.169,228.988C-763.884,231.484 -769.442,234.312 -774.907,237.312C-781.833,241.113 -788.638,245.402 -794.692,250.468C-794.911,250.73 -795.13,250.992 -795.345,251.257C-797.45,253.324 -799.173,255.636 -800.513,258.195C-801.7,260.367 -803.454,264.417 -804.188,267.441C-806.271,275.999 -805.438,285.515 -800.587,293.042C-797.106,298.445 -792.481,303.066 -786.716,306.027C-782.353,308.269 -777.712,309.96 -772.981,311.214C-762.09,314.094 -750.935,314.883 -739.752,315.252C-740.917,322.126 -739.704,329.358 -736.118,335.492C-734.591,338.105 -732.642,340.453 -730.61,342.691C-728.13,345.414 -724.966,347.374 -721.6,348.83C-722.838,352.155 -723.493,355.7 -723.493,359.292C-723.493,367.218 -720.31,374.906 -714.708,380.507C-712.681,382.07 -710.657,383.636 -708.634,385.199C-703.958,387.914 -698.907,389.277 -693.493,389.292C-685.515,390.334 -677.434,389.428 -669.421,388.746C-672.058,393.29 -673.493,398.501 -673.493,403.82C-673.493,411.746 -670.306,419.429 -664.704,425.035L-658.634,429.722C-653.954,432.437 -648.907,433.804 -643.493,433.82C-634.14,433.118 -624.827,432.047 -615.513,430.977C-616.94,438.137 -615.698,445.711 -612.001,452.031C-609.738,455.899 -606.701,459.085 -603.125,461.531C-605.838,461.879 -608.551,462.237 -611.247,462.632C-621.024,464.074 -630.813,465.308 -640.321,468.07C-653.165,471.804 -662.349,483.511 -662.349,496.999C-662.349,500.915 -661.571,504.772 -660.107,508.348C-661.455,509.309 -662.734,510.389 -663.942,511.589C-669.544,517.191 -672.728,524.874 -672.728,532.8C-672.728,540.726 -669.544,548.414 -663.942,554.015C-658.188,559.769 -650.771,562.535 -642.728,562.8C-634.813,563.062 -626.856,562.093 -618.954,561.613C-612.478,561.218 -605.997,560.828 -599.521,560.433C-590.817,559.906 -582.106,559.535 -573.399,559.121C-554.075,558.199 -534.747,557.683 -515.411,557.113C-513.827,557.067 -512.243,557.03 -510.657,556.997C-505.571,560.934 -499.221,563.301 -492.399,563.355C-473.321,563.499 -454.2,564.054 -435.118,564.703C-417.228,565.308 -399.36,566.585 -381.474,567.464C-362.907,568.371 -344.321,569.402 -325.731,569.976C-314.481,570.324 -303.212,570.675 -291.962,571.027C-283.294,571.296 -274.606,571.226 -265.931,571.289C-257.747,571.347 -249.583,571.355 -241.396,571.195C-235.462,571.078 -229.524,570.96 -223.591,570.847C-221.321,570.8 -219.056,570.706 -216.79,570.644C-213.743,570.554 -210.724,570.406 -207.7,570.015C-203.974,569.535 -200.407,569.16 -196.782,568.378C-192.989,567.566 -189.481,565.445 -185.938,563.843C-181.431,561.175 -177.845,557.589 -175.177,553.081C-174.55,552.001 -173.996,550.903 -173.514,549.784C-167.392,549.61 -161.271,549.396 -155.153,549.23C-150.235,549.097 -145.321,548.964 -140.403,548.831C-134.86,548.679 -129.313,548.335 -123.778,548.027C-116.182,547.604 -108.667,546.76 -101.142,545.764C-94.306,544.934 -87.375,544.348 -80.72,542.558C-76.458,541.41 -72.372,539.468 -68.45,537.464C-65.524,535.968 -62.97,533.597 -60.606,531.3C-59.755,530.472 -59.04,529.449 -58.239,528.566C-56.677,526.542 -55.114,524.519 -53.548,522.496C-50.837,517.816 -49.47,512.769 -49.454,507.351C-49.81,504.695 -50.169,502.035 -50.524,499.378C-51.899,494.477 -54.34,490.197 -57.848,486.541C-56.442,485.978 -55.049,485.375 -53.646,484.851C-51.255,483.843 -48.868,482.835 -46.478,481.828C-41.97,479.16 -38.384,475.574 -35.716,471.066C-33.172,466.718 -31.807,461.763 -31.655,456.775C-29.123,456.713 -26.592,456.644 -24.06,456.57C-17.567,456.382 -11.13,455.898 -4.669,455.289C-2.286,455.062 0.116,455.097 2.507,454.929C5.937,454.683 9.343,454.085 12.745,453.566C16.304,453.023 19.53,451.058 22.784,449.632C26.499,448.007 33.261,441.691 34.937,437.82C36.065,435.218 37.171,432.609 38.253,429.984C39.671,424.824 39.765,418.324 38.315,413.16C36.042,405.078 30.929,398.253 23.663,394.003C19.983,391.849 16.691,390.901 13.167,390.294C8.826,389.495 4.535,388.429 0.199,387.564C1.06,385.524 1.92,383.486 2.78,381.445C4.21,376.128 4.21,370.812 2.78,365.496C1.339,357.339 -4.524,349.972 -11.513,345.789C-13.183,344.79 -14.936,343.928 -16.75,343.222C-16.247,342.984 -15.745,342.741 -15.247,342.492C-14.044,341.902 -12.938,340.925 -11.833,340.179C-7.325,337.511 -3.739,333.925 -1.071,329.417C1.644,324.738 3.007,319.687 3.026,314.273C3.007,308.859 1.644,303.812 -1.071,299.132C-3.739,294.624 -7.325,291.039 -11.833,288.371C-16.462,284.906 -22.228,283.398 -27.72,281.816C-29.798,281.214 -31.876,280.609 -33.958,280.046C-34.169,279.989 -34.381,279.932 -34.592,279.875C-38.313,272.344 -45.155,266.51 -53.563,264.027C-56.399,263.187 -59.177,262.402 -62.095,261.886C-64.61,261.441 -67.161,261.148 -69.688,260.792C-72.185,260.437 -74.673,260.085 -77.173,259.734C-83.548,258.831 -89.907,257.894 -96.306,257.128C-105.353,256.042 -114.376,254.792 -123.442,253.91C-135.196,252.765 -146.993,251.621 -158.751,250.476C-165.657,249.804 -172.595,249.378 -179.528,248.882C-182.968,248.633 -186.407,248.385 -189.846,248.137C-182.872,247.837 -175.898,247.546 -168.923,247.261C-150.11,246.492 -131.329,245.734 -112.532,244.882C-101.134,244.367 -89.716,243.851 -78.31,243.335C-68.091,242.874 -57.876,242.23 -47.681,241.335C-41.271,240.773 -34.872,239.968 -28.485,239.195C-17.567,237.874 -6.692,236.601 3.179,231.343C4.956,230.398 6.655,229.316 8.394,228.3C15.104,224.386 20.116,217.863 22.179,210.371C23.608,205.054 23.608,199.738 22.179,194.421C20.757,189.339 18.183,184.925 14.464,181.183C7.429,173.011 -3.087,170.632 -13.075,168.343C-17.403,167.355 -21.728,166.292 -26.083,165.433C-31.442,164.378 -36.806,163.324 -42.161,162.269C-44.389,161.831 -46.644,161.469 -48.901,161.127C-48.9,161.043 -48.899,160.958 -48.899,160.874C-48.913,156.34 -49.87,152.067 -51.772,148.051C-50.004,147.632 -48.238,147.195 -46.454,146.839C-44.114,146.371 -41.802,145.914 -39.528,145.175C-36.388,144.156 -33.364,142.734 -30.399,141.292C-27.517,139.89 -25.22,137.464 -22.716,135.476C-20.302,133.558 -18.427,130.769 -17.024,128.019C-14.083,122.234 -12.786,117.648 -12.72,111.062C-12.665,105.792 -14.376,99.757 -17.032,95.214C-19.251,91.425 -24.243,85.886 -28.313,83.949C-31.188,82.581 -34.079,81.175 -37.146,80.308C-38.099,80.042 -39.099,79.929 -40.06,79.703C-43.747,78.828 -47.403,77.89 -51.114,77.144C-55.349,76.292 -59.556,75.339 -63.829,74.664C-75.239,72.867 -86.642,71.066 -98.118,69.664C-103.365,69.024 -108.608,68.306 -113.857,67.648C-113.255,66.293 -112.748,64.883 -112.337,63.417C-108.794,50.542 -114.474,36.203 -126.126,29.539C-132.231,26.046 -138.856,24.269 -145.923,24.687C-147.103,24.757 -148.278,24.722 -149.458,24.714C-151.649,24.706 -153.841,24.695 -156.036,24.691C-160.704,24.683 -165.396,24.679 -170.067,24.687C-180.423,24.703 -190.755,24.749 -201.095,24.8C-218.681,24.886 -236.282,25.175 -253.86,25.636C-258.23,25.75 -262.599,25.878 -266.968,26.018C-266.847,25.717 -266.723,25.411 -266.595,25.097C-264.88,20.886 -265.454,12.675 -266.614,8.464C-267.622,6.074 -268.63,3.687 -269.638,1.296C-272.306,-3.211 -275.892,-6.797 -280.403,-9.465C-285.685,-13.243 -293.118,-14.153 -299.349,-14.473C-300.521,-14.532 -301.7,-14.586 -302.872,-14.602C-307.208,-14.661 -311.532,-14.688 -315.868,-14.672C-325.731,-14.641 -335.591,-14.571 -345.454,-14.43C-363.946,-14.161 -382.431,-13.172 -400.899,-12.309C-408.772,-11.94 -416.644,-11.514 -424.508,-11.042C-422.505,-15.279 -421.42,-19.987 -421.696,-24.501C-422.056,-27.161 -422.411,-29.817 -422.771,-32.477C-424.196,-37.559 -426.767,-41.973 -430.485,-45.715C-436.282,-51.512 -443.622,-54.149 -451.696,-54.501C-451.939,-54.511 -452.182,-54.52 -452.425,-54.528C-454.488,-56.657 -456.86,-58.502 -459.321,-59.661C-461.708,-60.669 -464.099,-61.676 -466.485,-62.684C-469.431,-63.247 -472.396,-63.626 -475.388,-63.825C-476.017,-63.868 -476.677,-63.836 -477.337,-63.805C-477.802,-63.782 -478.263,-63.758 -478.708,-63.766C-480.028,-63.782 -481.36,-63.692 -482.681,-63.653C-484.425,-63.596 -486.168,-63.546 -487.913,-63.498C-487.646,-65.124 -487.509,-66.761 -487.509,-68.379C-487.509,-78.797 -493.196,-89.149 -502.368,-94.286C-504.853,-95.676 -509.595,-97.852 -511.095,-98.094C-514.778,-98.692 -518.481,-99.297 -522.208,-99.508C-523.474,-99.583 -524.751,-99.626 -526.021,-99.68C-528.313,-99.786 -530.622,-99.817 -532.919,-99.876C-537.114,-99.985 -541.325,-99.958 -545.528,-99.938C-548.974,-99.919 -552.423,-99.902 -555.872,-99.876C-556.553,-102.484 -557.594,-104.994 -558.993,-107.407C-560.56,-109.43 -562.122,-111.454 -563.685,-113.477C-567.427,-117.196 -571.841,-119.766 -576.923,-121.192C-580.855,-122.516 -585.193,-122.837 -589.551,-122.837C-593.011,-122.837 -596.483,-122.635 -599.778,-122.571" style="fill:rgb(244,244,242);fill-rule:nonzero;"/>
        </g>
        <g transform="matrix(1,0,0,1,356.806,1646.05)">
            <path d="M0,-611.697C-3.566,-611.256 -6.699,-611.006 -10.027,-610.154C-10.887,-609.935 -11.742,-609.685 -12.59,-609.42C-14.516,-608.822 -16.441,-608.224 -18.363,-607.627C-20.895,-606.842 -23.367,-605.986 -25.859,-605.084C-30.971,-603.237 -36.016,-601.287 -41.057,-599.28C-41.565,-599.145 -42.073,-599.01 -42.582,-598.877C-55.387,-595.494 -68.301,-591.986 -80.703,-587.291C-89.145,-584.095 -97.105,-580.595 -103.672,-574.209C-105.571,-572.363 -107.177,-570.284 -108.484,-568.045C-112.468,-565.232 -115.089,-561.676 -118.035,-557.498C-119.043,-555.107 -120.051,-552.72 -121.059,-550.33C-122.488,-545.013 -122.488,-539.697 -121.059,-534.381C-120.214,-531.37 -118.968,-528.593 -117.319,-526.052C-118.535,-524.523 -120.024,-522.538 -120.859,-521.166C-126.398,-512.041 -126.207,-500.025 -120.859,-490.884C-119.97,-489.381 -118.978,-487.98 -117.883,-486.681C-118.418,-482.695 -118.15,-478.709 -117.078,-474.72C-115.438,-468.759 -111.934,-463.543 -107.312,-459.685C-109.808,-456.435 -111.924,-452.945 -112.617,-448.736C-113.719,-444.64 -113.972,-440.545 -113.376,-436.449C-113.556,-436.137 -113.737,-435.81 -113.918,-435.467C-116.441,-430.67 -118.613,-425.388 -118.289,-419.802C-118.102,-416.599 -117.789,-413.377 -116.957,-410.275C-116.56,-408.858 -116.073,-407.493 -115.498,-406.179C-117.281,-404.066 -118.835,-401.713 -120.445,-399.584L-115.758,-405.654L-116.297,-404.951C-117.863,-402.927 -119.426,-400.904 -120.988,-398.881C-123.703,-394.201 -125.07,-389.154 -125.086,-383.74C-125.086,-375.818 -121.902,-368.119 -116.297,-362.525C-114.479,-360.706 -112.833,-359.071 -110.621,-357.635C-112.488,-354.977 -114.312,-352.292 -116.102,-349.592C-120.574,-342.842 -124.609,-335.592 -128.258,-328.365C-130.969,-323.685 -132.336,-318.638 -132.352,-313.224C-132.352,-305.619 -129.417,-298.233 -124.234,-292.699C-125.079,-289.998 -125.148,-286.959 -125.414,-284.31C-125.699,-281.49 -124.84,-276.217 -124.383,-275.119C-121.867,-269.107 -121.168,-266.119 -116.477,-261.427C-114.499,-259.449 -112.062,-257.627 -109.448,-256.171C-111.934,-251.067 -114.278,-245.894 -116.258,-240.576C-117.309,-237.76 -118.375,-234.955 -119.309,-232.095C-120.031,-229.881 -120.703,-227.658 -121.355,-225.42C-123.27,-218.857 -122.914,-213.064 -121.453,-206.49C-120.242,-201.025 -117.098,-196.787 -113.516,-192.701C-111.114,-189.965 -108.517,-188.299 -105.645,-186.949C-106.188,-182.972 -106.361,-179.317 -104.938,-174.947C-102.984,-168.939 -101.234,-165.74 -97.016,-161.08C-92.867,-156.494 -87.262,-153.927 -81.516,-152.045C-81.175,-151.932 -80.832,-151.829 -80.487,-151.733C-80.387,-148.449 -79.875,-145.171 -79.199,-142.377C-78.035,-137.576 -74.641,-132.135 -71.172,-128.666C-69.448,-126.941 -67.163,-125.196 -64.71,-123.752C-64.021,-121.461 -63.027,-119.232 -61.625,-116.826C-59.269,-112.776 -56.083,-109.568 -52.346,-106.902C-53.364,-104.644 -54.331,-102.354 -55.289,-100.041C-56.051,-98.209 -56.824,-96.385 -57.52,-94.529C-58.477,-91.959 -58.969,-85.15 -59.008,-84.748C-59.324,-81.529 -58.484,-78.334 -57.875,-75.17C-57.07,-70.986 -52.875,-64.177 -49.75,-61.33C-44.703,-56.736 -41.598,-54.892 -35.219,-52.642C-28.652,-50.326 -22.82,-51.435 -16.207,-52.474C-15.344,-52.611 -14.504,-52.963 -13.695,-53.267C-10.719,-54.385 -7.812,-55.713 -4.898,-56.982C-1.105,-58.635 2.301,-60.869 5.648,-63.283C7.15,-64.365 8.643,-65.46 10.126,-66.564C11.572,-65.129 13.17,-63.84 14.905,-62.734C15.494,-58.191 17.317,-53.385 19.41,-49.853C22.062,-45.381 26.039,-41.396 30.535,-38.763C32.541,-37.59 34.536,-36.717 36.57,-36.071C37.003,-35.109 37.49,-34.161 38.031,-33.228C40.699,-28.72 44.289,-25.131 48.797,-22.463C53.473,-19.752 58.523,-18.385 63.938,-18.369C66.064,-18.375 68.134,-18.59 70.147,-19.012C70.627,-17.887 71.179,-16.785 71.805,-15.717C75.73,-9.006 82.234,-3.994 89.734,-1.927C97.074,0.092 106.379,-0.599 112.848,-4.951C118.211,-8.558 123.509,-12.272 128.791,-16.006C129.971,-16.786 131.157,-17.558 132.359,-18.295C135.667,-20.32 138.956,-22.388 142.268,-24.413C142.558,-24.217 142.85,-24.023 143.145,-23.834C148.422,-20.584 152.73,-19.857 158.805,-19.42C162.723,-19.138 166.863,-19.838 170.52,-21.326C175.941,-23.537 181.387,-25.693 186.684,-28.189C189.621,-29.572 192.527,-31.013 195.441,-32.443C200.586,-34.963 205.719,-37.498 210.852,-40.033C218.335,-43.73 225.937,-47.142 233.582,-50.467C244.323,-54.684 255.139,-58.693 265.875,-62.92C279.43,-68.26 292.48,-74.549 305.457,-81.142C309.191,-83.037 312.914,-84.947 316.605,-86.916C323.332,-90.513 328.395,-97.592 330.391,-104.845C332.523,-112.592 331.422,-121.033 327.367,-127.963C323.864,-133.947 318.305,-138.586 311.822,-140.982C311.468,-141.726 311.081,-142.456 310.664,-143.17C303.766,-154.963 289.875,-160.256 276.785,-156.955C274.406,-156.357 272.191,-155.42 269.93,-154.49C268.625,-153.955 267.324,-153.416 266.024,-152.873C265.924,-152.835 265.825,-152.796 265.727,-152.756C263.602,-152.13 261.536,-151.267 259.577,-150.17C259.573,-150.169 259.571,-150.168 259.567,-150.167C257.393,-149.525 255.287,-148.641 253.294,-147.519C253.04,-147.406 252.779,-147.291 252.512,-147.174L250.086,-146.107C241.695,-142.421 233.392,-138.57 225.109,-134.667C222.61,-137.006 219.726,-138.946 216.605,-140.365C217.928,-142.022 219.27,-143.795 220.383,-145.552C221.945,-148.021 223.332,-151.927 224.141,-155.107C226.797,-165.545 224.102,-176.619 216.426,-184.295C210.075,-190.644 200.392,-194.2 191.362,-192.946C194.72,-196.354 197.978,-199.853 201.012,-203.564C204.727,-207.306 207.301,-211.72 208.727,-216.802C210.152,-222.119 210.152,-227.435 208.727,-232.752C207.301,-237.834 204.727,-242.248 201.012,-245.99C197.266,-249.709 192.855,-252.279 187.773,-253.705C179.146,-256.478 170.141,-254.581 162.763,-249.926C160.132,-250.26 157.581,-250.227 154.934,-249.933C153.487,-254.845 150.956,-259.125 147.336,-262.767C142.129,-268.748 133.309,-272.045 125.594,-272.045C124.467,-272.045 123.273,-271.968 122.051,-271.82C122.063,-274.634 121.698,-277.431 120.977,-280.056C119.965,-282.447 118.957,-284.834 117.949,-287.224C115.285,-291.732 111.695,-295.318 107.188,-297.986C105.07,-299.607 99.539,-301.49 98.996,-301.638C97.488,-302.052 96.031,-302.338 94.598,-302.506C92.002,-308.017 88.073,-312.631 82.609,-315.83C82.225,-316.052 81.837,-316.265 81.447,-316.47C84.231,-319.324 86.894,-322.265 89.418,-325.365C92.117,-328.677 94.953,-331.896 97.266,-335.498C99.07,-338.31 100.273,-341.627 101.199,-344.853C102.879,-350.705 102.355,-356.795 100.902,-362.611C99.035,-370.068 93.691,-376.693 87.117,-380.541C80.156,-384.611 71.773,-385.662 64,-383.564C59.884,-382.455 56.228,-380.679 52.704,-378.609C48.104,-384.544 41.35,-388.63 33.831,-389.949C34.463,-394.111 34.221,-398.273 33.102,-402.435C32.798,-403.518 32.443,-404.57 32.035,-405.593C37.224,-409.201 42.432,-412.781 47.633,-416.369C50.684,-418.474 53.66,-420.642 56.629,-422.857C61.137,-425.525 64.727,-429.115 67.395,-433.623C71.449,-440.552 72.551,-448.994 70.418,-456.74C68.495,-463.724 64.178,-469.466 58.53,-473.334C58.304,-476.438 57.59,-479.514 56.361,-482.466C58.445,-483.429 60.528,-484.396 62.609,-485.369C63.054,-485.577 63.498,-485.788 63.943,-486C66.961,-487.103 70.006,-488.23 72.609,-490.052C77.613,-493.549 81.137,-496.384 84.273,-501.744C87.387,-507.064 88.219,-511.904 88.535,-518.009C88.934,-525.732 85.113,-533.857 79.75,-539.224C77.723,-540.787 75.699,-542.349 73.676,-543.916C73.133,-544.23 72.585,-544.526 72.033,-544.804C72.401,-548.465 72.106,-552.192 71.121,-555.771C70.035,-559.641 68.285,-563.125 65.869,-566.218C66.333,-568.291 66.571,-570.434 66.566,-572.677C66.555,-583.592 60.992,-593.963 51.488,-599.525C46.871,-602.224 41.188,-603.736 35.84,-603.736C34.409,-603.736 32.323,-603.427 30.237,-603.085C28.19,-602.854 26.146,-602.611 24.102,-602.354C22.169,-604.396 19.954,-606.156 17.457,-607.635C12.777,-610.349 7.73,-611.713 2.316,-611.732C1.958,-611.77 1.635,-611.789 1.316,-611.789C0.895,-611.789 0.48,-611.757 0,-611.697" style="fill:rgb(244,244,242);fill-rule:nonzero;"/>
        </g>
        <g transform="matrix(1,0,0,1,896.448,1553.44)">
            <path d="M0,-86.546C-21.523,-85.835 -43.043,-84.558 -64.555,-83.554C-86.977,-82.511 -109.402,-81.519 -131.809,-80.148C-159.402,-78.456 -187,-76.526 -214.387,-72.651C-222.195,-71.546 -230.047,-70.101 -237.625,-67.894C-243.258,-66.249 -248.68,-63.917 -254.02,-61.519C-259.293,-59.155 -263.695,-55.124 -267.875,-51.198C-273.562,-45.858 -276.664,-37.698 -276.664,-29.987C-276.664,-22.062 -273.477,-14.374 -267.875,-8.773C-262.273,-3.171 -254.586,0.013 -246.664,0.013C-238.527,0.013 -231.309,-3.273 -225.449,-8.773C-225.418,-8.802 -225.387,-8.831 -225.356,-8.86C-217.092,-11.71 -208.381,-13.341 -199.734,-14.605C-188.475,-16.005 -177.128,-17.046 -165.824,-17.843C-153.992,-18.675 -142.164,-19.515 -130.324,-20.237C-107.93,-21.612 -85.504,-22.577 -63.09,-23.624C-42.066,-24.605 -21.039,-25.851 0,-26.546C8.039,-26.812 15.461,-29.581 21.211,-35.331C26.812,-40.933 30,-48.62 30,-56.546C30,-64.468 26.812,-72.155 21.211,-77.757C15.943,-83.025 8.323,-86.558 0.778,-86.559C0.519,-86.559 0.26,-86.554 0,-86.546" style="fill:rgb(244,244,242);fill-rule:nonzero;"/>
        </g>
        <g transform="matrix(1,0,0,1,945.455,1620.41)">
            <path d="M0,-788.663C-0.018,-788.619 -0.036,-788.575 -0.055,-788.531C-0.055,-788.53 -0.056,-788.53 -0.057,-788.529C-0.038,-788.574 -0.02,-788.618 0,-788.663M16.785,-809.046C14.898,-809.003 13.008,-808.929 11.125,-808.788C6.793,-808.472 2.5,-808.05 -1.805,-807.585C-12.375,-806.448 -22.914,-804.55 -33.152,-801.753C-47.77,-797.757 -62,-792.772 -75.707,-786.183C-80.449,-783.905 -85.02,-781.237 -89.645,-778.714C-97.336,-774.518 -104.707,-769.647 -111.766,-764.448C-119.899,-758.454 -127.794,-752.122 -135.312,-745.369C-138.515,-742.974 -141.558,-740.368 -144.395,-737.518C-145.697,-736.209 -147.179,-734.376 -148.462,-732.677C-150.974,-730.052 -153.415,-727.36 -155.773,-724.597C-158.953,-720.866 -161.879,-716.897 -164.871,-713.018C-166.848,-710.456 -168.664,-707.776 -170.32,-704.995C-172.777,-700.87 -174.719,-696.284 -176.402,-691.831C-178.141,-687.237 -178.574,-682.276 -178.965,-677.393C-179.062,-676.14 -178.902,-674.866 -178.75,-673.624C-178.301,-670.026 -178.199,-666.655 -177.012,-663.327C-175.932,-660.29 -174.844,-657.206 -173.016,-654.563C-174.553,-651.374 -175.842,-648.075 -176.852,-644.749C-178.859,-638.14 -178.766,-630.093 -177.191,-623.397C-175.684,-616.987 -172.297,-611.132 -167.836,-606.339C-164.906,-603.194 -161.281,-600.444 -157.352,-598.671C-154.047,-597.183 -151.094,-595.792 -147.703,-594.89C-145.17,-594.214 -142.528,-593.867 -139.893,-593.608C-137.28,-592.914 -134.588,-592.564 -131.914,-592.604C-130.723,-592.624 -129.543,-592.577 -128.359,-592.444C-125.82,-592.159 -123.281,-591.819 -120.742,-591.491C-118.082,-591.851 -115.426,-592.206 -112.766,-592.565C-108.133,-593.861 -104.056,-596.115 -100.536,-599.321C-98.573,-599.977 -96.625,-600.674 -94.691,-601.393C-91.309,-602.65 -87.951,-603.995 -84.619,-605.402C-83.223,-602.725 -81.428,-600.282 -79.234,-598.073C-73.938,-592.776 -65.68,-588.776 -58.02,-589.284C-53.172,-589.608 -48.574,-589.874 -43.715,-590.78C-40.957,-591.292 -38.332,-592.167 -35.711,-593.151C-34.352,-593.661 -32.998,-594.19 -31.646,-594.735C-30.982,-592.644 -30.09,-590.623 -28.977,-588.722C-26.309,-584.214 -22.723,-580.628 -18.215,-577.96C-13.535,-575.245 -8.488,-573.882 -3.07,-573.862C-2.88,-573.853 -2.689,-573.847 -2.499,-573.84C-3.156,-569.633 -2.922,-565.426 -1.793,-561.218C-1.125,-558.132 0.465,-555.339 1.766,-552.472C2.902,-550.551 4.206,-548.799 5.677,-547.213C3.665,-544.464 1.756,-541.636 0.031,-538.702C-1.234,-536.554 -2.508,-534.409 -3.754,-532.245C-6.117,-528.136 -7.957,-523.714 -9.504,-519.237C-9.578,-518.831 -9.652,-518.421 -9.727,-518.015C-10.461,-515.061 -10.82,-512.081 -10.805,-509.073C-10.852,-503.534 -9.035,-496.882 -6.234,-492.101C-5.375,-490.628 -2.445,-486.46 -0.176,-484.694C3.789,-481.62 8.602,-477.378 13.906,-476.616C16.298,-476.272 18.682,-475.772 21.087,-475.542C19.882,-473.485 18.723,-471.427 17.672,-469.276C17.559,-469.018 17.449,-468.765 17.336,-468.507C14.625,-463.831 13.258,-458.78 13.242,-453.366C12.57,-447.167 14.961,-442.929 17.258,-437.503C18.477,-434.628 20.828,-432.433 22.812,-430.046C25.883,-426.343 33.105,-422.569 37.66,-421.733C38.783,-421.526 39.8,-421.35 40.743,-421.203C37.16,-419.813 33.585,-418.404 30.02,-416.964C29.877,-416.906 29.732,-416.848 29.59,-416.79C28.619,-416.541 27.649,-416.286 26.68,-416.026C8.961,-411.28 -8.164,-404.847 -25.305,-398.366C-28.59,-397.124 -31.809,-395.718 -35.059,-394.386C-40.379,-392.202 -45.754,-390.104 -50.973,-387.69C-54.652,-385.987 -58.426,-384.417 -62.023,-382.546L-68.914,-378.96C-70.211,-378.284 -71.504,-377.601 -72.789,-376.909C-76.938,-374.671 -80.527,-371.413 -84.086,-368.354C-87.801,-364.608 -90.375,-360.198 -91.801,-355.116C-93.227,-349.796 -93.227,-344.479 -91.801,-339.163C-90.375,-334.081 -87.801,-329.671 -84.086,-325.925C-80.34,-322.21 -75.93,-319.636 -70.848,-318.21C-70.203,-318.077 -69.563,-317.944 -68.918,-317.808C-61.262,-316.214 -59.676,-316.573 -52.023,-317.772C-47.668,-318.452 -43.754,-320.483 -39.723,-322.214C-37.02,-323.37 -34.387,-324.683 -31.695,-325.866C-30.36,-326.451 -29.024,-327.038 -27.688,-327.624C-28.814,-326.164 -29.83,-324.607 -30.82,-323.104C-33.535,-318.991 -35.117,-312.081 -35.117,-307.249C-35.117,-300.858 -33.434,-297.163 -30.742,-291.522C-28.793,-287.444 -23.266,-282.542 -19.465,-280.319C-15.371,-277.925 -8.188,-275.683 -3.379,-276.022C1.254,-276.351 6.027,-276.874 10.461,-278.366C15.352,-280.018 20.09,-282.186 24.793,-284.284C33.488,-288.171 41.832,-292.878 50.207,-297.409C64.172,-304.964 77.715,-313.393 91.078,-321.96C94.768,-324.326 98.452,-326.698 102.136,-329.075C103.009,-326.981 103.979,-324.922 104.875,-322.843C106.172,-319.831 108.738,-316.886 110.703,-314.636C114.34,-310.476 121.484,-305.944 127.023,-305.026C128.445,-304.79 129.814,-304.562 131.155,-304.381C132.932,-296.158 138.217,-288.639 145.48,-284.39C156.793,-277.768 172.715,-279.253 181.836,-289.081C182.533,-289.832 183.218,-290.597 183.893,-291.37C181.295,-283.815 178.793,-276.226 176.473,-268.577C175.809,-266.39 175.187,-264.19 174.555,-261.991C172.422,-254.542 170.363,-246.276 173.418,-238.788C173.99,-236.745 174.748,-234.811 175.69,-232.986C175.359,-232.211 175.028,-231.435 174.699,-230.659C173.559,-227.987 172.422,-225.315 171.285,-222.64C170.941,-221.831 170.594,-221.015 170.246,-220.206C169.648,-218.813 169.031,-217.428 168.421,-216.039C166.03,-216.561 163.537,-216.783 160.465,-217.081C155.051,-217.065 150,-215.698 145.324,-212.987C138.531,-209.011 133.727,-202.573 131.535,-195.058C130.054,-189.97 129.519,-184.554 129.187,-179.146C123.802,-175.29 118.406,-171.446 113.012,-167.593C99.168,-157.706 85.422,-147.667 71.578,-137.768C64.484,-132.702 57.285,-127.726 50.359,-122.425C46.137,-119.198 41.938,-115.979 37.719,-112.753C26.389,-104.083 14.262,-95.324 6.51,-83.124C5.864,-83.351 5.207,-83.559 4.539,-83.745C0.395,-84.393 -3.762,-85.136 -7.961,-85.202C-9.031,-85.222 -10.098,-85.202 -11.164,-85.202L-17.352,-85.202C-20.594,-85.202 -23.879,-85.159 -27.113,-85.351C-30.715,-85.561 -34.367,-85.604 -37.953,-85.999C-40.57,-86.286 -43.187,-86.574 -45.803,-86.861C-57.514,-88.766 -69.22,-90.891 -80.617,-94.229C-87.563,-96.261 -94.426,-98.386 -101.285,-100.671C-106.465,-102.394 -111.548,-104.425 -116.613,-106.457C-123.04,-109.289 -129.403,-112.226 -135.715,-115.323C-141.689,-118.25 -147.712,-121.272 -153.258,-124.976C-156.006,-127.484 -158.791,-129.775 -161.875,-131.972C-166.555,-134.686 -171.602,-136.05 -177.016,-136.065C-182.43,-136.05 -187.477,-134.686 -192.156,-131.972C-196.664,-129.304 -200.254,-125.718 -202.918,-121.21C-203.06,-120.966 -203.197,-120.721 -203.332,-120.475C-208.394,-121.527 -213.434,-121.478 -218.461,-119.921C-225.996,-117.581 -232.359,-113.018 -236.391,-106.132C-237.398,-103.745 -238.406,-101.354 -239.414,-98.968C-240.844,-93.651 -240.844,-88.331 -239.414,-83.015C-238.855,-79.893 -237.359,-77.007 -235.762,-74.288C-232.57,-68.843 -228.512,-65.374 -223.43,-61.808C-219.52,-59.061 -214.789,-57.159 -210.043,-56.515C-207.234,-56.13 -204.497,-55.767 -201.751,-55.475C-197.97,-54.07 -194.13,-52.922 -190.262,-51.733C-186.187,-50.479 -181.93,-49.71 -177.777,-48.741C-173.77,-47.804 -169.68,-47.159 -165.633,-46.397C-153.869,-44.179 -142.055,-42.187 -130.258,-40.131C-130.083,-40.081 -129.906,-40.031 -129.731,-39.98C-117.497,-35.959 -105.361,-31.642 -93.025,-27.947C-92.207,-21.382 -89.205,-15.172 -84.477,-10.229C-78.09,-3.558 -69.23,-0.55 -60.621,2.087C-58.027,2.88 -55.359,3.466 -52.727,4.126C-48.449,5.2 -44.098,5.864 -39.75,6.634C-28.98,8.536 -18.02,9.271 -7.105,9.825C0.785,10.228 8.703,10.353 16.602,10.251C20.192,10.205 23.789,10.154 27.384,10.043C29.032,11.608 30.87,12.975 32.875,14.087C35.859,15.743 38.973,17.239 42.32,17.954C45.734,18.685 49.348,18.997 52.863,19.208C53.887,19.271 54.91,19.31 55.934,19.36C58.039,19.462 60.141,19.54 62.242,19.607C66.668,19.739 71.102,19.864 75.527,19.993C79.145,20.095 82.754,20.216 86.371,20.255C88.613,20.278 90.852,20.306 93.094,20.329C101.48,20.423 109.965,19.267 118.188,17.806C125.84,16.446 132.867,13.372 139.949,10.263C147.289,7.036 153.746,1.798 159.844,-3.28C168.18,-10.226 174.672,-19.28 181.242,-27.8C186.477,-34.593 191.676,-41.386 196.844,-48.218C199.004,-51.072 201.146,-53.935 203.268,-56.812C214.163,-65.381 224.377,-74.791 233.098,-85.604C237.703,-91.315 242.262,-97.116 245.918,-103.487C248.273,-107.593 249.922,-112.104 251.613,-116.507C252.098,-117.761 252.363,-119.042 252.578,-120.358C252.763,-121.492 252.982,-122.69 253.181,-123.919C253.282,-124.088 253.384,-124.256 253.484,-124.425C257.73,-131.561 261.953,-138.753 265.469,-146.284C269.379,-154.647 273.203,-163.038 276.289,-171.753C277.277,-174.546 278.148,-177.386 278.941,-180.241C280.316,-185.214 280.969,-190.3 281.582,-195.413C282.137,-200.05 281.383,-204.311 280.57,-208.995C279.801,-213.421 275.602,-219.839 272.508,-222.933C271.807,-223.634 270.991,-224.359 270.097,-225.076C270.847,-227.717 271.544,-230.371 272.164,-233.046C273.234,-237.675 273.711,-242.444 274.07,-247.183C273.711,-249.839 273.355,-252.499 272.996,-255.155C272.731,-256.1 272.427,-257.02 272.083,-257.918C272.343,-258.613 272.603,-259.308 272.863,-260.003C275.852,-267.983 278.496,-276.089 281.234,-284.151C284.008,-292.323 286.156,-300.722 287.777,-309.19C289.234,-316.796 290.312,-324.581 290.457,-332.335C290.484,-333.671 290.363,-334.987 290.207,-336.315C289.812,-339.698 289.477,-343.104 288.691,-346.425C287.447,-351.71 284.72,-356.629 281.008,-360.626C280.292,-364.508 279.074,-368.24 277.184,-371.681C278.51,-375.311 279.798,-378.954 280.992,-382.62C283.719,-390.983 286.375,-399.323 288.797,-407.772C291.113,-415.854 292.781,-424.155 294.301,-432.436C294.793,-435.124 295.172,-437.823 295.57,-440.526C296.133,-444.378 296.684,-448.222 297.164,-452.093C297.656,-456.018 298.059,-459.8 297.777,-463.757C297.758,-469.175 296.395,-474.222 293.68,-478.901C291.227,-483.046 287.997,-486.412 283.988,-489.001C284.908,-491.049 285.792,-493.125 286.656,-495.237C287.707,-497.811 288.625,-500.433 289.371,-503.112C290.328,-506.558 290.457,-510.19 290.879,-513.729C290.848,-514.143 290.82,-514.554 290.789,-514.964C290.666,-516.081 290.531,-517.196 290.386,-518.309C291.329,-519.159 292.268,-520.014 293.199,-520.878C303.035,-529.987 304.508,-545.929 297.891,-557.229C293.965,-563.94 287.457,-568.956 279.965,-571.018C278.107,-571.267 276.249,-571.517 274.393,-571.766C276.853,-573.543 279.273,-575.369 281.633,-577.268C284.793,-579.815 286.988,-583.163 289.379,-586.46C292.094,-591.14 293.457,-596.186 293.477,-601.604C293.457,-607.018 292.094,-612.065 289.379,-616.745C286.711,-621.253 283.125,-624.839 278.617,-627.507C276.227,-628.515 273.84,-629.522 271.449,-630.53C266.133,-631.96 260.816,-631.96 255.5,-630.53C255.135,-630.38 254.769,-630.23 254.403,-630.081C254.226,-631.383 253.962,-632.685 253.613,-633.987C251.914,-639.749 249.719,-643.718 245.637,-648.108C244.268,-649.629 242.737,-650.975 241.046,-652.142C243.212,-655.075 244.801,-658.345 245.812,-661.952C247.242,-667.268 247.242,-672.585 245.812,-677.901C244.666,-681.986 242.78,-685.638 240.152,-688.859C241.209,-690.244 242.176,-691.693 243,-693.225C247.273,-701.183 248.586,-710.093 246.086,-718.858C243.102,-729.323 234.715,-737.78 224.117,-740.526C217.332,-742.284 214.439,-741.522 207.828,-740.516C205.214,-746.165 200.98,-751.065 195.492,-754.276C190.875,-756.979 185.059,-758.464 179.711,-758.464C179.376,-758.464 179.035,-758.455 178.69,-758.44C178.157,-759.069 177.595,-759.681 177.004,-760.276C174.98,-761.839 172.957,-763.405 170.934,-764.968C170.028,-765.493 169.109,-765.967 168.177,-766.391C167.993,-767.465 167.796,-768.538 167.621,-769.612C166.992,-773.456 162.527,-781.093 159.574,-783.604C159.332,-783.808 159.09,-784.015 158.848,-784.222C155.102,-787.936 150.691,-790.511 145.609,-791.936C141.434,-793.694 136.703,-793.89 132.211,-794.061C130.23,-794.14 128.273,-794.128 126.293,-794.065C118.336,-793.815 110.375,-793.261 102.453,-792.46C97.445,-791.953 92.446,-791.455 87.451,-790.846C80.746,-790.788 74.045,-790.679 67.32,-790.53C62.477,-790.424 57.622,-790.229 52.769,-790.019C52.398,-790.825 52.016,-791.625 51.617,-792.417C49.742,-796.206 43.891,-802.007 40.145,-803.929C37.207,-805.436 34.191,-806.843 31.004,-807.718C30.562,-807.78 30.121,-807.847 29.68,-807.909C26.598,-808.542 23.488,-808.925 20.359,-809.054C19.91,-809.077 19.459,-809.086 19.007,-809.086C18.266,-809.086 17.523,-809.062 16.785,-809.046" style="fill:rgb(244,244,242);fill-rule:nonzero;"/>
        </g>
    </g>
    <g id="Draw-Layer1" serif:id="Draw Layer">
        <g transform="matrix(1,0,0,1,690.865,372.367)">
            <path d="M0,-113.75C-6.379,-113.102 -12.762,-112.207 -19.066,-111.02C-26.293,-109.66 -33.309,-107.555 -40.383,-105.582C-43.293,-104.773 -46.148,-103.555 -48.996,-102.555C-53.418,-100.996 -57.695,-99.086 -62.008,-97.25C-67.867,-94.762 -73.621,-92.145 -79.117,-88.906C-84.164,-85.934 -88.773,-82.301 -93.324,-78.621C-94.711,-77.504 -95.926,-76.266 -97.059,-74.891C-98.801,-72.785 -101.059,-70.02 -102.691,-67.457C-104.52,-64.59 -105.641,-61.191 -106.656,-57.93C-108.844,-50.895 -107.816,-45.746 -106.832,-38.699C-106.723,-37.937 -106.41,-37.207 -106.125,-36.5C-104.992,-33.703 -103.914,-30.652 -102.379,-27.965C-98.32,-20.867 -91.621,-15.348 -84.703,-11.234C-81.281,-9.203 -77.355,-7.91 -73.734,-6.383C-72.176,-5.727 -70.559,-5.195 -68.949,-4.672C-65.113,-3.418 -61.137,-2.66 -57.164,-2C-47.008,-0.32 -36.813,0.727 -26.52,0.5C-14.047,0.223 -1.738,-1.949 10.492,-4.234C12.633,-4.637 14.719,-5.176 16.836,-5.715C19.328,-6.352 21.895,-6.867 24.344,-7.664C27.508,-8.687 30.672,-9.715 33.836,-10.742C36.277,-11.535 38.648,-12.598 41.035,-13.539C47.953,-16.266 54.977,-19.117 61.516,-22.699C65.449,-24.855 69.309,-27.004 73.004,-29.57C77.578,-32.742 82.063,-36.164 86.16,-39.941C87.336,-41.023 88.422,-42.203 89.438,-43.434C91.34,-45.73 93.34,-48.348 95.129,-50.871C96.98,-53.48 98.684,-58.129 99.453,-60.383C102.82,-70.223 101.18,-82.023 95.656,-90.813C91.938,-96.723 88.254,-99.805 82.625,-103.805C79.199,-106.242 74.949,-107.793 71.121,-109.262C67.758,-110.551 64.258,-111.359 60.707,-111.91C54.383,-112.891 47.977,-113.73 41.578,-114.082C34.382,-114.477 27.156,-114.211 19.984,-113.551C19.223,-113.638 18.477,-113.724 17.754,-113.812C15.547,-114.082 13.344,-114.227 11.125,-114.281C10.589,-114.295 10.053,-114.301 9.517,-114.301C6.337,-114.301 3.159,-114.075 0,-113.75" style="fill:rgb(29,255,157);fill-rule:nonzero;"/>
        </g>
        <g transform="matrix(1,0,0,1,751.431,474.548)">
            <path d="M0,-120.421C-3.688,-120.292 -7.359,-119.909 -11.012,-119.429C-15.352,-118.855 -19.754,-118.39 -24.062,-117.542C-27.496,-116.866 -30.934,-116.191 -34.367,-115.515C-36.727,-115.05 -39.047,-114.296 -41.371,-113.671C-54.105,-110.245 -66.641,-105.737 -78.637,-100.241C-84.105,-97.737 -89.453,-95.163 -94.773,-92.362C-96.934,-91.222 -98.977,-89.827 -101.055,-88.554C-104.441,-86.476 -107.793,-83.616 -110.805,-81.253C-112.191,-80.167 -113.504,-79.026 -114.777,-77.812C-115.953,-76.683 -117.012,-75.437 -118.082,-74.206C-122.652,-68.964 -125.383,-64.554 -127.406,-57.823C-130.316,-48.128 -128.094,-36.378 -122.664,-27.964C-118.055,-20.823 -111.992,-15.304 -104.699,-10.964C-101.344,-8.968 -97.086,-7.429 -93.664,-6.05C-92.051,-5.401 -90.418,-4.831 -88.758,-4.316C-85.066,-3.171 -81.211,-2.538 -77.395,-2.003C-71.324,-1.151 -65.32,-0.312 -59.199,-0.097C-55.188,0.044 -51.168,-0.124 -47.168,-0.409C-41.008,-0.843 -34.867,-1.776 -28.766,-2.679C-26.918,-2.952 -25.086,-3.261 -23.262,-3.636C-17.344,-4.843 -11.508,-6.077 -5.668,-7.608C-0.051,-9.081 5.457,-10.8 11.004,-12.53C23.652,-16.48 35.949,-21.948 47.969,-27.448C52.832,-29.675 57.523,-32.245 62.184,-34.866C64.238,-36.019 66.285,-37.253 68.227,-38.589C69.719,-39.616 71.215,-40.624 72.648,-41.733C75.605,-44.019 78.953,-46.249 81.563,-49.034C85.781,-53.534 89.934,-59.769 91.098,-65.941C92.32,-72.425 92.84,-78.331 90.777,-84.78C88.527,-91.831 86.148,-94.8 81.516,-100.523C81.051,-101.101 80.441,-101.566 79.863,-102.026C77.488,-103.909 75.105,-105.909 72.531,-107.569C68.938,-109.89 64.742,-111.296 60.762,-112.784C57.348,-114.058 53.723,-114.737 50.125,-115.241C43.746,-116.136 37.477,-117.003 31.039,-117.12C30.521,-117.129 30.002,-117.134 29.483,-117.135C29.348,-117.175 29.212,-117.214 29.074,-117.253C20.348,-118.943 11.509,-120.465 2.606,-120.465C1.738,-120.465 0.87,-120.451 0,-120.421" style="fill:rgb(29,255,157);fill-rule:nonzero;"/>
        </g>
        <g transform="matrix(1,0,0,1,765.179,565.098)">
            <path d="M0,-110.534C-5.777,-109.585 -11.496,-108.62 -17.215,-107.378C-22.891,-106.143 -28.437,-104.597 -34.035,-103.038C-42.586,-100.655 -50.945,-96.909 -59,-93.296C-65.98,-90.163 -72.707,-86.413 -79.008,-82.073C-83.848,-78.737 -88.582,-75.143 -92.914,-71.163C-94.125,-70.046 -95.258,-68.854 -96.316,-67.593C-98.934,-64.475 -101.801,-61.327 -103.621,-57.651C-106.656,-51.522 -108.516,-46.194 -108.691,-39.272C-108.77,-36.315 -107.949,-31.511 -107.559,-29.764C-106.879,-26.737 -105.34,-23.964 -104.129,-21.132C-102.648,-17.663 -100.059,-14.643 -97.383,-12.022C-94.613,-9.304 -91.086,-6.698 -87.516,-4.917C-82.074,-2.202 -76.969,-0.417 -71.094,0.571C-64.727,1.646 -58.379,2.325 -51.938,2.446C-46.969,2.544 -42,2.193 -37.066,1.65C-28.586,0.716 -20.148,-0.362 -11.727,-1.737C9.883,-5.261 31.402,-10.663 51.82,-18.62C59.145,-21.471 66.277,-24.624 73.242,-28.241C78.039,-30.733 82.395,-34.417 86.559,-37.733C87.809,-38.725 88.957,-39.846 90.066,-40.995C90.879,-41.839 94.289,-45.882 95.535,-48.315C98.836,-54.772 99.414,-57.503 100.047,-64.733C100.605,-71.116 98.168,-77.081 95.508,-82.663C93.871,-86.089 91.297,-89.159 88.57,-91.784C82.771,-97.367 76.237,-100.597 68.841,-103.305C65.753,-105.672 62.204,-107.442 58.328,-108.686C48.487,-111.85 38.277,-113.078 28.022,-113.078C18.638,-113.078 9.216,-112.05 0,-110.534" style="fill:rgb(29,255,157);fill-rule:nonzero;"/>
        </g>
        <g transform="matrix(1,0,0,1,1060.45,333.361)">
            <path d="M0,366.286C0.607,366.542 1.215,366.799 1.822,367.055L0,366.286ZM-101.732,240.219C-101.783,240.18 -101.833,240.141 -101.883,240.101C-101.813,240.156 -101.744,240.209 -101.674,240.264C-101.676,240.263 -101.677,240.262 -101.679,240.261C-101.696,240.247 -101.715,240.233 -101.732,240.219M-244.498,-97.519C-249.736,-97.472 -254.959,-97.293 -260.193,-97.101C-270.111,-96.734 -280.061,-96.73 -289.963,-95.961C-302.74,-94.968 -315.533,-93.566 -328.174,-91.449C-332.943,-90.652 -337.689,-89.714 -342.439,-88.789C-347.4,-87.82 -352.369,-86.816 -357.221,-85.371C-367.123,-82.414 -376.838,-78.66 -386.537,-75.105C-404.283,-68.597 -421.924,-61.828 -438.357,-52.39C-452.521,-44.257 -457.33,-25.371 -449.119,-11.343C-445.193,-4.636 -438.689,0.379 -431.189,2.442C-423.393,4.59 -415.064,3.43 -408.072,-0.582C-402,-4.071 -395.807,-7.276 -389.433,-10.162C-381.268,-13.438 -372.966,-16.404 -364.697,-19.394C-355.127,-22.855 -345.545,-26.605 -335.639,-29.004C-330.635,-30.214 -325.553,-31.14 -320.494,-32.089C-316.42,-32.851 -312.349,-33.588 -308.256,-34.222C-299.802,-35.23 -291.289,-35.966 -282.799,-36.379C-272.846,-36.867 -262.861,-37.066 -252.9,-37.363C-248.414,-37.498 -243.941,-37.612 -239.474,-37.337C-238.488,-37.121 -237.512,-36.874 -236.543,-36.591C-235.146,-35.825 -233.779,-34.991 -232.459,-34.11C-232.384,-34.056 -232.308,-34.001 -232.232,-33.948C-230.247,-32.333 -228.25,-30.736 -226.127,-29.218C-225.511,-28.78 -224.861,-28.393 -224.209,-28.009C-223.223,-27.083 -222.273,-26.119 -221.362,-25.116C-219.076,-21.72 -217.103,-18.179 -215.33,-14.479C-214.355,-11.856 -213.468,-9.196 -212.643,-6.531C-211.373,-2.425 -210.58,1.844 -209.611,6.028C-208.658,10.141 -207.912,14.297 -207.033,18.426C-206.273,21.984 -205.445,25.514 -204.835,29.094C-204.488,32.107 -204.208,35.127 -204.072,38.164C-203.854,43.016 -203.705,47.871 -203.619,52.727C-203.533,57.758 -202.955,62.731 -202.471,67.731C-201.975,72.825 -201.518,77.922 -201.182,83.024C-200.834,88.282 -200.381,93.528 -200.029,98.786C-199.682,103.922 -199.525,109.075 -199.154,114.211C-198.447,124.024 -197.576,133.828 -196.982,143.649C-196.221,156.235 -195.369,168.828 -192.963,181.231C-191.014,191.289 -189.072,201.293 -186.053,211.094C-182.369,223.043 -177.568,234.653 -171.748,245.723C-169.412,250.161 -166.705,254.395 -163.889,258.539C-159.58,264.887 -154.963,271.098 -149.674,276.664C-147.959,278.469 -146.182,280.227 -144.369,281.934C-142.373,283.814 -140.306,285.544 -138.189,287.229C-138.154,287.265 -138.119,287.301 -138.084,287.336L-137.721,287.618C-135.967,289.345 -134.01,290.849 -131.902,292.099C-131.627,292.302 -131.366,292.485 -131.109,292.653C-129.435,293.894 -127.741,295.112 -126.006,296.297C-122.096,298.965 -118.248,301.696 -114.021,303.844C-107.385,307.219 -100.24,309.68 -93.15,311.93C-81.068,315.762 -68.467,317.328 -55.846,317.926C-46.014,318.393 -36.179,319.037 -26.386,319.992C-27.523,322.015 -28.43,324.185 -29.061,326.477C-31.193,334.223 -30.092,342.664 -26.033,349.594C-23.144,354.537 -18.965,358.401 -14.014,360.996C-11.482,364.792 -8.109,368.061 -4.064,370.469C-3.137,371.021 -2.094,371.583 -0.986,372.104C-1.289,372.37 -1.592,372.636 -1.896,372.901C-7.119,376.695 -12.506,380.194 -18.252,383.239C-25.109,386.874 -32.084,390.244 -39.171,393.397C-42.752,394.854 -46.337,396.297 -49.904,397.786C-52.92,399.043 -55.939,400.274 -58.92,401.602C-66.186,404.84 -71.943,412.957 -73.979,420.34C-75.408,425.532 -75.416,431.364 -73.986,436.555C-71.838,444.36 -66.857,450.129 -60.201,454.485C-57.65,456.149 -54.568,457.27 -51.572,458.047C-49.486,458.59 -47.428,459.18 -45.369,459.809C-38.572,461.883 -30.924,461.746 -23.834,461.961C-18.904,462.11 -14.021,462.606 -9.119,463.086C-1.803,463.809 5.127,462.828 12.412,461.793C17.201,461.114 21.67,459.137 26.4,458.196C31.166,457.25 35.998,456.668 40.775,455.778C43.123,455.34 45.439,454.723 47.658,453.84C50.592,452.676 54.389,451.325 57.365,449.578C60.412,447.793 63.264,445.305 65.943,443.196C66.913,442.432 67.85,441.626 68.782,440.818C69.55,440.295 70.313,439.766 71.049,439.2C73.955,436.953 76.959,434.852 79.623,432.332C82.314,429.789 84.49,426.407 86.658,423.578C88.104,421.692 89.068,419.469 90.189,417.391C91.283,415.364 92.209,413.262 93.143,411.161C96.135,404.418 99.389,397.653 100.787,390.364C102.174,383.125 102.854,375.336 102.979,367.918C103.068,362.762 102.838,357.524 102.252,352.399C101.689,347.446 100.975,342.508 100.248,337.575C99.877,335.071 99.615,332.516 98.916,330.075C98.279,327.84 97.346,325.711 96.584,323.52C95.064,319.153 93.338,314.903 91.404,310.688C88.529,304.426 84.42,298.977 80.088,293.649C75.893,288.489 70.342,284.528 64.689,281.106C58.865,277.582 52.756,274.821 46.291,272.602C41.533,270.969 36.654,269.438 31.764,268.258C24.611,266.536 17.291,265.789 9.998,264.895C7.936,264.64 5.87,264.413 3.805,264.179C0.12,263.55 -3.54,262.781 -7.244,262.27C-14.779,261.235 -22.287,260.348 -29.861,259.668C-39.908,258.774 -49.971,258.317 -60.041,257.719C-61.336,257.641 -62.628,257.546 -63.918,257.431C-70.731,256.157 -77.447,254.214 -83.965,251.842C-87.684,249.925 -91.114,247.617 -94.619,245.239C-95.472,244.661 -96.328,244.085 -97.181,243.502C-98.029,242.764 -98.919,242.073 -99.845,241.433C-103.633,238.082 -107.178,234.457 -110.47,230.619C-116.032,222.771 -120.711,214.4 -124.7,205.649C-127.334,198.717 -129.459,191.531 -131.217,184.344C-132.271,180.032 -133.057,175.649 -133.916,171.293C-134.521,168.233 -135.131,165.178 -135.662,162.105C-136.519,153.678 -136.823,145.188 -137.436,136.746C-138.154,126.793 -139.072,116.856 -139.576,106.887C-140.096,96.594 -140.787,86.282 -141.713,76.016C-142.17,70.969 -142.662,65.926 -143.174,60.887C-143.674,55.938 -143.607,50.965 -143.768,46.004C-143.924,41.032 -144.096,36.055 -144.592,31.098C-145.342,23.543 -146.244,15.926 -147.85,8.504C-148.932,3.496 -149.959,-1.519 -151.002,-6.531C-152.002,-11.316 -152.994,-16.195 -154.322,-20.898C-155.545,-25.226 -157.033,-29.574 -158.752,-33.73C-161.346,-39.988 -163.904,-46.55 -167.502,-52.355C-168.658,-54.218 -169.9,-56.015 -171.209,-57.777C-174.01,-61.543 -176.834,-65.496 -180.139,-68.886C-181.686,-70.472 -183.373,-71.964 -185.119,-73.328C-187.838,-75.449 -190.463,-77.781 -193.428,-79.578C-193.861,-79.839 -194.299,-80.093 -194.732,-80.352C-195.497,-80.949 -196.271,-81.541 -197.035,-82.122C-198.191,-83.023 -199.348,-83.913 -200.533,-84.785C-201.033,-85.152 -201.561,-85.488 -202.08,-85.824C-207.971,-89.625 -214.396,-92.632 -221.123,-94.621C-226.127,-96.097 -231.619,-96.507 -236.705,-97.125C-239.057,-97.412 -241.424,-97.523 -243.789,-97.523C-244.025,-97.523 -244.262,-97.522 -244.498,-97.519" style="fill:rgb(29,255,157);fill-rule:nonzero;"/>
        </g>
        <g transform="matrix(1,0,0,1,892.714,495.586)">
            <path d="M0,-33.851C0.272,-33.64 0.546,-33.429 0.819,-33.218C0.817,-33.219 0.816,-33.22 0.815,-33.22C0.544,-33.431 0.271,-33.641 0,-33.851M-120.672,-210.679C-124.516,-210.05 -128.293,-209.007 -131.945,-207.66C-137.379,-205.66 -142.898,-203.335 -147.898,-200.339C-149.402,-199.437 -150.824,-198.41 -152.215,-197.347C-155.645,-194.726 -159.105,-192.206 -162.223,-189.226C-166.367,-185.265 -169.863,-180.488 -173.02,-175.734C-173.984,-174.281 -174.801,-172.738 -175.559,-171.167C-177.437,-167.277 -179.156,-163.249 -180.453,-159.121C-180.98,-157.453 -181.312,-155.73 -181.57,-154.003C-182.164,-150.031 -182.953,-145.82 -182.863,-141.73C-182.668,-132.996 -180.469,-125.671 -176.539,-117.96C-172.992,-111.007 -166.703,-105.441 -160.289,-101.261C-156.934,-99.074 -152.922,-97.609 -149.043,-96.578C-146.328,-95.855 -140.215,-95.292 -139.395,-95.226C-138.262,-95.132 -137.18,-95.128 -136.051,-95.234C-132.254,-95.585 -127.867,-96.058 -124.055,-97.171C-122.969,-97.487 -121.899,-97.881 -120.839,-98.289C-120.813,-97.927 -120.775,-97.567 -120.734,-97.206C-120.395,-94.269 -120.07,-90.839 -119.375,-87.773C-119.187,-86.941 -118.965,-86.14 -118.712,-85.364C-119.919,-84.47 -121.047,-83.499 -122.074,-82.472C-127.883,-76.664 -130.492,-69.343 -130.859,-61.261C-131.23,-53.171 -127.191,-46.109 -123.547,-39.23C-122.324,-36.921 -121.051,-34.644 -119.773,-32.367C-118.387,-29.894 -116.859,-27.515 -115.32,-25.136C-114.695,-24.163 -114,-23.246 -113.316,-22.312C-110.578,-18.581 -107.848,-14.812 -104.711,-11.406C-102.313,-8.8 -98.797,-6.148 -96.117,-4.382C-95.944,-4.268 -95.77,-4.157 -95.593,-4.047C-94.529,-0.158 -93.51,3.745 -92.414,7.618C-89.449,18.083 -86.27,28.485 -83.395,38.981C-81.992,44.094 -80.691,49.231 -79.262,54.34C-77.879,59.286 -76.105,64.129 -74.266,68.919C-72.246,74.176 -70.258,79.426 -68.48,84.774C-66.809,89.821 -65.578,95.02 -64.242,100.165C-62.926,105.235 -61.453,110.266 -60.254,115.364C-59.027,120.602 -58.047,125.887 -56.832,131.126C-55.672,136.137 -54.188,141.063 -52.781,146.008C-52.043,148.598 -51.332,151.192 -50.527,153.758C-49.492,157.063 -48.086,160.313 -46.547,163.383C-45.266,165.93 -43.422,168.321 -41.234,170.169L-35.164,174.856C-30.484,177.571 -25.437,178.938 -20.023,178.954C-12.93,178.965 -10.723,177.54 -4.453,174.86C-1.77,173.711 0.562,171.743 2.43,169.512C7.195,163.84 7.918,162.661 10.434,155.645C10.801,154.629 11.074,153.629 11.281,152.571C13.156,143.086 13.699,133.278 13.98,123.618C14.156,117.524 14.188,111.446 14.191,105.352C14.195,103.122 14.008,100.891 13.883,98.665C13.728,95.949 13.601,93.239 13.374,90.533C16.129,88.285 18.437,85.589 20.297,82.446C21.969,80.032 22.996,77.192 23.723,74.352C25.937,65.696 24.512,57.325 23.129,48.68C22.527,44.93 21.609,41.239 20.777,37.536C19.68,32.661 18.305,27.833 16.918,23.028C16.554,21.765 16.187,20.503 15.819,19.242C20.831,13.743 23.66,6.487 23.66,-0.98C23.301,-3.636 22.945,-6.296 22.586,-8.953C21.164,-14.035 18.59,-18.449 14.871,-22.191C13.217,-23.586 11.526,-24.936 9.821,-26.268C8.749,-27.337 7.601,-28.318 6.389,-29.206C6.071,-29.464 5.749,-29.717 5.422,-29.961C5.106,-30.215 4.786,-30.462 4.46,-30.703C3.331,-31.614 2.134,-32.444 0.877,-33.184C-0.754,-34.435 -2.393,-35.677 -4.043,-36.903C-4.567,-37.305 -5.093,-37.707 -5.617,-38.109C-7.758,-39.746 -13.43,-41.683 -14.02,-41.878C-15.003,-42.206 -16.009,-42.473 -17.029,-42.682C-14.704,-48.411 -12.739,-54.305 -11.453,-60.32C-8.918,-72.191 -8.004,-84.706 -11.328,-96.546C-12.41,-100.402 -14.09,-104.179 -16.008,-107.679C-16.125,-107.893 -16.269,-108.131 -16.432,-108.385C-16.453,-108.483 -16.475,-108.581 -16.496,-108.679C-16.871,-110.355 -17.402,-111.988 -17.984,-113.597C-19.426,-117.581 -21.082,-121.542 -23.051,-125.304C-23.616,-126.391 -24.273,-127.427 -24.972,-128.432C-24.69,-129.255 -24.42,-130.08 -24.16,-130.91C-22.34,-136.738 -21.715,-142.843 -20.984,-148.882C-20.203,-155.351 -21.328,-161.753 -22.281,-168.156C-23.137,-173.921 -25.777,-179.527 -28.223,-184.699C-28.918,-186.167 -29.809,-187.538 -30.75,-188.855C-33.145,-192.203 -35.625,-195.706 -38.727,-198.488C-41.609,-201.07 -44.855,-203.593 -48.227,-205.601C-51.625,-207.628 -55.457,-208.996 -59.18,-210.3C-63.004,-211.636 -67.289,-211.742 -71.215,-212.261C-75.426,-212.816 -80.414,-211.683 -84.324,-211.136C-85.233,-211.007 -86.121,-210.833 -86.999,-210.618C-87.664,-210.751 -88.332,-210.87 -89,-210.98C-93.461,-211.714 -98,-212.374 -102.535,-212.527C-103.033,-212.543 -103.532,-212.552 -104.032,-212.552C-109.594,-212.552 -115.267,-211.564 -120.672,-210.679" style="fill:rgb(29,255,157);fill-rule:nonzero;"/>
        </g>
        <g transform="matrix(1,0,0,1,797.264,980.131)">
            <path d="M0,-494.383C-1.562,-492.36 -3.129,-490.336 -4.691,-488.313C-7.406,-483.633 -8.77,-478.586 -8.789,-473.172C-7.648,-462.434 -7.672,-451.664 -7.477,-440.879C-7.285,-430.528 -6.687,-420.195 -6.125,-409.86C-5.543,-399.125 -3.594,-388.535 -3,-377.797C-2.41,-367.149 -2.25,-356.418 -2.746,-345.762C-3.219,-335.571 -4.309,-325.418 -4.77,-315.223C-4.996,-310.211 -5.391,-305.168 -5.344,-300.149C-5.277,-292.77 -4.301,-285.461 -3.156,-278.176C-2.258,-272.434 -1.574,-266.637 -0.508,-260.926C0.251,-256.861 0.982,-252.8 1.635,-248.72C2.489,-240.045 2.494,-231.272 2.969,-222.574C3.531,-212.317 4.723,-202.098 5.375,-191.848C6.016,-181.727 6.195,-171.567 7.168,-161.469C7.918,-153.684 8.934,-145.906 10.25,-138.196C11.117,-133.117 11.93,-128 13.047,-122.969C16.125,-109.106 21.929,-96.021 27.572,-83.034C29.975,-77.189 32.331,-71.323 34.891,-65.543C37.012,-60.754 39.563,-56.192 42.254,-51.703C46.152,-45.196 50.754,-38.977 56.199,-33.688C58.113,-31.824 60.113,-30.043 62.125,-28.285C65.875,-25.012 69.828,-21.871 74.023,-19.199C78.32,-16.461 82.941,-14.238 87.594,-12.168C94.531,-9.082 101.316,-6.5 108.578,-4.403C113.352,-3.02 118.152,-1.762 122.996,-0.645C128.117,0.539 133.191,1.945 138.324,3.066C146,4.742 153.848,5.605 161.645,6.512C166.77,7.109 171.895,7.64 177.043,8.015C182.086,8.387 187.156,8.539 192.211,8.621C197.508,8.707 202.81,8.789 208.098,8.422C215.914,7.887 223.692,6.711 231.414,5.39C236.691,4.488 241.859,3.34 246.91,1.531C251.684,-0.18 256.355,-2.196 260.965,-4.309C263.242,-5.356 265.391,-6.61 267.434,-8.055C271.434,-10.883 275.305,-13.914 278.953,-17.184C282.609,-20.469 285.906,-24.91 288.66,-28.809C292.98,-34.918 296.016,-42.035 298.574,-49.016C300.336,-53.805 301.699,-58.742 303.164,-63.629C305.367,-70.965 306.645,-78.156 307.488,-85.817C308.336,-93.5 307.148,-101.231 305.793,-108.797C303.992,-118.863 301.988,-129.207 298.391,-138.813C295.668,-146.071 292.578,-153.086 288.68,-159.774C284.82,-166.391 280.258,-172.332 275.566,-178.391C272.523,-182.324 269.141,-186.043 265.586,-189.516C263.715,-191.344 261.742,-193.012 259.703,-194.653C256.023,-197.613 252.07,-200.781 247.957,-203.242C243.578,-205.867 239.082,-208.219 234.488,-210.438C232.105,-211.59 229.719,-212.735 227.336,-213.883C226.014,-214.521 224.652,-215.151 223.311,-215.822C222.532,-217.308 221.826,-218.83 221.185,-220.34C219.622,-222.363 218.055,-224.387 216.492,-226.41C212.751,-230.129 208.336,-232.699 203.255,-234.125C195.508,-236.258 187.066,-235.156 180.137,-231.102C173.43,-227.176 168.414,-220.668 166.352,-213.172C165.992,-210.512 165.637,-207.856 165.277,-205.196C165.297,-199.781 166.66,-194.735 169.375,-190.055C170.254,-187.996 171.285,-186.047 172.359,-184.086C174.621,-179.961 177.574,-176.192 180.707,-172.703C183.137,-169.996 186.434,-167.848 189.582,-165.949C190.473,-165.41 191.391,-164.91 192.32,-164.434C195.785,-162.664 199.297,-161 202.801,-159.309C208.898,-156.363 214.822,-153.288 220.432,-149.557C224.266,-146.152 227.785,-142.429 231.072,-138.493C234.647,-133.421 237.904,-128.106 240.634,-122.53C243.876,-113.568 246.002,-104.103 247.614,-94.7C247.744,-92.72 247.771,-90.759 247.688,-88.78C246.943,-85.262 245.987,-81.803 244.934,-78.34C243.731,-74.381 242.613,-70.396 241.247,-66.493C240.441,-64.883 239.576,-63.311 238.629,-61.779C237.761,-60.861 236.86,-59.978 235.93,-59.121C234.393,-58.14 232.817,-57.252 231.187,-56.431C228.236,-55.385 225.254,-54.483 222.188,-53.746C219.214,-53.031 216.176,-52.522 213.141,-52.052C204.097,-51.165 195.066,-51.267 185.965,-51.539C177.645,-51.786 169.359,-52.558 161.099,-53.548C152.814,-54.916 144.716,-57.142 136.543,-59.067C129.394,-60.745 122.163,-62.622 115.247,-65.179C111.238,-67.05 107.319,-69.076 103.613,-71.495C100.993,-73.732 98.474,-76.105 96.161,-78.647C92.351,-84.323 89.141,-90.411 86.359,-96.653C83.938,-102.463 81.474,-108.252 79.01,-114.044C76.051,-121.457 73.311,-129.019 71.383,-136.77C70.418,-140.653 69.793,-144.633 69.086,-148.574C68.578,-151.428 68.084,-154.281 67.635,-157.143C66.637,-166.325 66.215,-175.541 65.762,-184.77C65.262,-194.871 64.336,-204.93 63.539,-215.008C62.762,-224.781 62.453,-234.578 61.957,-244.367C61.57,-252.02 60.207,-259.574 59.109,-267.149C58.387,-272.117 57.246,-277.012 56.535,-281.985C56.104,-285.005 55.619,-288.02 55.153,-291.038C54.346,-300.193 54.948,-309.318 55.379,-318.492C55.863,-328.918 57.043,-339.285 57.414,-349.719C57.793,-360.371 57.469,-371.133 56.758,-381.766C56.402,-387.031 55.75,-392.274 55.051,-397.504C54.371,-402.61 53.965,-407.703 53.727,-412.848C53.266,-422.82 52.672,-432.754 52.492,-442.738C52.305,-452.906 52.285,-463.043 51.211,-473.172C50.855,-475.828 50.5,-478.488 50.141,-481.145C48.715,-486.227 46.145,-490.641 42.426,-494.383C36.824,-499.985 29.137,-503.172 21.211,-503.172C13.289,-503.172 5.602,-499.985 0,-494.383" style="fill:rgb(29,255,157);fill-rule:nonzero;"/>
        </g>
        <g transform="matrix(1,0,0,1,1059.53,661.109)">
            <path d="M0,-2.528C0.005,-2.521 0.009,-2.514 0.014,-2.506C0.01,-2.513 0.005,-2.52 0,-2.528M-191.205,-67.088C-194.924,-63.341 -197.494,-58.931 -198.92,-53.849C-200.35,-48.533 -200.35,-43.213 -198.92,-37.896C-196.925,-32.178 -194.726,-27.233 -190.273,-23.009C-190.164,-22.755 -190.052,-22.501 -189.937,-22.249C-191.757,-20.914 -193.405,-19.454 -194.732,-18.041C-200.232,-12.181 -203.518,-4.966 -203.518,3.17C-203.518,11.311 -200.232,18.522 -194.732,24.385C-189.326,30.147 -182.885,33.885 -175.221,35.897C-173.533,36.338 -171.787,36.592 -170.076,36.909C-165.596,37.737 -161.053,38.256 -156.521,38.713C-156.293,38.737 -156.065,38.759 -155.837,38.781C-154.202,43.994 -151.316,48.518 -147.482,52.448C-143.004,57.045 -138.591,58.779 -132.896,61.039C-130.517,64.192 -127.524,66.881 -124.088,68.893C-121.701,69.901 -119.311,70.909 -116.92,71.916C-111.604,73.346 -106.287,73.346 -100.971,71.916C-80.293,67.827 -59.617,63.731 -38.936,59.652C-24.957,57.639 -11.032,55.208 2.834,52.623C3.65,52.475 4.459,52.198 5.256,51.979C18.123,48.428 27.279,36.401 27.279,23.049C27.279,15.127 24.092,7.44 18.494,1.838C12.783,-3.873 5.291,-6.756 -2.721,-6.951C-2.873,-6.955 -3.024,-6.957 -3.177,-6.959C-5.019,-9.102 -7.176,-11.031 -9.502,-12.516C-11.005,-16.674 -13.339,-20.346 -16.506,-23.533C-21.35,-28.771 -27.701,-31.826 -34.537,-33.506C-35.857,-33.826 -37.17,-34.17 -38.498,-34.47C-41.029,-35.049 -43.557,-35.638 -46.096,-36.181C-48.64,-36.727 -51.186,-37.261 -53.733,-37.79C-55.346,-38.575 -57.035,-39.234 -58.787,-39.763C-60.686,-40.338 -62.586,-40.906 -64.486,-41.472C-67.512,-42.459 -70.518,-43.536 -73.514,-44.549C-78.943,-46.377 -84.369,-48.209 -89.803,-50.025C-97.816,-52.712 -105.867,-55.229 -113.964,-57.63C-116.271,-58.515 -118.569,-59.417 -120.857,-60.334C-127.256,-62.9 -133.658,-65.451 -140.068,-67.982C-142.627,-68.99 -145.201,-69.935 -147.783,-70.881C-149.393,-71.466 -151.002,-72.056 -152.611,-72.642C-158.221,-74.693 -163.955,-75.826 -169.99,-75.873C-170.064,-75.873 -170.138,-75.874 -170.212,-75.874C-178.029,-75.874 -185.69,-72.598 -191.205,-67.088" style="fill:rgb(29,255,157);fill-rule:nonzero;"/>
        </g>
        <g transform="matrix(1,0,0,1,948.462,764.341)">
            <path d="M0,-103.95C-11.617,-103.028 -22.914,-100.954 -33.121,-95.005C-40.043,-90.97 -45.137,-85.52 -49.469,-78.876C-51.566,-75.657 -53.121,-71.829 -53.832,-68.036C-55.281,-60.313 -55.25,-56.845 -53.746,-49.044C-53.086,-45.634 -51.281,-42.001 -49.289,-39.024C-47.18,-35.872 -44.832,-32.509 -41.816,-30.087C-38.947,-27.786 -36.334,-25.564 -33.22,-23.832C-31.606,-20.722 -29.638,-17.942 -26.762,-15.055C-24.012,-12.298 -20.531,-9.727 -16.879,-8.141C-11.387,-5.751 -6.398,-3.555 -0.535,-2.563C5.766,-1.493 12.129,-0.637 18.508,-0.247C28.641,0.37 38.703,-0.309 48.801,-1.001C56.184,-1.501 63.551,-2.528 70.879,-3.524C76.488,-4.286 82.086,-5.055 87.648,-6.114C89.609,-6.485 91.574,-6.845 93.523,-7.278C105.754,-9.993 116.754,-19.231 120.102,-31.555C122.828,-41.602 121.074,-52.403 115.668,-61.266C113.629,-64.606 111.027,-67.649 108.484,-70.602C107.23,-72.059 105.762,-73.333 104.301,-74.575C96.824,-80.919 88.895,-86.305 79.949,-90.294C70.496,-94.505 61.004,-98.036 50.855,-100.098C41.336,-102.032 31.598,-103.216 21.906,-103.876C17.876,-104.15 13.837,-104.32 9.8,-104.32C6.531,-104.32 3.263,-104.208 0,-103.95" style="fill:rgb(29,255,157);fill-rule:nonzero;"/>
        </g>
        <g transform="matrix(1,0,0,1,1047.79,734.387)">
            <path d="M0,124.486C0.002,124.489 0.004,124.493 0.007,124.498C0.005,124.494 0.003,124.49 0,124.486M-75.634,31.847C-75.618,31.863 -75.596,31.889 -75.563,31.924C-75.587,31.898 -75.61,31.873 -75.634,31.847M-216.845,-28.701L-216.845,-28.699L-216.845,-28.701ZM-171.501,-90.713C-175.622,-90.623 -179.798,-89.931 -183.817,-89.006C-187.622,-88.131 -192.079,-85.971 -195.313,-84.482C-200.716,-81.998 -205.56,-78.084 -209.853,-74.037C-212.747,-71.306 -215.212,-67.685 -217.54,-64.631C-218.563,-63.287 -219.489,-61.9 -220.341,-60.443C-222.294,-57.084 -223.806,-52.99 -225.192,-49.545C-225.966,-47.623 -226.591,-45.678 -227.079,-43.666C-228.063,-39.623 -228.419,-35.349 -228.884,-31.26C-229.095,-29.404 -229.095,-27.525 -229.044,-25.662C-228.931,-21.447 -228.114,-17.24 -227.552,-13.088C-227.263,-10.947 -226.743,-8.849 -226.118,-6.787C-222.673,4.596 -216.454,14.537 -208.341,23.162C-208.279,23.228 -208.218,23.293 -208.156,23.358C-208.882,25.19 -209.47,27.079 -209.817,28.971C-210.31,31.651 -210.86,35.447 -211.036,38.58C-211.231,42.018 -210.353,45.537 -209.735,48.893C-209.595,49.67 -209.294,50.412 -209.009,51.143C-207.935,53.873 -206.728,57.006 -205.274,59.736C-203.466,63.135 -200.833,66.229 -198.079,68.936C-196.146,70.841 -193.962,72.519 -191.723,74.1C-193.94,77.268 -195.146,81.218 -196.556,84.709C-196.868,85.486 -197.005,86.307 -197.134,87.127C-197.626,90.229 -198.247,93.611 -198.29,96.858C-198.325,99.58 -197.134,106.205 -197.06,106.561C-196.353,109.94 -194.626,112.998 -193.263,116.158C-192.911,116.971 -192.368,117.701 -191.856,118.416C-190.286,120.623 -188.138,123.467 -186.126,125.733C-185.618,126.307 -185.005,126.787 -184.415,127.268C-184.032,127.579 -183.644,127.893 -183.249,128.208C-183.446,129.597 -183.562,131.046 -183.599,132.592C-183.673,135.725 -183.032,138.838 -182.399,141.901C-181.259,147.404 -177.075,153.611 -173.212,157.529C-168.585,162.223 -162.418,165.064 -156.241,167.302C-155.542,168.949 -154.821,170.375 -154.505,170.846C-154.5,170.854 -154.494,170.862 -154.489,170.87C-154.316,171.932 -154.091,172.971 -153.813,173.979C-151.599,182.018 -146.013,188.748 -138.825,192.869C-135.13,194.99 -130.864,196.322 -126.81,197.709C-121.579,199.494 -116.099,200.631 -110.728,201.885C-107.954,202.533 -105.091,202.893 -102.29,203.389C-93.86,204.885 -85.243,205.842 -76.688,206.287C-70.1,206.629 -63.501,206.517 -56.937,205.897C-56.823,206.014 -56.71,206.13 -56.595,206.244C-50.79,212.053 -43.466,214.67 -35.384,215.033C-31.454,215.209 -27.103,214.436 -23.407,213.787C-21.72,213.49 -20.079,213.065 -18.438,212.572C-14.642,211.436 -10.962,209.791 -7.427,208.026C-6.72,207.67 -6.071,207.24 -5.435,206.776C-3.032,205.264 -0.825,203.526 1.19,201.561C2.917,199.326 4.644,197.092 6.37,194.854C8.249,192.416 9.202,189.225 9.979,186.24C11.159,181.701 11.601,174.229 9.913,169.694C8.862,166.865 7.874,163.983 6.343,161.373C4.925,158.954 3.649,157.286 2.261,155.876C2.605,154.934 2.934,154.009 3.265,153.131C4.202,150.639 4.714,143.494 4.71,143.58C4.929,140.096 4.062,136.631 3.511,133.197C3.313,131.962 2.363,129.647 1.501,127.712C1.52,127.306 1.53,126.908 1.53,126.522C1.53,123.33 0.757,120.162 0.284,117.002C0.167,116.244 -0.087,115.514 -0.341,114.791C-1.161,112.447 -2.63,108.748 -4.134,106.119C-5.481,103.76 -9.216,99.389 -9.837,98.631C-10.556,97.76 -11.294,96.92 -12.095,96.119C-14.767,93.44 -18.528,90.861 -21.333,88.756C-22.728,87.709 -24.165,86.744 -25.649,85.83C-29.048,83.733 -32.677,82.026 -36.349,80.471C-37.021,80.186 -37.693,79.902 -38.364,79.618C-38.583,79.253 -38.807,78.89 -39.036,78.529C-45.427,68.49 -54.044,60.096 -64.528,54.385C-64.7,54.291 -64.873,54.198 -65.046,54.106C-65.279,51.623 -65.896,49.156 -66.727,46.766C-64.076,43.127 -61.996,38.522 -61.048,34.729C-59.583,28.873 -59.372,21.514 -61.591,15.822C-62.704,12.963 -63.802,9.85 -65.438,7.162C-67.169,4.326 -69.333,1.682 -71.638,-0.724C-74.313,-3.514 -77.649,-5.748 -80.896,-7.857C-82.274,-8.752 -83.751,-9.494 -85.243,-10.17C-90.86,-12.709 -96.353,-14.916 -102.353,-16.232C-104.675,-16.74 -107.025,-17.152 -109.39,-17.492C-109.252,-18.789 -109.143,-20.092 -109.015,-21.385C-104.521,-20.236 -100.097,-18.835 -95.736,-17.177C-92.847,-15.828 -90.002,-14.379 -87.169,-12.924C-84.778,-11.916 -82.392,-10.908 -80.001,-9.9C-74.685,-8.471 -69.368,-8.471 -64.052,-9.9C-56.556,-11.963 -50.048,-16.978 -46.122,-23.685C-42.067,-30.615 -40.966,-39.056 -43.099,-46.803C-45.067,-53.955 -50.153,-61.271 -56.884,-64.732C-65.849,-69.338 -75.056,-73.545 -84.591,-76.83C-92.052,-79.4 -99.829,-81.017 -107.638,-82.068C-117.114,-83.346 -126.771,-84.799 -136.364,-84.709C-139.688,-84.678 -143.009,-84.642 -146.333,-84.611C-146.605,-84.608 -146.878,-84.605 -147.149,-84.601C-147.252,-84.656 -147.354,-84.71 -147.458,-84.764C-154.745,-88.538 -162.271,-90.723 -170.487,-90.723C-170.824,-90.723 -171.161,-90.72 -171.501,-90.713" style="fill:rgb(29,255,157);fill-rule:nonzero;"/>
        </g>
    </g>
</svg>
