<?xml version="1.0" encoding="UTF-8" standalone="no"?>
<!DOCTYPE svg PUBLIC "-//W3C//DTD SVG 1.1//EN" "http://www.w3.org/Graphics/SVG/1.1/DTD/svg11.dtd">
<svg width="100%" height="100%" viewBox="0 0 1536 2048" version="1.1" xmlns="http://www.w3.org/2000/svg" xmlns:xlink="http://www.w3.org/1999/xlink" xml:space="preserve" xmlns:serif="http://www.serif.com/" style="fill-rule:evenodd;clip-rule:evenodd;stroke-linejoin:round;stroke-miterlimit:1.41421;">
    <g id="Draw-Layer" serif:id="Draw Layer">
        <g transform="matrix(1.41212,0,0,1.40251,1048.21,1193.14)">
            <path d="M0,-332.098L-0.73,-332.098C-2.66,-332.098 -4.4,-332.024 -6.053,-331.871C-7.842,-331.704 -9.651,-331.435 -11.401,-331.176L-12.67,-330.989C-15.843,-330.585 -19.593,-330.089 -23.346,-329.461C-25.49,-329.1 -27.374,-327.274 -28.337,-325.82C-30.292,-325.383 -32.265,-324.859 -34.172,-324.352L-34.425,-324.286C-35.819,-323.913 -37.21,-323.53 -38.601,-323.146C-40.514,-322.618 -42.426,-322.089 -44.347,-321.594C-45.433,-321.316 -46.521,-321.046 -47.608,-320.777C-49.934,-320.202 -52.338,-319.607 -54.679,-318.93C-61.142,-317.062 -67.775,-314.722 -74.957,-311.777C-83.218,-308.394 -90.147,-304.896 -96.143,-301.085C-103.541,-296.375 -109.419,-292.187 -114.64,-287.905C-120.066,-283.451 -125.404,-278.448 -130.508,-273.036C-132.606,-270.812 -134.528,-268.367 -136.387,-266.003C-136.906,-265.342 -137.426,-264.681 -137.949,-264.024C-140.562,-260.747 -143.214,-257.42 -145.505,-253.914C-148.907,-248.711 -151.756,-243.076 -154.51,-237.627L-154.713,-237.225C-157.756,-231.202 -160.365,-226.299 -162.924,-221.796C-166.077,-216.254 -169.566,-210.358 -173.712,-204.797C-176.26,-201.601 -179.72,-197.488 -183.897,-194.026C-186.508,-192.128 -188.973,-190.645 -191.431,-189.492C-194.146,-188.456 -196.812,-187.725 -199.58,-187.258C-201.401,-187.066 -203.007,-186.973 -204.491,-186.973C-205.364,-186.973 -206.219,-187.006 -207.031,-187.071C-209.035,-187.449 -210.961,-187.974 -212.755,-188.633C-215.079,-189.721 -217.325,-191.039 -219.428,-192.549C-223.638,-195.969 -227.593,-199.788 -231.417,-203.483L-233.47,-205.462C-239.033,-210.809 -244.298,-216.492 -248.263,-220.845C-250.604,-223.416 -252.859,-226.138 -255.041,-228.77C-257.297,-231.491 -259.629,-234.305 -262.06,-236.958C-266.712,-242.038 -271.78,-246.837 -277.123,-251.221C-283.651,-256.583 -288.911,-260.354 -294.179,-263.448C-298.025,-265.708 -302.081,-267.752 -306.004,-269.73C-308.118,-270.794 -310.23,-271.859 -312.32,-272.96C-315.308,-274.531 -318.39,-276.033 -321.37,-277.485L-321.527,-277.562C-323.937,-278.733 -326.347,-280.001 -328.678,-281.227C-329.644,-281.735 -330.609,-282.243 -331.578,-282.745C-335.356,-284.705 -339.193,-286.29 -343.458,-288.012C-346.582,-289.271 -349.937,-290.455 -353.712,-291.633C-366.282,-295.549 -380.294,-297.596 -396.547,-297.891C-398.665,-297.93 -400.785,-297.95 -402.904,-297.95C-417.366,-297.951 -430.181,-296.992 -442.08,-295.02C-450.258,-293.662 -457.513,-292.104 -464.257,-290.254C-467.545,-289.352 -471.43,-288.233 -475.316,-286.769C-479.953,-285.025 -484.499,-283.098 -487.942,-281.613C-495.273,-278.462 -501.697,-275.123 -507.58,-271.405C-511.41,-268.985 -514.926,-266.12 -518.198,-263.393C-520.542,-261.437 -523.035,-259.254 -526.046,-256.521C-537.527,-246.106 -546.77,-234.487 -553.517,-221.987C-557.368,-214.846 -560.632,-207.375 -563.217,-199.783C-565.498,-193.077 -567.493,-185.78 -569.319,-177.473C-570.505,-172.066 -571.305,-166.5 -572.078,-161.118C-572.339,-159.307 -572.599,-157.496 -572.874,-155.687L-573.777,-149.737C-574.562,-144.555 -575.349,-139.373 -576.151,-134.195C-576.572,-131.471 -577.015,-128.75 -577.458,-126.029C-578.179,-121.603 -578.924,-117.026 -579.557,-112.507C-580.26,-107.501 -580.75,-103.435 -581.101,-99.71C-581.311,-97.476 -581.481,-95.238 -581.652,-93C-581.745,-91.787 -581.837,-90.575 -581.937,-89.362C-582.513,-82.344 -582.823,-75.152 -582.885,-67.377C-582.959,-58.56 -582.474,-50.776 -581.401,-43.579C-580.193,-35.473 -577.997,-27.849 -574.873,-20.92C-572.961,-16.675 -569.818,-12.915 -567.621,-10.456C-565.502,-8.081 -562.603,-5.889 -558.755,-3.755C-554.265,-1.263 -549.709,0 -545.214,0C-541.873,-0.004 -538.814,-0.87 -536.312,-2.506C-534.382,-3.766 -532.706,-5.388 -531.321,-6.807C-526.305,-11.95 -523.121,-18.631 -520.53,-24.491C-518.92,-28.134 -517.666,-31.384 -516.694,-34.425C-516.142,-36.157 -515.676,-37.947 -515.225,-39.678C-514.976,-40.633 -514.728,-41.588 -514.463,-42.538C-513.557,-45.801 -512.793,-49.154 -512.055,-52.396C-511.406,-55.243 -510.736,-58.186 -509.971,-61.058C-507.475,-70.435 -503.957,-79.642 -500.555,-88.545L-499.245,-91.979C-498.215,-94.688 -497.086,-97.412 -495.993,-100.046C-494.984,-102.478 -493.941,-104.993 -492.979,-107.491L-492.526,-108.666C-490.897,-112.89 -489.213,-117.257 -487.452,-121.51C-485.314,-126.411 -483.186,-130.645 -480.945,-134.454C-478.354,-138.852 -475.315,-142.92 -472.168,-147.047C-469.922,-149.886 -467.966,-152.152 -466.013,-154.179C-464.071,-156.191 -461.93,-157.944 -460.092,-159.393C-455.861,-162.563 -452.274,-164.969 -448.804,-166.962C-445.36,-168.939 -441.518,-170.835 -436.711,-172.931C-432.866,-174.453 -428.581,-175.845 -423.225,-177.309C-419.413,-178.346 -415.667,-179.152 -412.089,-179.703C-410.124,-179.914 -408.09,-180.068 -405.871,-180.172C-405.259,-180.2 -404.647,-180.213 -404.036,-180.213C-402.174,-180.213 -400.19,-180.091 -397.971,-179.84C-395.204,-179.421 -392.965,-178.953 -390.925,-178.368C-388.852,-177.767 -386.784,-177.015 -384.784,-176.288C-384.144,-176.055 -383.504,-175.823 -382.863,-175.594C-378.611,-174.07 -374.436,-172.338 -369.809,-170.395C-365.468,-168.518 -361.983,-166.761 -358.842,-164.865C-355.658,-162.941 -351.973,-160.675 -348.534,-158.123C-345.35,-155.576 -342.497,-153.007 -339.812,-150.269C-337.115,-147.519 -333.975,-144.235 -331.133,-140.726C-327.054,-135.294 -323.387,-129.693 -320.032,-124.45C-319.336,-123.362 -318.644,-122.271 -317.951,-121.181C-314.816,-116.245 -311.574,-111.142 -308.028,-106.364C-304.071,-101.032 -299.692,-95.861 -295.458,-90.86L-294.465,-89.687C-292.861,-87.792 -291.196,-85.895 -289.586,-84.06L-287.586,-81.777C-286.488,-80.514 -285.413,-79.231 -284.337,-77.948C-283.399,-76.829 -282.461,-75.711 -281.508,-74.605C-279.75,-72.562 -277.859,-70.577 -276.031,-68.659L-275.723,-68.335C-273.858,-66.378 -271.829,-64.305 -269.62,-62.405C-266.669,-59.865 -263.904,-57.673 -261.167,-55.705C-259.959,-54.833 -258.703,-53.988 -257.488,-53.17C-256.437,-52.462 -255.385,-51.754 -254.35,-51.021C-253.398,-50.346 -252.452,-49.655 -251.505,-48.964C-248.626,-46.863 -245.649,-44.69 -242.486,-42.943C-238.592,-40.795 -234.261,-39.551 -230.073,-38.349L-228.444,-37.879C-223.636,-36.479 -219.54,-35.47 -215.181,-35.094C-213.612,-34.96 -212.004,-34.919 -210.449,-34.878L-208.938,-34.836C-207.111,-34.779 -205.324,-34.723 -203.564,-34.723C-202.204,-34.723 -200.991,-34.756 -199.855,-34.824C-195.98,-35.053 -191.976,-35.833 -187.95,-37.145C-184.452,-38.282 -181.018,-39.82 -177.696,-41.306C-176.969,-41.632 -176.242,-41.957 -175.516,-42.278C-172.539,-43.598 -169.727,-45.239 -167.101,-46.806C-164.604,-48.298 -162.166,-49.911 -159.857,-51.603C-153.992,-55.901 -148.766,-59.851 -144.2,-64.667C-143.243,-65.678 -142.298,-66.701 -141.353,-67.723C-140.092,-69.087 -138.83,-70.451 -137.54,-71.788C-136.821,-72.532 -136.099,-73.271 -135.375,-74.011C-134.057,-75.361 -132.737,-76.71 -131.442,-78.085C-129.923,-79.699 -128.382,-81.291 -126.841,-82.883C-126.013,-83.738 -125.186,-84.594 -124.36,-85.452C-122.938,-86.933 -121.543,-88.44 -120.15,-89.947C-119.286,-90.881 -118.422,-91.814 -117.552,-92.742C-115.771,-94.64 -113.885,-96.493 -112.06,-98.285C-111.46,-98.873 -110.86,-99.462 -110.263,-100.054C-107.702,-102.584 -105.066,-105.314 -102.427,-108.167C-100.246,-110.52 -98.082,-112.959 -95.988,-115.319C-93.526,-118.094 -90.98,-120.963 -88.392,-123.71C-82.651,-129.805 -77.494,-135.14 -72.626,-140.018C-69.97,-142.684 -67.328,-145.365 -64.687,-148.045C-57.555,-155.282 -50.18,-162.765 -42.627,-169.815C-38.584,-173.586 -34.201,-177.59 -29.545,-181.33C-25.786,-184.087 -21.808,-186.421 -17.719,-188.266C-13.769,-189.79 -9.548,-190.916 -5.175,-191.614C-2.535,-191.902 0.086,-192.048 2.613,-192.048C4.796,-192.048 6.946,-191.939 9.002,-191.723C11.229,-191.345 13.154,-190.869 14.887,-190.27C15.563,-189.936 16.193,-189.581 16.814,-189.185C17.573,-188.482 18.321,-187.674 19.168,-186.644C20.556,-184.744 21.581,-183.092 22.393,-181.447C22.871,-180.134 23.28,-178.772 23.676,-177.454L23.955,-176.527C24.628,-174.292 25.216,-172.264 25.752,-170.327C26.309,-168.317 26.822,-166.509 27.463,-164.744C28.068,-163.082 28.804,-161.443 29.515,-159.858C29.733,-159.371 29.951,-158.884 30.166,-158.397L30.663,-157.152C31.346,-155.431 32.053,-153.652 32.908,-151.978C33.489,-150.841 34.168,-149.735 34.825,-148.665C35.24,-147.99 35.655,-147.313 36.05,-146.626C36.718,-145.457 37.338,-144.238 37.938,-143.059C38.321,-142.305 38.705,-141.55 39.104,-140.802C39.703,-139.685 40.369,-138.582 41.014,-137.516C41.465,-136.769 41.917,-136.021 42.351,-135.263C43.199,-133.778 44.012,-132.275 44.825,-130.773C46.157,-128.313 47.534,-125.769 49.05,-123.352C52.052,-118.563 55.927,-114.291 60.567,-110.655C65.576,-106.733 71.09,-102.969 77.424,-99.146C80.154,-97.5 83.09,-95.952 86.151,-94.548C90.758,-92.434 94.629,-91.014 98.333,-90.078C102.203,-89.102 106.621,-88.448 111.839,-88.078C112.711,-88.016 113.61,-87.985 114.513,-87.985C117.689,-87.985 121.032,-88.366 124.447,-89.118C125.795,-89.414 127.203,-89.875 128.879,-90.567C130.838,-91.372 132.937,-92.278 135.008,-93.447C138.221,-95.261 141.2,-97.595 143.624,-100.195C145.41,-102.117 146.887,-104.086 148.012,-106.048C149.12,-107.978 150.071,-110.133 151.095,-113.034C152.568,-117.225 153.087,-121.926 153.428,-126.38C153.661,-129.411 153.681,-132.503 153.699,-135.494C153.707,-136.781 153.716,-138.068 153.74,-139.353C153.806,-143.094 154.229,-146.833 154.635,-149.997L155.061,-153.027C155.974,-159.49 156.917,-166.173 157.537,-172.786C158.206,-179.923 158.356,-187.06 158.416,-193.1L158.427,-194.096C158.46,-197.184 158.495,-200.377 158.318,-203.515C158.105,-207.289 157.594,-211.203 156.756,-215.481C155.537,-221.722 153.758,-228.103 151.47,-234.447C149.033,-241.203 145.856,-248.19 141.473,-256.436C139.37,-260.399 137.556,-263.561 135.762,-266.387C133.482,-269.978 130.856,-273.327 128.359,-276.41C124.113,-281.658 119.189,-286.519 113.725,-290.862C109.663,-294.091 106.485,-296.456 103.419,-298.53C100.538,-300.481 97.571,-302.149 94.27,-303.972C81.255,-311.147 67.428,-317.415 53.171,-322.601C49.603,-323.904 46.246,-325.001 42.912,-325.957C40.518,-326.641 38.051,-327.216 35.664,-327.771L33.932,-328.176C33.277,-328.329 32.624,-328.486 31.971,-328.643C29.697,-329.188 27.346,-329.753 24.997,-330.149C20.58,-330.886 16.559,-331.378 12.699,-331.653C8.097,-331.98 3.495,-332.063 0,-332.098" style="fill:rgb(39,57,210);fill-rule:nonzero;"/>
        </g>
        <g transform="matrix(1.41212,0,0,1.40251,1137.07,1663.17)">
            <path d="M0,-355.207C-0.676,-355.207 -1.352,-355.195 -2.031,-355.172C-8.403,-354.941 -15.225,-353.621 -23.499,-351.015C-27.959,-349.613 -32.157,-347.811 -35.676,-346.233C-38.528,-344.956 -41.84,-343.448 -45.032,-341.733C-50.49,-338.803 -56.057,-335.141 -62.553,-330.209C-67.47,-326.475 -72.47,-322.33 -78.765,-316.767C-86.788,-309.682 -94.804,-301.216 -103.992,-290.125C-107.293,-286.137 -110.876,-281.887 -115.609,-276.344C-118.105,-273.42 -120.705,-270.499 -123.219,-267.675C-125.462,-265.155 -127.781,-262.548 -130.02,-259.95C-135.953,-253.061 -141.486,-245.968 -145.645,-240.559C-149.283,-235.823 -152.712,-230.826 -156.027,-225.993C-156.992,-224.585 -157.958,-223.177 -158.93,-221.773L-160.483,-219.529C-163.923,-214.56 -167.479,-209.422 -171.074,-204.441C-173.954,-200.448 -177.025,-196.486 -179.996,-192.655C-181.311,-190.959 -182.624,-189.264 -183.926,-187.563C-186.675,-184.084 -189.61,-180.822 -192.449,-177.666C-195.248,-174.555 -198.527,-170.999 -202.222,-167.943C-204.834,-166.081 -207.835,-164.434 -211.949,-162.604C-218.305,-160.042 -224.498,-158.271 -230.357,-157.34C-233.119,-157.039 -236.127,-156.892 -239.549,-156.892C-240.359,-156.892 -241.171,-156.9 -241.984,-156.915C-247.242,-157.006 -251.463,-157.241 -255.269,-157.648C-259.033,-158.266 -262.697,-159.243 -266.157,-160.55C-269.577,-162.147 -273.01,-164.202 -276.361,-166.659C-281.396,-170.678 -285.983,-175.099 -290.192,-179.278C-291.954,-181.024 -293.715,-182.832 -295.417,-184.582C-296.15,-185.334 -296.883,-186.086 -297.618,-186.836C-300.114,-189.388 -302.24,-191.768 -304.117,-194.114C-307.081,-198.061 -309.166,-201.286 -310.878,-204.569L-311.598,-205.944C-313.242,-209.084 -314.944,-212.332 -316.381,-215.63L-316.695,-216.381C-319.372,-222.798 -322.14,-229.432 -325.519,-235.674C-329.19,-242.458 -333.131,-249.064 -337.234,-255.308C-341.445,-261.719 -345.296,-267.461 -349.777,-272.821C-354.128,-278.022 -359.077,-282.341 -363.345,-285.88C-364.472,-286.813 -365.589,-287.758 -366.707,-288.703C-368.042,-289.832 -369.378,-290.959 -370.729,-292.068C-372.648,-293.643 -374.68,-295.15 -376.645,-296.607C-377.561,-297.287 -378.477,-297.966 -379.385,-298.655C-384.619,-302.624 -390.13,-305.796 -395.766,-308.085C-402.594,-310.857 -409.815,-311.856 -415.979,-312.469C-417.342,-312.605 -418.817,-312.67 -420.488,-312.67C-422.374,-312.67 -424.287,-312.586 -426.138,-312.505L-426.985,-312.469C-430.324,-312.324 -433.928,-311.976 -438.001,-311.407C-445.155,-310.406 -452.157,-308.677 -458.812,-306.269C-466.421,-303.515 -473.755,-300.295 -480.61,-296.698C-483.598,-295.131 -487.122,-293.246 -490.607,-291.135C-493.659,-289.291 -496.713,-287.26 -499.408,-285.467C-501,-284.409 -502.604,-283.368 -504.208,-282.327C-508.349,-279.639 -512.631,-276.861 -516.623,-273.802C-523.202,-268.763 -529.412,-263.422 -535.081,-257.926C-540.339,-252.827 -545.502,-246.965 -550.863,-240.008C-553.32,-236.812 -555.489,-233.793 -557.493,-230.781C-559.097,-228.364 -560.628,-225.839 -562.109,-223.398C-562.636,-222.531 -563.162,-221.664 -563.692,-220.799C-568.327,-213.233 -571.981,-206.991 -575.192,-201.155C-581.932,-188.911 -587.564,-175.036 -592.92,-157.489C-594.729,-151.55 -596.154,-145.41 -597.532,-139.471C-597.837,-138.156 -598.142,-136.841 -598.451,-135.528C-599.893,-129.409 -601.452,-123.17 -603.088,-116.985C-604.209,-114.755 -605.455,-112.547 -606.659,-110.412L-607.45,-109.006C-609.652,-105.082 -611.312,-101.03 -612.385,-96.961C-612.782,-95.45 -613.1,-93.895 -613.406,-92.391C-613.699,-90.957 -614.001,-89.473 -614.373,-88.032L-614.625,-87.06C-615.235,-84.708 -615.866,-82.276 -616.334,-79.828C-616.633,-78.271 -616.967,-76.726 -617.3,-75.184C-617.994,-71.971 -618.711,-68.65 -619.08,-65.299C-619.254,-63.716 -619.257,-62.1 -619.259,-60.536C-619.261,-59.078 -619.263,-57.57 -619.404,-56.092C-619.452,-55.592 -619.503,-55.091 -619.554,-54.59C-619.756,-52.61 -619.964,-50.562 -619.951,-48.544C-619.922,-43.827 -619.617,-39.54 -619.018,-35.438C-618.651,-32.92 -617.975,-30.373 -617.005,-27.866C-616.013,-25.3 -614.776,-22.108 -612.824,-19.57C-611.66,-18.054 -610.609,-16.686 -609.355,-15.397C-608.37,-14.381 -607.283,-13.477 -606.163,-12.564L-605.44,-11.975C-602.874,-9.878 -600.22,-7.711 -597.388,-5.93C-596.171,-5.167 -594.836,-4.44 -593.422,-3.77C-591.586,-2.898 -589.403,-1.914 -587.128,-1.227C-584.435,-0.413 -581.356,0 -577.98,0C-577.437,0 -576.896,-0.01 -576.359,-0.031C-568.209,-0.338 -560.667,-1.85 -553.941,-4.524C-552.046,-5.279 -549.568,-6.321 -547.21,-7.688C-545.362,-8.754 -543.636,-9.979 -542.338,-10.927C-538.845,-13.481 -535.851,-16.064 -533.185,-18.823C-527.664,-24.536 -523.568,-29.956 -520.663,-35.391C-513.399,-48.977 -509.641,-63.961 -507.178,-75.499C-506.803,-77.252 -506.437,-79.006 -506.071,-80.76C-505.103,-85.399 -504.102,-90.195 -502.951,-94.882C-501.562,-100.535 -499.597,-106.452 -496.577,-114.069C-496.19,-115.041 -495.795,-116.014 -495.401,-116.982C-493.739,-120.821 -492.075,-124.276 -490.315,-127.547C-488.693,-130.559 -486.483,-134.49 -483.777,-138.187C-480.598,-142.165 -477.36,-145.976 -474.153,-149.514C-473.415,-150.33 -472.683,-151.155 -471.948,-151.982C-469.258,-155.013 -466.476,-158.147 -463.365,-160.807C-460.663,-162.715 -457.787,-164.216 -454.832,-165.711C-451.848,-167.225 -448.466,-168.941 -445.113,-170.434C-441.195,-171.991 -437.9,-173.038 -434.744,-173.726C-431.124,-174.512 -427.484,-175.064 -424.718,-175.457C-422.083,-175.763 -419.472,-175.918 -416.957,-175.918C-414.948,-175.918 -412.932,-175.82 -410.966,-175.624C-407.625,-175.032 -404.047,-173.94 -399.707,-172.188C-395.982,-170.488 -392.63,-168.536 -389.459,-166.22C-388.025,-165.055 -386.895,-164.056 -385.901,-163.077C-384.944,-162.131 -384.099,-161.087 -383.328,-160.101C-379.48,-155.057 -376.314,-150.414 -373.649,-145.907C-371.18,-141.734 -368.815,-137.026 -366.208,-131.091C-365.568,-129.526 -364.95,-127.952 -364.333,-126.377C-363.805,-125.033 -363.277,-123.688 -362.736,-122.349C-361.042,-118.174 -359.304,-114.081 -357.571,-110.185C-355.97,-106.573 -354.383,-103.053 -352.591,-99.707C-350.858,-96.481 -348.897,-93.46 -346.485,-89.918C-341.256,-82.228 -336.448,-76.501 -331.354,-71.897C-326.549,-67.551 -320.912,-63.426 -313.615,-58.915C-310.893,-57.229 -307.874,-55.681 -304.387,-54.184C-299.787,-52.206 -295.813,-50.849 -291.881,-49.914C-288.099,-49.019 -284.287,-48.489 -279.728,-47.968C-276.92,-47.651 -273.222,-47.269 -269.512,-47.128C-268.064,-47.073 -266.56,-47.045 -265.038,-47.045C-260.108,-47.045 -254.885,-47.323 -248.601,-47.917C-240.381,-48.694 -232.335,-49.968 -226.244,-50.992C-210.746,-53.602 -197.183,-56.969 -184.778,-61.29C-176.479,-64.18 -168.824,-67.609 -162.026,-71.481C-156.042,-74.893 -149.926,-78.965 -143.33,-83.931C-136.24,-89.263 -130.508,-93.936 -125.29,-98.639C-122.859,-100.83 -120.31,-103.295 -117.497,-106.178C-115.115,-108.614 -112.416,-111.375 -109.938,-114.276C-104.308,-120.866 -99.344,-127.976 -95.648,-133.434L-93.973,-135.913C-90.792,-140.624 -87.503,-145.495 -84.012,-150.101L-83.921,-150.22L-83.703,-150.503C-78.701,-156.873 -74.367,-161.815 -70.063,-166.057C-66.106,-169.955 -61.649,-173.868 -56.814,-177.689C-53.62,-180.072 -51.078,-181.678 -48.574,-182.899C-46.213,-183.694 -43.732,-184.136 -41.615,-184.464C-40.621,-184.556 -39.563,-184.602 -38.475,-184.602C-36.852,-184.602 -35.079,-184.5 -33.056,-184.292C-30.127,-183.798 -27.272,-182.995 -24.328,-181.836C-23.015,-181.252 -21.294,-180.467 -19.63,-179.571C-18.561,-178.997 -17.468,-178.294 -16.189,-177.361C-13.99,-175.528 -11.93,-173.424 -9.891,-170.933C-6.665,-166.562 -3.994,-162.022 -1.95,-157.439C1.152,-149.915 3.414,-143.569 5.166,-137.467C5.949,-134.747 6.6,-131.943 7.229,-129.231C7.467,-128.205 7.705,-127.177 7.951,-126.152C8.604,-123.422 9.339,-120.188 9.842,-116.903C9.991,-115.7 10.137,-114.496 10.281,-113.292C10.694,-109.87 11.121,-106.331 11.646,-102.86C11.894,-101.236 12.154,-99.616 12.416,-97.995C12.789,-95.682 13.174,-93.291 13.51,-90.93C13.65,-89.852 13.791,-88.774 13.928,-87.7L14.038,-86.871L14.135,-86.149C14.143,-85.489 14.226,-84.829 14.381,-84.187C14.437,-83.828 14.488,-83.491 14.541,-83.122C14.67,-82.211 14.803,-81.301 14.951,-80.399C15.627,-76.385 16.545,-72.907 17.756,-69.764C19.24,-65.916 21.054,-62.264 23.147,-58.911C25.396,-55.311 28.008,-52.132 30.907,-49.463C33.657,-46.934 36.914,-44.37 40.588,-41.841C43.876,-39.579 47.528,-37.7 51.754,-36.098C55.084,-34.84 59.08,-34.204 63.634,-34.204C63.916,-34.204 64.196,-34.206 64.477,-34.21C71.159,-34.319 78.266,-35.172 86.201,-36.82C93.837,-38.406 100.684,-39.991 107.134,-43.332C108.658,-44.122 110.057,-45.195 111.408,-46.233L111.814,-46.544C113.833,-48.087 115.921,-49.682 117.866,-51.409C120.557,-53.789 122.812,-56.707 124.848,-59.507C128.466,-64.478 131.321,-70.651 133.834,-78.932C135.814,-85.456 137.271,-92.59 138.162,-100.137C138.968,-106.979 138.874,-113.866 138.709,-120.334C138.545,-126.834 138.094,-133.537 137.369,-140.252C136.469,-148.584 135.242,-156.637 133.725,-164.187C133.132,-167.133 132.56,-170.084 131.986,-173.035C129.835,-184.118 127.61,-195.577 124.326,-206.598C122.942,-211.234 121.648,-215.975 120.396,-220.561C119.865,-222.507 119.334,-224.454 118.795,-226.399C118.025,-229.168 117.332,-232.005 116.662,-234.749C115.665,-238.827 114.635,-243.043 113.334,-247.122C111.048,-254.287 108.122,-261.688 104.388,-269.749C102.911,-272.94 101.205,-276.069 99.555,-279.094L99.302,-279.557C97.688,-282.513 96.019,-285.57 94.196,-288.488C91.177,-293.315 87.156,-299.66 82.836,-305.925C78.779,-311.804 74.584,-317.883 69.699,-323.45C65.021,-328.78 60.193,-333.074 54.939,-336.577C48.965,-340.558 42.251,-343.566 36.473,-345.984C30.92,-348.312 25.243,-350.371 19.601,-352.101C12.891,-354.162 6.296,-355.207 0,-355.207" style="fill:rgb(39,57,210);fill-rule:nonzero;"/>
        </g>
        <g transform="matrix(1.41212,0,0,1.40251,971.631,780.497)">
            <path d="M0,-7.69C-0.23,-7.512 -0.461,-7.334 -0.691,-7.157C-0.461,-7.335 -0.23,-7.512 0,-7.69M-41.437,-9.056C-41.661,-8.882 -41.885,-8.71 -42.109,-8.536C-41.885,-8.71 -41.661,-8.883 -41.437,-9.056M49.934,-43.134C47.973,-43.028 46.016,-42.81 44.066,-42.587C41.383,-42.282 38.695,-41.974 36.039,-41.474C31.612,-40.645 27.215,-39.439 22.914,-38.097C21.834,-37.886 20.758,-37.653 19.687,-37.396C17.553,-36.881 15.445,-36.274 13.376,-35.557C4.193,-33.426 -4.787,-30.252 -13.348,-26.349C-18.258,-24.114 -22.949,-21.364 -27.625,-18.685C-32.324,-15.995 -36.601,-12.785 -40.873,-9.491C-40.695,-9.628 -40.518,-9.766 -40.34,-9.903C-43.367,-7.567 -46.512,-5.349 -49.402,-2.849C-51.855,-0.728 -54.07,1.698 -56.305,4.042C-58.582,6.433 -60.664,9.007 -62.852,11.476C-63.424,12.122 -63.985,12.777 -64.539,13.438C-65.505,14.416 -66.438,15.442 -67.348,16.472C-67.84,17.026 -68.328,17.585 -68.809,18.155C-69.52,18.999 -70.195,19.874 -70.859,20.761C-71.668,21.835 -72.109,22.979 -72.613,24.245C-73.031,25.796 -73.031,27.347 -72.613,28.897C-72.199,30.378 -71.449,31.667 -70.363,32.757C-70.34,32.776 -70.316,32.796 -70.289,32.819C-69.199,33.901 -67.914,34.651 -66.43,35.069C-64.203,35.683 -61.672,35.393 -59.688,34.186C-57.291,32.728 -55.731,30.362 -54.09,28.142C-53.501,27.402 -52.901,26.67 -52.295,25.943C-50.134,23.747 -47.842,21.681 -45.456,19.725C-41.649,16.921 -37.714,14.318 -33.766,11.714C-31.201,10.022 -28.627,8.348 -26.03,6.706C-25.137,10.496 -21.359,13.374 -17.469,13.374C-15.156,13.374 -12.914,12.444 -11.281,10.811C-9.578,9.108 -8.844,6.987 -8.719,4.624C-8.697,4.229 -8.675,3.835 -8.647,3.442C-8.582,3.179 -8.509,2.919 -8.428,2.662C-7.614,1.058 -6.637,-0.456 -5.583,-1.911C-3.629,-4.28 -1.502,-6.441 0.896,-8.378C2.176,-9.357 3.468,-10.329 4.78,-11.269C8.521,-13.439 12.287,-15.595 16.23,-17.371C18.423,-18.231 20.654,-18.974 22.895,-19.708C22.932,-19.72 22.968,-19.732 23.004,-19.744C24.926,-20.122 26.852,-20.476 28.773,-20.837C31.676,-21.379 34.563,-22.017 37.471,-22.527C37.811,-22.561 38.149,-22.595 38.488,-22.63C39.98,-22.778 41.473,-22.892 42.973,-22.974C44.637,-23.067 46.605,-22.985 48.188,-23.458C49.659,-23.898 50.982,-24.679 52.04,-25.724C52.558,-25.746 53.075,-25.762 53.594,-25.774C56.074,-25.833 58.551,-25.837 61.031,-25.841C63.302,-25.844 65.563,-25.85 67.823,-25.664C69.521,-25.339 71.193,-24.868 72.859,-24.407C74.68,-23.899 76.5,-23.388 78.297,-22.806C80.238,-22.177 82.148,-21.45 84.09,-20.806C85.758,-20.253 87.426,-19.735 89.061,-19.092C91.791,-17.916 94.51,-16.703 97.141,-15.317C99.905,-13.862 102.458,-12.138 104.953,-10.281C110.356,-5.939 115.123,-0.818 119.633,4.429C121.926,7.093 124.203,9.772 126.492,12.444C128.953,15.311 131.551,18.073 133.914,21.018C135.289,22.729 138.004,23.581 140.102,23.581C142.414,23.581 144.656,22.651 146.289,21.018C147.922,19.386 148.852,17.143 148.852,14.831C148.746,14.058 148.645,13.28 148.539,12.507C148.125,11.022 147.375,9.737 146.289,8.643C143.223,4.827 139.852,1.229 136.676,-2.501C133.578,-6.142 130.523,-9.849 127.234,-13.325C120.832,-20.095 113.633,-26.466 105.313,-30.771C103.473,-31.724 101.586,-32.571 99.688,-33.407C97.23,-34.493 94.777,-35.599 92.258,-36.532C90.203,-37.294 88.086,-37.896 86.012,-38.61C84.074,-39.278 82.145,-39.95 80.176,-40.524C78.074,-41.134 75.965,-41.739 73.84,-42.251C70.754,-42.993 67.539,-43.298 64.367,-43.341C62.854,-43.36 61.338,-43.373 59.821,-43.373C56.522,-43.373 53.22,-43.313 49.934,-43.134" style="fill:rgb(39,57,210);fill-rule:nonzero;"/>
        </g>
    </g>
    <g transform="matrix(1.41212,0,0,1.40251,431.381,597.488)">
        <g id="Draw-Layer1" serif:id="Draw Layer">
            <path d="M0,-204.215C-9.436,-204.215 -19.466,-203.133 -29.811,-201C-33.815,-200.174 -38.11,-198.903 -42.941,-197.113C-44.358,-196.777 -45.823,-196.365 -47.296,-195.89C-50.492,-194.858 -53.668,-193.498 -56.625,-192.183C-58.633,-191.285 -60.668,-190.124 -62.845,-188.632C-66.882,-185.867 -72.054,-182.118 -76.257,-177.618C-79.782,-173.846 -83.207,-169.549 -87.36,-163.687C-90.437,-159.349 -93.209,-155.272 -95.836,-151.222C-98.363,-147.327 -100.697,-142.87 -102.775,-137.974C-104.033,-135.003 -105.344,-131.796 -106.412,-128.478C-107.134,-126.229 -107.731,-123.758 -108.237,-120.925C-109.221,-115.389 -109.718,-109.596 -109.756,-103.217C-109.791,-96.901 -108.803,-90.748 -107.94,-86.094C-107.054,-81.307 -105.281,-76.148 -102.361,-69.857C-100.153,-65.09 -97.534,-60.369 -95.224,-56.204C-92.367,-51.05 -89.5,-46.047 -85.848,-41.492C-82.598,-37.438 -78.908,-33.669 -75.34,-30.024C-71.394,-25.99 -67.862,-22.415 -64.042,-18.948C-60.003,-15.28 -55.202,-11.871 -49.771,-8.814C-40.542,-3.621 -29.502,-0.809 -16.02,-0.218C-12.693,-0.071 -9.663,0 -6.755,0C-4.473,0 -2.24,-0.046 -0.117,-0.136C3.542,-0.293 7.247,-0.776 10.83,-1.243C12.089,-1.408 13.349,-1.572 14.607,-1.722C21.537,-2.552 26.834,-3.424 31.784,-4.551L32.921,-4.808C35.006,-5.278 37.163,-5.763 39.256,-6.34C42.02,-7.103 44.801,-8.105 48.008,-9.493C58.259,-13.918 67.272,-21.27 74.071,-30.754C77.199,-35.118 79.931,-39.627 82.188,-44.154C83.665,-47.113 84.864,-50.293 85.966,-53.296C86.859,-55.716 87.648,-58.161 88.31,-60.562C90.886,-69.892 92.25,-80.498 92.479,-92.986C92.68,-103.989 91.509,-115.335 88.998,-126.707C86.615,-137.497 82.554,-147.486 76.93,-156.398C73.865,-161.252 70.207,-165.791 66.668,-170.18C63.969,-173.526 60.808,-177.398 57.433,-181.012C53.215,-185.536 48.375,-189.3 44.197,-192.385C42.697,-193.494 40.696,-194.923 38.521,-196.139C35.971,-197.563 33.227,-198.663 30.855,-199.582C26.393,-201.305 22.081,-202.465 17.673,-203.125C11.893,-203.992 6.133,-204.159 1.262,-204.207C0.833,-204.211 0.418,-204.215 0,-204.215" style="fill:rgb(246,77,66);fill-rule:nonzero;"/>
        </g>
    </g>
</svg>
