<?xml version="1.0" encoding="UTF-8" standalone="no"?>
<!DOCTYPE svg PUBLIC "-//W3C//DTD SVG 1.1//EN" "http://www.w3.org/Graphics/SVG/1.1/DTD/svg11.dtd">
<svg width="100%" height="100%" viewBox="0 0 1400 1400" version="1.1" xmlns="http://www.w3.org/2000/svg" xmlns:xlink="http://www.w3.org/1999/xlink" xml:space="preserve" xmlns:serif="http://www.serif.com/" style="fill-rule:evenodd;clip-rule:evenodd;stroke-linejoin:round;stroke-miterlimit:1.41421;">
    <g id="Draw-Layer" serif:id="Draw Layer" transform="matrix(1,0,0,1,-68,0)">
        <g transform="matrix(1,0,0,1,546.224,503.595)">
            <path d="M0,-212.131C-4.219,-211.94 -8.484,-211.17 -12.625,-210.549C-14.613,-210.248 -16.586,-209.799 -18.52,-209.248C-23.133,-207.928 -27.496,-205.768 -31.859,-203.803C-33.176,-203.213 -34.457,-202.592 -35.742,-201.94C-38.117,-200.736 -40.313,-199.287 -42.496,-197.768C-46.629,-194.897 -50.852,-191.569 -54.426,-187.947C-55.266,-187.1 -56.008,-186.143 -56.758,-185.217C-59.805,-181.451 -62.973,-177.725 -65.223,-173.412C-69.207,-165.768 -72.684,-157.76 -73.957,-149.19C-74.372,-146.404 -74.801,-143.596 -75.104,-140.779C-76.522,-137.575 -77.799,-134.303 -79.016,-131.061C-80.371,-127.447 -81.332,-123.693 -82.074,-119.912C-84.047,-109.897 -85.035,-99.639 -83.938,-89.467C-83.297,-83.545 -82.531,-77.541 -81.184,-71.717C-79.793,-65.705 -77.211,-59.955 -74.676,-54.369C-72.234,-48.979 -68.41,-44.518 -64.816,-39.865C-62.555,-36.94 -59.855,-34.412 -57.008,-32.072C-43.152,-20.701 -27.441,-12.416 -10.746,-6.037C-1.434,-2.475 8.633,-0.975 18.531,-0.307C23.887,0.053 29.207,-0.311 34.531,-0.858C45.449,-1.979 56.559,-3.463 66.883,-7.365C70.758,-8.83 74.594,-10.444 78.324,-12.244C79.758,-12.936 81.109,-13.772 82.391,-14.705C85.719,-17.139 88.816,-19.393 91.535,-22.397C94.27,-25.412 96.84,-28.709 98.898,-32.236C100.887,-35.654 102.152,-39.494 103.613,-43.158C104.254,-44.776 104.707,-46.44 105.078,-48.135C106.188,-53.174 106.813,-58.369 107.148,-63.522C107.52,-69.252 107.516,-74.947 107.434,-80.69C107.238,-94.029 105.711,-107.346 103.344,-120.463C102.438,-125.486 101.152,-130.674 99.176,-135.397C96.09,-142.772 93.223,-150.221 88.977,-157.022C84.777,-163.756 79.848,-169.986 74.758,-176.065C69.727,-182.072 63.844,-187.018 57.574,-191.701C53.129,-195.018 48.543,-197.803 43.645,-200.404C41.203,-201.701 38.633,-202.783 36.105,-203.908C30.336,-206.475 24.453,-209.045 18.234,-210.33C13.081,-211.397 7.667,-212.184 2.339,-212.184C1.557,-212.184 0.777,-212.167 0,-212.131" style="fill:rgb(70,0,0);fill-rule:nonzero;"/>
        </g>
        <g transform="matrix(1,0,0,1,488.745,1214.1)">
            <path d="M0,-817.454C-1.562,-815.427 -3.129,-813.403 -4.691,-811.38C-7.406,-806.7 -8.77,-801.653 -8.785,-796.239C-8.168,-791.21 -7.649,-786.254 -7.868,-781.228C-8.38,-778.629 -8.963,-776.042 -9.473,-773.442C-10.289,-769.286 -10.953,-765.102 -11.684,-760.927C-13.009,-753.339 -14.948,-745.942 -17.571,-738.719C-20.173,-733.448 -23.343,-728.49 -26.566,-723.567C-30.715,-717.227 -34.691,-710.88 -38.176,-704.145C-45.438,-690.126 -52.168,-675.852 -59.25,-661.747C-66.332,-647.634 -74.617,-634.149 -81.426,-619.899C-84.941,-612.544 -88.223,-605.083 -91.711,-597.716C-95.109,-590.54 -98.418,-583.337 -101.617,-576.071C-105.801,-566.571 -110.02,-557.087 -113.988,-547.497C-117.219,-539.688 -120.008,-531.731 -122.777,-523.747C-125.445,-516.056 -128.164,-508.333 -130.004,-500.392C-131.895,-492.235 -133.34,-483.985 -134.629,-475.716C-136.258,-465.27 -137.645,-454.782 -138.512,-444.243C-139.16,-436.321 -139.695,-428.392 -140.246,-420.466C-141.383,-404.091 -141.07,-387.696 -139.727,-371.345C-138.227,-353.082 -135.074,-334.618 -129.836,-317.032C-126.785,-306.805 -122.566,-296.926 -118.074,-287.262C-114.785,-280.188 -111.074,-273.254 -106.516,-266.907C-95.758,-251.926 -83.305,-238.325 -69.719,-225.871C-65.098,-221.633 -60.109,-217.774 -55.023,-214.118C-51.996,-211.942 -48.824,-210.004 -45.473,-208.364C-36.332,-203.891 -26.84,-199.739 -17.031,-196.95C-13.57,-195.965 -9.996,-195.184 -6.434,-194.68C-0.016,-193.778 6.266,-192.907 12.723,-192.653C20.078,-192.36 27.41,-192.75 34.73,-193.395C50.371,-194.77 66.008,-196.157 81.664,-197.352C93.279,-198.238 105.083,-199.025 116.728,-198.079C121.537,-197.174 126.233,-195.888 130.837,-194.233C133.979,-192.637 136.965,-190.836 139.852,-188.834C143.127,-186.044 146.24,-183.055 149.093,-179.836C150.53,-177.667 151.817,-175.423 152.982,-173.091C156.258,-164.105 158.356,-154.773 161.168,-145.618C162.891,-140.004 164.777,-134.426 166.156,-128.715C167.296,-123.994 168.208,-119.252 168.959,-114.466C169.997,-105.982 170.933,-97.476 172.32,-89.039C173.633,-81.075 175.195,-73.145 176.891,-65.25C178.52,-57.676 180.437,-50.172 181.98,-42.579C182.734,-38.864 183.457,-35.137 184.059,-31.395C184.359,-29.536 184.656,-27.676 184.93,-25.813C185.137,-24.422 185.336,-23.028 185.57,-21.641C186.309,-17.356 188.598,-13.262 190.258,-9.364C190.582,-8.61 190.922,-7.871 191.281,-7.133C192.848,-5.11 194.41,-3.086 195.973,-1.063C199.719,2.656 204.129,5.226 209.211,6.652C216.957,8.785 225.398,7.683 232.328,3.629C239.035,-0.297 244.051,-6.805 246.117,-14.301C246.473,-16.961 246.828,-19.618 247.187,-22.278C247.173,-27.142 246.067,-31.71 243.874,-35.983C243.058,-39.06 242.739,-42.246 242.23,-45.403C241.734,-48.477 241.203,-51.547 240.609,-54.606C239.379,-60.938 238,-67.231 236.496,-73.504C233.863,-84.521 231.557,-95.698 229.879,-106.913C228.772,-115.715 227.779,-124.531 226.379,-133.293C225.176,-140.801 223.219,-148.172 220.945,-155.418C218.676,-162.657 216.691,-169.954 214.633,-177.254C213.57,-181.008 212.484,-184.778 211.117,-188.438C208.91,-194.344 206.633,-200.336 203.551,-205.852C200.562,-211.2 196.711,-216.161 192.785,-220.817C190.328,-223.731 187.621,-226.43 184.824,-229.02C180.449,-233.071 175.637,-236.641 170.848,-240.184C168.023,-242.274 164.98,-244.145 161.84,-245.711C152.875,-250.18 143.352,-253.844 133.512,-255.817C123.191,-257.887 112.781,-258.629 102.297,-258.403C86.797,-258.071 71.344,-256.52 55.902,-255.274C40.852,-254.055 25.902,-252.129 10.777,-252.727C9.577,-252.775 8.38,-252.855 7.185,-252.958C0.813,-254.153 -5.325,-256.017 -11.38,-258.347C-13.501,-259.306 -15.601,-260.314 -17.633,-261.442C-19.867,-262.677 -21.996,-264.037 -24.073,-265.486C-29.127,-269.788 -33.859,-274.459 -38.516,-279.192C-43.636,-284.396 -48.59,-289.714 -53.285,-295.292C-56.09,-299.195 -58.696,-303.204 -61.137,-307.379C-63.504,-311.435 -65.516,-315.73 -67.427,-320.04C-70.396,-327.691 -72.829,-335.447 -74.777,-343.446C-76.543,-350.684 -77.967,-357.979 -79.119,-365.33C-80.719,-380.288 -81.395,-395.394 -80.762,-410.431C-80.422,-418.438 -79.832,-426.427 -79.242,-434.419C-78.693,-441.823 -78.144,-449.218 -77.27,-456.59C-75.632,-468.178 -73.706,-479.837 -70.402,-491.032C-68.348,-497.989 -65.969,-504.837 -63.574,-511.677C-61.503,-517.592 -59.384,-523.471 -57.05,-529.285C-51.34,-542.515 -45.47,-555.675 -39.301,-568.7C-35.969,-575.743 -32.902,-582.903 -29.477,-589.903C-25.98,-597.052 -22.203,-604.036 -18.344,-610.993C-14.488,-617.946 -10.711,-624.946 -7.145,-632.052C-3.527,-639.259 -0.133,-646.571 3.465,-653.79C6.98,-660.849 10.535,-667.888 14.164,-674.892C17.594,-681.517 21.609,-687.735 25.691,-693.966C27.652,-696.966 29.613,-699.977 31.387,-703.091C34.441,-708.446 36.863,-713.993 39.141,-719.739C41.902,-726.712 44.027,-733.903 45.484,-741.255C46.836,-748.056 47.832,-754.915 49.242,-761.708C50.527,-767.907 51.633,-774.114 52.117,-780.454C52.414,-784.306 52.141,-788.149 51.719,-791.977C51.563,-793.399 51.387,-794.821 51.215,-796.239C50.855,-798.895 50.5,-801.556 50.141,-804.216C48.715,-809.298 46.145,-813.708 42.426,-817.454C36.824,-823.052 29.137,-826.239 21.215,-826.239C13.289,-826.239 5.602,-823.052 0,-817.454" style="fill:rgb(70,0,0);fill-rule:nonzero;"/>
        </g>
        <g transform="matrix(1,0,0,1,554.883,712.823)">
            <path d="M0,-273.547C-4.277,-273.395 -8.699,-272.801 -12.824,-271.57C-18.222,-269.953 -23.585,-267.402 -28.273,-264.211C-34.757,-259.801 -40.753,-254.68 -46.371,-249.223C-55.664,-240.195 -64.05,-230.211 -71.066,-219.305C-83.902,-199.344 -95.539,-178.473 -102.917,-155.817C-106.984,-143.336 -109.171,-130.426 -110.019,-117.324C-110.351,-112.188 -109.886,-106.985 -109.41,-101.871C-108.695,-94.16 -107.824,-86.406 -106.25,-78.82C-105.222,-73.875 -103.664,-69.012 -101.914,-64.277C-100.21,-59.664 -98.269,-55.125 -96.187,-50.668C-95.191,-48.539 -94.085,-46.453 -92.816,-44.473C-84.691,-31.77 -72.785,-21.969 -59.5,-15.043C-54.937,-12.664 -50.167,-10.75 -45.417,-8.781C-43.082,-7.817 -40.687,-6.973 -38.242,-6.32C-33.207,-4.977 -28.082,-3.875 -22.929,-3.094C-9.972,-1.137 3.09,0.015 16.168,-1.305C23.754,-2.07 31.426,-3.195 38.809,-5.172C43.969,-6.551 49.074,-8.156 54.098,-9.965C66.633,-14.485 78.875,-19.84 89.746,-27.602C100.273,-35.117 110.445,-43.496 119.418,-52.844C124.742,-58.391 129.453,-64.625 133.906,-70.86C135.367,-72.902 136.793,-74.996 138.043,-77.176C140.645,-81.703 142.562,-86.258 144.602,-91.125C145.648,-93.621 146.539,-96.125 147.227,-98.746C148.496,-103.586 148.949,-108.902 149.539,-113.774C150.242,-119.547 149.461,-125.379 148.184,-131.043C147.832,-132.613 147.246,-134.141 146.629,-135.621C145.141,-139.192 143.816,-142.668 141.961,-146.016C140.32,-148.981 137.223,-152.637 135.437,-154.77C134.605,-155.766 133.781,-156.785 132.828,-157.672C129.02,-161.231 124.828,-164.383 120.563,-167.379C118.473,-168.848 116.172,-169.918 113.852,-170.969C109.461,-172.953 104.758,-174.996 100.086,-176.402C94.777,-178 89.406,-179.172 83.961,-180.195C78.793,-181.168 73.531,-181.731 68.309,-182.332C65.727,-182.629 63.137,-182.902 60.543,-183.082C49.918,-183.824 39.082,-184.418 28.445,-183.66C20.43,-183.09 12.469,-181.781 4.652,-179.938C-0.266,-178.777 -5.289,-177.274 -9.976,-175.383C-18.139,-172.087 -26.135,-168.54 -33.911,-164.523C-32.293,-167.469 -30.623,-170.391 -28.902,-173.297C-24.56,-180.631 -20.137,-187.892 -15.212,-194.839C-9.813,-201.234 -3.893,-207.266 2.476,-212.694C2.838,-212.939 3.202,-213.179 3.57,-213.414C4.375,-213.346 5.181,-213.255 5.993,-213.155C6.347,-213.107 6.701,-213.06 7.055,-213.012C12.469,-213.031 17.516,-214.395 22.195,-217.109C28.902,-221.035 33.918,-227.543 35.98,-235.039C38.113,-242.781 37.012,-251.223 32.957,-258.156C31.395,-260.18 29.828,-262.203 28.266,-264.227C24.523,-267.945 20.109,-270.516 15.027,-271.942C11.156,-272.473 7.258,-273.113 3.352,-273.449C2.523,-273.522 1.699,-273.562 0.87,-273.562C0.581,-273.562 0.291,-273.557 0,-273.547" style="fill:rgb(70,0,0);fill-rule:nonzero;"/>
        </g>
        <g transform="matrix(1,0,0,1,453.565,903.152)">
            <path d="M0,-314.228C0.047,-314.269 0.093,-314.31 0.14,-314.351C0.083,-314.301 0.037,-314.26 0,-314.228M15.503,-323.23C12.625,-322.71 10.05,-321.128 7.41,-319.886C5.506,-318.993 -1.007,-313.34 0,-314.228C-0.18,-314.07 -0.36,-313.912 -0.54,-313.753C-1.579,-312.847 -2.512,-311.792 -3.352,-310.707C-4.915,-308.683 -6.481,-306.66 -8.043,-304.636C-10.758,-299.957 -12.122,-294.91 -12.137,-289.496C-12.137,-288.31 -12.066,-287.13 -11.926,-285.961C-13.563,-282.565 -15.203,-279.169 -16.79,-275.753C-22.399,-263.675 -27.622,-251.433 -31.645,-238.73C-34.942,-228.312 -37.887,-217.8 -40.747,-207.253C-44.239,-194.378 -47.231,-181.46 -48.887,-168.21C-50.282,-157.058 -50.411,-145.91 -50.227,-134.683C-50.179,-131.7 -50.109,-128.717 -50.012,-125.735C-50.628,-120.773 -51.139,-115.816 -51.356,-110.792C-51.586,-105.484 -51.516,-100.195 -51.274,-94.886C-51.047,-89.933 -50.684,-84.937 -50.028,-80.023C-48.989,-72.261 -48.094,-64.527 -46.059,-56.957C-43.383,-46.992 -38.758,-37.398 -32.836,-28.949C-29.102,-23.617 -25.168,-18.386 -20.797,-13.558C-20.613,-13.354 -20.427,-13.151 -20.242,-12.949C-19.612,-11.994 -18.982,-11.036 -18.348,-10.082C-16.247,-6.894 -13.766,-3.941 -11.329,-0.999C-10.629,-0.152 -9.868,0.61 -8.997,1.286C-6.973,2.848 -4.95,4.415 -2.926,5.977C1.753,8.692 6.8,10.055 12.214,10.071C14.875,9.715 17.531,9.36 20.191,9.001C25.273,7.575 29.683,5.004 33.429,1.286C33.476,1.243 33.523,1.2 33.57,1.161C37.289,-2.585 39.863,-6.996 41.289,-12.078C42.714,-17.394 42.714,-22.71 41.289,-28.027C39.957,-31.972 38.664,-34.871 36.464,-38.003C35.816,-38.933 35.144,-39.844 34.464,-40.749C32.45,-43.437 30.413,-46.155 28.243,-48.749C26.199,-52.453 24.37,-56.281 22.621,-60.139C20.101,-66.828 17.849,-73.541 15.839,-80.425C14.229,-85.951 13.151,-91.64 12.205,-97.332C12.144,-98.424 12.024,-99.512 11.846,-100.59C11.768,-101.427 11.655,-102.263 11.504,-103.094C11.502,-103.107 11.5,-103.12 11.499,-103.132C11.403,-104.231 11.246,-105.326 11.028,-106.411C10.812,-108.917 10.676,-111.429 10.515,-113.937C10.299,-117.38 10.165,-120.829 10.053,-124.276C10.522,-126.677 11.048,-129.068 11.636,-131.449C12.652,-135.548 13.974,-139.522 15.479,-143.445C19.418,-152.064 23.823,-160.455 28.847,-168.499C33.581,-176.079 38.933,-183.332 44.344,-190.464C50.224,-197.874 56.325,-205.022 62.902,-211.847C66.562,-215.648 70.261,-219.417 73.812,-223.32C77.429,-227.292 80.867,-231.429 84.484,-235.398C87.854,-239.093 91.261,-242.66 94.981,-245.95C95.856,-246.522 96.745,-247.07 97.656,-247.584C99.4,-248.128 101.174,-248.57 102.969,-248.897C103.789,-249.007 104.607,-249.117 105.425,-249.226C110.507,-250.652 114.921,-253.226 118.664,-256.941C124.265,-262.542 127.453,-270.23 127.453,-278.156C127.453,-286.082 124.265,-293.769 118.664,-299.371L112.593,-304.058C107.914,-306.773 102.867,-308.14 97.453,-308.156C91.589,-307.644 86.042,-306.828 80.492,-305.031C75.417,-303.39 70.285,-301.332 65.757,-298.468C61.472,-295.753 57.375,-292.644 53.55,-289.32C53.525,-289.298 53.5,-289.276 53.476,-289.254C53.674,-290.803 53.775,-292.355 53.792,-293.855C53.917,-304.718 47.804,-314.648 38.621,-320.203C36.234,-321.21 33.843,-322.222 31.457,-323.23C28.798,-323.943 26.139,-324.299 23.48,-324.299C20.821,-324.299 18.162,-323.943 15.503,-323.23" style="fill:rgb(70,0,0);fill-rule:nonzero;"/>
        </g>
        <g transform="matrix(1,0,0,1,651.799,1040.35)">
            <path d="M0,-283.538C-7.766,-283.112 -15.48,-282.003 -23.164,-280.831C-28.461,-280.022 -33.75,-279.116 -38.992,-277.979C-44.09,-276.874 -49.141,-275.511 -54.219,-274.304C-64.43,-271.866 -74.785,-270.358 -85.07,-268.292C-95.508,-266.19 -105.879,-263.784 -116.309,-261.643C-126.98,-259.452 -137.547,-257.085 -148.043,-254.159C-158.477,-251.249 -168.883,-248.327 -179.359,-245.581C-187.129,-243.542 -194.754,-240.905 -202.637,-239.311C-206.414,-238.55 -210.211,-237.944 -213.937,-236.96C-217.039,-236.14 -221.492,-234.022 -223.68,-232.991C-225.074,-232.335 -226.363,-231.569 -227.633,-230.698C-230.437,-228.776 -233.152,-226.538 -235.766,-224.456C-237.523,-223.054 -239.242,-221.612 -240.922,-220.116C-246.676,-214.987 -249.707,-206.44 -249.707,-198.901C-249.707,-190.975 -246.523,-183.288 -240.922,-177.69C-235.32,-172.089 -227.633,-168.901 -219.707,-168.901C-217.051,-169.261 -214.391,-169.616 -211.73,-169.972C-206.648,-171.397 -202.238,-173.972 -198.496,-177.69C-197.838,-178.275 -197.175,-178.851 -196.506,-179.419C-196.411,-179.482 -196.315,-179.544 -196.219,-179.605C-192.054,-180.703 -187.67,-181.202 -183.516,-182.155C-178.344,-183.343 -173.305,-184.999 -168.195,-186.417C-157.777,-189.311 -147.289,-191.929 -136.895,-194.921C-126.328,-197.96 -115.738,-200.612 -104.969,-202.839C-94.758,-204.952 -84.59,-207.268 -74.379,-209.362C-64.02,-211.487 -53.512,-212.929 -43.211,-215.296C-32.68,-217.718 -22.273,-220.475 -11.609,-222.272C-10.132,-222.522 -8.65,-222.755 -7.167,-222.98C-3.084,-223.442 1.035,-223.747 5.131,-223.617C7.734,-223.009 10.301,-222.226 12.821,-221.325C14.461,-220.484 16.044,-219.564 17.593,-218.557C22.305,-214.492 26.653,-209.998 30.649,-205.225C35.499,-198.244 39.462,-190.692 43.017,-182.973C46.362,-174.304 49.133,-165.447 51.965,-156.593C55.168,-146.57 58.82,-136.703 62.07,-126.695C65.293,-116.757 67.105,-106.343 69.465,-96.179C71.82,-86.031 73.93,-75.835 76.188,-65.667C78.055,-57.242 80.219,-48.902 82.543,-40.593C83.617,-36.757 84.699,-32.921 85.945,-29.14C87.238,-25.222 88.777,-21.296 90.734,-17.679C95.082,-9.652 103.5,-3.593 112.352,-1.624C117.539,-0.468 123.594,0.102 129.027,-0.562C131.687,-0.921 134.344,-1.277 137.004,-1.636C142.086,-3.062 146.496,-5.632 150.242,-9.351C155.844,-14.953 159.027,-22.64 159.027,-30.562C159.027,-38.488 155.84,-46.175 150.242,-51.777C148.219,-53.339 146.191,-54.906 144.168,-56.468C142.759,-57.287 141.316,-57.981 139.839,-58.554C138.499,-63.359 137.223,-68.178 136.031,-73.023C133.539,-83.163 131.633,-93.441 129.293,-103.621C126.918,-113.937 124.645,-124.277 122.18,-134.57C119.742,-144.753 115.793,-154.503 112.488,-164.413C109.078,-174.643 106.039,-184.995 102.34,-195.124C99.715,-202.319 96.734,-209.405 93.387,-216.292C91.121,-220.952 88.789,-225.604 86.055,-230.007C79.266,-240.929 70.965,-251.061 61.457,-259.733C57.82,-263.05 53.773,-266.229 49.809,-269.054C47.68,-270.569 45.508,-271.925 43.195,-273.143C38.801,-275.464 34.082,-277.3 29.395,-278.96C27.012,-279.804 24.602,-280.554 22.16,-281.21C16.206,-282.809 9.945,-283.64 3.745,-283.64C2.493,-283.64 1.244,-283.606 0,-283.538" style="fill:rgb(70,0,0);fill-rule:nonzero;"/>
        </g>
        <g transform="matrix(1,0,0,1,609.585,960.672)">
            <path d="M0,-173.297C-2.945,-173.188 -5.863,-172.977 -8.805,-172.738C-16.484,-172.117 -24.211,-171.008 -31.828,-169.899C-33.848,-169.602 -35.867,-169.305 -37.883,-168.988C-38.777,-168.848 -39.668,-168.692 -40.563,-168.543C-44.746,-167.844 -48.59,-166.192 -52.371,-164.184C-59.102,-160.613 -64.168,-153.488 -66.16,-146.254C-66.348,-145.572 -66.51,-144.885 -66.648,-144.194C-68.074,-143.724 -69.5,-143.25 -70.926,-142.775C-88.368,-138.702 -105.871,-134.952 -123.426,-131.34C-127.727,-130.457 -132.02,-129.527 -136.312,-128.617C-138.312,-128.195 -140.297,-127.692 -142.285,-127.223C-143.332,-126.977 -144.375,-126.731 -145.422,-126.484C-146.547,-126.219 -147.672,-125.922 -148.781,-125.594C-153.281,-124.267 -156.234,-122.758 -159.233,-120.657C-163.381,-122.738 -167.998,-123.859 -172.699,-123.859C-180.625,-123.859 -188.312,-120.672 -193.914,-115.074C-195.476,-113.047 -197.039,-111.024 -198.605,-109C-201.316,-104.32 -202.683,-99.274 -202.699,-93.859C-203.214,-83.731 -202.359,-73.856 -200.597,-63.852C-199.953,-60.188 -198.656,-56.629 -197.23,-53.207C-194.878,-47.543 -192.613,-41.871 -189.351,-36.664C-182.921,-26.399 -174.562,-17.684 -164.105,-11.488C-162.535,-10.555 -160.875,-9.777 -159.199,-9.055C-155.445,-7.43 -151.719,-5.746 -147.82,-4.508C-141.816,-2.602 -135.363,-2 -129.168,-1.223C-118.855,0.074 -108.609,-1.426 -98.398,-2.887C-90.707,-3.985 -83.133,-5.926 -75.746,-8.313C-68.457,-10.668 -61.469,-13.735 -54.406,-16.672C-42.676,-21.547 -31.227,-27.203 -20.117,-33.371C-10.465,-38.727 -0.711,-44.035 8.402,-50.289C14.973,-54.797 21.363,-59.57 27.5,-64.664C29.543,-66.359 31.609,-68.055 33.512,-69.91C37.625,-73.922 41.832,-78.129 44.648,-83.18C47.535,-88.356 48.73,-92.961 48.922,-98.883C49.02,-101.965 48.281,-105.008 47.766,-108.047C46.971,-112.73 44.104,-116.555 41.208,-120.123C41.977,-121.138 42.629,-122.169 43.113,-123.188C46.012,-129.285 47.172,-131.992 47.438,-138.813C47.559,-141.86 47.047,-144.922 46.246,-147.86C45.094,-152.09 41.555,-158.805 38.086,-161.695C35.547,-163.813 33.121,-166.207 30.102,-167.582C26.426,-169.258 23.023,-170.891 19.129,-171.656C15.148,-172.434 11.09,-172.899 7.043,-173.231C5.814,-173.333 4.583,-173.371 3.352,-173.371C2.234,-173.371 1.117,-173.339 0,-173.297" style="fill:rgb(70,0,0);fill-rule:nonzero;"/>
        </g>
        <g transform="matrix(1,0,0,1,562.86,758.142)">
            <path d="M0,-150.42C-2.027,-148.858 -4.051,-147.291 -6.074,-145.729C-9.793,-141.986 -12.363,-137.572 -13.789,-132.49C-13.917,-131.759 -14.074,-131.056 -14.281,-130.363C-15.046,-128.589 -15.793,-126.809 -16.5,-125.01C-17.16,-123.322 -17.707,-121.623 -18.031,-119.834C-18.805,-115.545 -19.285,-111.463 -19.422,-107.182C-19.43,-106.945 -19.439,-106.71 -19.451,-106.474C-19.916,-104.259 -20.481,-102.062 -21.109,-99.897C-21.182,-99.649 -21.26,-99.403 -21.344,-99.159C-21.442,-99.236 -21.542,-99.312 -21.641,-99.389C-26.32,-102.104 -31.367,-103.467 -36.781,-103.486C-47.477,-104.783 -58.793,-103.315 -69.336,-101.482C-74.578,-100.572 -80.004,-99.772 -85.047,-98.022C-92.75,-95.354 -100.336,-92.256 -107.574,-88.506C-110.141,-87.178 -112.574,-85.69 -115.043,-84.19C-119.055,-81.756 -122.781,-78.635 -126.445,-75.779C-129.316,-73.541 -132.008,-71.131 -134.332,-68.326C-136.664,-65.514 -139.504,-62.158 -141.293,-58.756C-144.73,-52.229 -145.73,-47.822 -146.348,-40.565C-146.68,-36.697 -145.953,-32.674 -144.937,-28.947C-143.07,-22.08 -139.719,-17.842 -135.277,-12.486C-134.773,-11.881 -134.168,-11.373 -133.57,-10.869C-131.402,-9.049 -128.691,-6.912 -126.137,-5.233C-122.824,-3.053 -118.77,-1.818 -115.195,-0.33C-113.547,0.357 -111.781,0.767 -110.043,1.158C-105.66,2.139 -101.152,2.588 -96.699,3.068C-87.238,4.088 -77.449,2.873 -68.117,1.373C-65.402,0.939 -62.621,0.642 -59.93,0.06C-54.742,-1.065 -49.418,-2.045 -44.383,-3.764C-36.77,-6.361 -29.316,-9.295 -22.023,-12.717C-16.949,-15.1 -12.07,-17.756 -7.223,-20.568C-0.426,-24.51 5.766,-29.611 11.809,-34.568C17.508,-39.248 22.395,-45.502 26.598,-51.455C29.745,-55.915 31.839,-60.898 33.836,-65.938C34.132,-66.436 34.439,-66.924 34.707,-67.447C35.953,-69.873 36.898,-72.451 37.898,-74.99C39.206,-78.328 39.394,-85.887 38.3,-90.082C38.413,-90.586 38.522,-91.091 38.629,-91.596C39.59,-96.123 40.164,-100.764 40.484,-105.377C40.517,-105.84 40.54,-106.303 40.559,-106.767C40.577,-106.825 40.596,-106.883 40.614,-106.942C42.074,-110.043 43.482,-113.175 44.066,-116.541C44.426,-119.197 44.781,-121.858 45.141,-124.514C45.125,-129.932 43.758,-134.979 41.043,-139.658C37.117,-146.365 30.613,-151.381 23.113,-153.443C20.523,-154.157 17.854,-154.508 15.19,-154.508C9.892,-154.508 4.611,-153.118 0,-150.42" style="fill:rgb(70,0,0);fill-rule:nonzero;"/>
        </g>
        <g transform="matrix(1,0,0,1,671.5,1055.97)">
            <path d="M0,-258.119C-4.973,-258.076 -10.121,-257.228 -14.961,-256.396C-16.348,-256.158 -17.75,-255.971 -19.117,-255.65C-19.299,-255.608 -19.479,-255.565 -19.661,-255.521C-23.605,-255.099 -27.551,-254.458 -31.422,-253.717C-34.82,-253.068 -38.082,-252.205 -41.379,-251.154C-46.754,-249.443 -52.238,-247.236 -57.309,-244.865C-58.949,-244.099 -60.613,-243.365 -62.223,-242.533C-64.086,-241.576 -65.898,-240.506 -67.559,-239.224C-74.434,-233.928 -74.086,-234.799 -79.207,-227.74C-82.59,-223.076 -83.301,-217.201 -83.645,-211.674C-84.117,-203.99 -80.172,-195.775 -74.855,-190.459C-74.736,-190.368 -74.618,-190.276 -74.5,-190.184C-80.746,-185.43 -86.966,-180.643 -93.168,-175.834C-101.155,-169.726 -109.228,-163.799 -117.715,-158.373C-126.563,-152.717 -135.715,-147.522 -144.98,-142.588C-150.471,-139.663 -156.018,-136.84 -161.672,-134.244C-163.009,-133.743 -164.357,-133.276 -165.738,-132.897C-167.15,-132.51 -168.575,-132.19 -170.007,-131.897C-173.614,-131.642 -177.197,-131.635 -180.895,-131.948C-183.551,-131.592 -186.211,-131.237 -188.867,-130.877C-193.949,-129.452 -198.363,-126.881 -202.105,-123.162C-207.707,-117.561 -210.895,-109.873 -210.895,-101.948C-210.895,-94.026 -207.707,-86.338 -202.105,-80.737C-200.082,-79.174 -198.059,-77.608 -196.035,-76.045C-191.355,-73.33 -186.309,-71.967 -180.895,-71.948C-176.625,-71.588 -172.332,-71.44 -168.07,-71.998C-162.711,-72.702 -157.332,-73.256 -152.059,-74.467C-149.551,-75.045 -147.121,-75.823 -144.723,-76.764C-139.82,-78.69 -134.953,-80.733 -130.187,-82.983C-120.578,-87.522 -111.176,-92.506 -101.973,-97.815C-93.848,-102.494 -85.801,-107.354 -78.121,-112.737C-69.166,-119.01 -60.557,-125.763 -51.934,-132.482C-44.527,-138.147 -37.064,-143.736 -29.578,-149.295C-20.812,-155.811 -12.199,-162.6 -2.941,-168.416C-0.395,-170.016 2.187,-171.554 4.788,-173.056C5.481,-171.555 6.157,-170.046 6.822,-168.533C10.353,-159.668 13.323,-150.679 15.035,-141.256C16.004,-135.928 16.898,-130.592 18.117,-125.315C19.27,-120.33 20.875,-115.444 22.277,-110.526C25.129,-100.549 27.445,-90.448 31.055,-80.698C35.531,-68.588 40.492,-56.584 46.035,-44.92C48.164,-40.432 50.441,-36.045 53.211,-31.916C56.02,-27.737 59.168,-23.705 62.566,-19.979C65.922,-16.299 70.109,-13.354 74.27,-10.639C75.371,-9.92 76.539,-9.315 77.711,-8.721C80.945,-7.08 84.313,-5.584 87.762,-4.475C90.238,-3.678 92.77,-3.178 95.348,-2.823C102.988,-1.76 110.895,-0.369 118.656,-0.186C126.629,0.002 134.645,-1.459 142.465,-2.881C147.637,-3.823 152.652,-5.096 157.559,-7.002C165.031,-9.909 171.863,-13.131 178.316,-17.838C182.078,-20.58 186.402,-23.682 189.703,-27.159C193.211,-30.854 196.457,-34.932 199.156,-39.244C201.758,-43.397 203.598,-48.151 205.207,-52.729C205.609,-53.873 205.945,-55.03 206.211,-56.213C206.941,-59.483 207.273,-62.854 207.547,-66.19C208.059,-72.323 205.727,-79.268 202.785,-84.53C198.133,-92.846 189.137,-98.53 180.152,-101.073C178.871,-101.432 177.594,-101.752 176.285,-101.983C171.141,-102.893 165.934,-103.557 160.727,-103.967C155.391,-104.385 150.023,-104.526 144.68,-104.256C143.473,-104.194 142.246,-104.037 141.047,-103.881C137.035,-103.346 133.012,-102.862 129.012,-102.241C126.289,-101.819 123.578,-101.33 120.875,-100.807C117.477,-100.147 114.102,-99.377 110.742,-98.557C109.055,-98.143 107.383,-97.682 105.715,-97.194C105.324,-97.08 104.941,-96.963 104.547,-96.869C102.031,-95.862 99.535,-94.807 97.059,-93.702C95.002,-92.786 93.21,-91.345 91.608,-89.681C89.008,-96.355 86.616,-103.093 84.59,-109.987C83.102,-115.049 81.875,-120.186 80.469,-125.272C79.07,-130.327 77.488,-135.334 76.188,-140.416C73.625,-150.452 72.715,-160.811 69.637,-170.733C68.066,-175.795 66.219,-180.752 64.211,-185.654C61.41,-192.499 58.546,-199.355 55.316,-206.014C56.131,-207.717 56.804,-209.49 57.293,-211.306C59.133,-218.127 58.316,-220.74 57.301,-227.56C56.914,-230.158 54.238,-235.115 54.145,-235.33C52.918,-238.142 50.809,-240.76 48.426,-242.717C41.957,-248.025 41.473,-248.123 33.625,-251.221C31.488,-252.068 29.227,-252.631 27.027,-253.291C24.77,-253.971 22.547,-254.744 20.289,-255.416C19.098,-255.775 17.875,-256.017 16.656,-256.264C11.374,-257.328 5.911,-258.121 0.5,-258.121C0.333,-258.121 0.167,-258.12 0,-258.119" style="fill:rgb(70,0,0);fill-rule:nonzero;"/>
        </g>
        <g transform="matrix(1,0,0,1,617.324,1220.64)">
            <path d="M0,-313.71C-7.598,-313.28 -15.23,-312.347 -22.672,-310.765C-30.863,-309.026 -38.91,-306.46 -46.938,-304.101C-48.848,-303.538 -50.758,-302.933 -52.605,-302.19C-56.926,-300.464 -61.414,-298.851 -65.367,-296.335C-69.348,-293.8 -73.277,-290.823 -76.445,-287.288C-79.348,-284.054 -81.996,-280.503 -84.316,-276.815C-85.594,-274.788 -86.773,-272.722 -87.801,-270.554C-88.809,-268.167 -89.82,-265.776 -90.828,-263.39C-92.254,-258.073 -92.254,-252.753 -90.828,-247.437C-88.762,-239.94 -83.746,-233.437 -77.039,-229.511C-70.109,-225.452 -61.668,-224.351 -53.922,-226.483C-51.535,-227.491 -49.145,-228.503 -46.758,-229.511C-42.25,-232.175 -38.66,-235.765 -35.996,-240.272C-35.131,-242.089 -34.173,-243.862 -33.124,-245.579C-28.644,-247.075 -24.054,-248.278 -19.52,-249.565C-14.384,-251.026 -9.241,-252.443 -3.999,-253.435C2.266,-254.043 8.635,-254.293 14.91,-253.881C15.314,-253.785 15.716,-253.683 16.118,-253.574C16.414,-253.401 16.707,-253.225 16.999,-253.043C20.185,-250.184 23.151,-247.027 25.909,-243.758C28.29,-240.397 30.504,-236.923 32.656,-233.405C34.899,-229.747 37.172,-226.102 39.125,-222.284C42.115,-213.953 44.148,-205.236 46.477,-196.722C49.184,-186.827 51.715,-176.886 54.398,-166.983C57.992,-153.743 60.334,-140.109 62.289,-126.513C63.365,-117.195 63.916,-107.83 65.121,-98.526C66.565,-87.398 68.485,-76.379 70.355,-65.328C69.921,-64.729 69.492,-64.127 69.066,-63.523C66.016,-59.187 63.871,-53.769 62.188,-48.909C60.961,-45.355 60.395,-41.257 60.805,-37.495C61.547,-30.694 62.266,-25.722 65.984,-19.737C66.992,-18.108 69.723,-14.577 71.684,-12.483C73.805,-10.218 76.57,-8.624 79.027,-6.726C79.664,-6.237 80.395,-5.87 81.109,-5.515C84.023,-4.062 87.07,-2.835 90.145,-1.749C93.867,-0.437 98.145,-0.327 101.949,0.114C103.676,0.313 105.445,0.161 107.164,-0.034C112.086,-0.597 116.82,-1.21 121.57,-2.468C124.18,-3.159 126.723,-4.069 129.266,-4.968C133.918,-6.616 138.496,-8.573 142.973,-10.651C145.562,-11.855 148.109,-13.105 150.605,-14.495C157.117,-18.124 163.32,-22.73 168.871,-27.655C174.699,-32.831 179.785,-38.487 184.312,-44.87C185.707,-46.835 186.918,-48.839 187.996,-50.995C189.703,-54.412 191.349,-58.092 192.542,-61.826C193.895,-64.65 195.303,-67.605 195.993,-70.687C197.52,-77.487 197.692,-83.679 196.071,-90.483C192.793,-104.245 180.785,-114.261 167.277,-117.14C163.195,-118.007 159.004,-118.55 154.84,-118.8C153.23,-118.898 151.617,-118.757 150.023,-118.558C145.703,-118.015 141.437,-117.589 137.242,-116.483C132.603,-115.26 128.164,-113.25 123.774,-111.28C123.234,-117.186 122.739,-123.096 121.988,-128.98C120.348,-141.866 118.254,-154.651 115.852,-167.413C113.988,-177.315 111.082,-186.956 108.617,-196.714C106.066,-206.827 103.195,-216.866 100.41,-226.913C99.012,-231.956 97.621,-237.003 95.617,-241.851C93.637,-246.636 91.766,-251.276 89.234,-255.757C88.016,-257.917 86.695,-260.019 85.41,-262.136C78.871,-272.929 71.57,-283.3 62.66,-292.284C60.82,-294.14 58.941,-295.944 56.938,-297.62C53.332,-300.632 49.355,-304.042 45.031,-306.19C40.492,-308.444 35.805,-310.519 30.887,-311.776C25.855,-313.065 20.543,-313.495 15.359,-313.839C13.387,-313.971 11.411,-314.023 9.434,-314.023C6.288,-314.023 3.141,-313.888 0,-313.71" style="fill:rgb(70,0,0);fill-rule:nonzero;"/>
        </g>
        <g transform="matrix(1,0,0,1,521.388,838.152)">
            <path d="M0,-98.687C0.131,-97.721 0.261,-96.755 0.391,-95.789C0.261,-96.755 0.13,-97.721 0,-98.687M-26.41,-170.488C-35.703,-168.636 -43.277,-161.539 -48.098,-153.75C-50.539,-149.796 -52.035,-145.253 -53.621,-140.894C-54.313,-138.992 -54.891,-137.05 -55.418,-135.097C-55.833,-133.561 -56.201,-132.015 -56.531,-130.463C-56.859,-130.385 -57.188,-130.303 -57.516,-130.214C-64.926,-128.171 -71.633,-123.144 -75.441,-116.429C-76.949,-113.773 -78.246,-110.96 -78.98,-107.996C-79.574,-105.589 -79.902,-101.695 -80.199,-98.675C-80.273,-97.957 -80.316,-97.23 -80.375,-96.511C-80.48,-95.246 -80.531,-93.976 -80.598,-92.71C-80.742,-89.929 -80.727,-87.128 -80.77,-84.343C-80.852,-79.179 -80.828,-74.011 -80.645,-68.851C-80.359,-60.898 -79.656,-53.007 -78.383,-45.144C-77.938,-42.374 -77.453,-39.64 -76.875,-36.894C-74.711,-26.609 -67.699,-18.718 -60.883,-11.16C-59.086,-9.167 -57.262,-7.214 -55.277,-5.41C-54.272,-4.633 -53.267,-3.857 -52.262,-3.081C-51.925,-2.071 -51.592,-1.06 -51.266,-0.046C-47.883,10.45 -44.809,21.012 -41.949,31.661C-41.176,34.54 -40.387,37.411 -39.578,40.282C-39.242,41.489 -38.848,42.684 -38.477,43.883C-35.59,53.266 -30.859,61.989 -22.105,67.114C-12.813,72.551 -0.375,72.891 8.813,66.977C13.695,63.833 17.879,59.856 20.566,54.618C22.25,51.336 23.66,47.875 24.781,44.356C25.172,43.137 25.383,41.852 25.59,40.594C26.23,36.731 26.758,32.793 27.102,28.876C28.258,15.848 25.117,3.02 21.832,-9.476C19.066,-20.007 16.527,-30.593 13.777,-41.128C11.016,-51.695 7.973,-62.183 5.047,-72.707C3.484,-78.332 2.32,-84.027 1.266,-89.761C1.185,-90.207 1.103,-90.648 1.021,-91.089C0.473,-95.519 0.603,-100.091 0.621,-104.539C0.632,-107.41 0.818,-110.275 1.065,-113.134C1.198,-113.813 1.337,-114.49 1.483,-115.165C5.529,-117.723 8.961,-121.234 11.398,-125.398C19.5,-139.246 14.938,-158.55 0.637,-166.445C-2.227,-168.027 -5.332,-169.195 -8.406,-170.296C-10.992,-171.225 -13.816,-171.578 -16.663,-171.578C-19.996,-171.578 -23.359,-171.095 -26.41,-170.488" style="fill:rgb(70,0,0);fill-rule:nonzero;"/>
        </g>
        <g transform="matrix(1,0,0,1,528.713,910.532)">
            <path d="M0,-287.787C-2.91,-287.564 -5.805,-287.189 -8.68,-286.658C-13.707,-285.271 -18.758,-282.221 -22.445,-278.537C-24.153,-276.829 -25.632,-274.936 -26.872,-272.908C-28.395,-271.285 -29.741,-269.486 -30.91,-267.51C-31.918,-265.123 -32.926,-262.732 -33.934,-260.346C-35.363,-255.029 -35.363,-249.709 -33.934,-244.392C-33.836,-243.728 -33.57,-243.135 -33.316,-242.514C-32.34,-240.127 -31.098,-236.849 -29.758,-234.217C-29.238,-233.2 -28.688,-232.205 -28.117,-231.218C-25.115,-222.561 -22.831,-213.615 -20.699,-204.744C-18.184,-194.291 -15.949,-183.787 -14.41,-173.135C-13.992,-170.237 -13.573,-167.337 -13.155,-164.438C-12.373,-158.331 -11.591,-152.202 -11.09,-146.065C-17.653,-145.23 -23.846,-142.226 -28.555,-137.514C-30.121,-135.49 -31.684,-133.467 -33.246,-131.443C-35.961,-126.764 -37.324,-121.717 -37.344,-116.303C-37.793,-110.779 -38.113,-105.244 -38.254,-99.705C-38.387,-94.553 -37.789,-89.275 -37.246,-84.162C-36.23,-74.557 -34.758,-65.478 -29.879,-56.9C-28.148,-53.861 -25.578,-50.904 -23.102,-48.299C-19.09,-44.084 -13.434,-40.744 -7.855,-39.119C-6.335,-38.678 -4.742,-38.296 -3.126,-38.027C-4.116,-31.179 -4.565,-30.067 -2.957,-22.525C-2.379,-19.81 -1.18,-17.217 0.266,-14.846C4.34,-8.154 10.586,-3.154 18.191,-1.06C20.945,-0.365 23.727,-0.006 26.527,0.018C31.941,-0.002 36.988,-1.365 41.668,-4.08C42.77,-4.572 43.797,-5.287 44.762,-6.014C47.703,-8.232 50.738,-10.4 53.5,-12.857C55.383,-14.533 57.168,-16.307 58.816,-18.217C62.078,-22.006 65.297,-25.928 68.027,-30.111C71.152,-34.896 73.742,-39.787 75.973,-45.041C79.914,-54.334 83.523,-63.771 85.418,-73.725C86.117,-77.416 86.559,-81.154 87.066,-84.877C88.164,-92.908 89.191,-100.865 89.285,-108.978C89.34,-113.775 89.086,-118.56 88.699,-123.342C88.473,-126.185 88.383,-129.084 88.008,-131.916C86.949,-139.889 86.082,-147.924 84.594,-155.826C82.574,-166.537 79.656,-177.006 76.316,-187.377C74.672,-192.486 73.086,-197.666 71.141,-202.674C68.949,-208.299 66.68,-213.873 64.34,-219.439C61.344,-226.572 58.305,-233.771 54.781,-240.67C53.121,-243.924 51.363,-247.127 49.465,-250.248C46.254,-255.533 42.465,-260.392 38.645,-265.252C36.469,-268.021 34.145,-270.646 31.574,-273.057C28.676,-275.779 25.34,-278.142 22.172,-280.478C18.766,-282.99 14.652,-284.611 10.738,-286.045C8.014,-287.04 2.772,-287.805 0.516,-287.805C0.32,-287.805 0.147,-287.799 0,-287.787" style="fill:rgb(70,0,0);fill-rule:nonzero;"/>
        </g>
        <g transform="matrix(1,0,0,1,542.976,617.282)">
            <path d="M0,-227.313C-1.523,-226.399 -3.055,-225.458 -4.48,-224.399C-6.219,-223.106 -9.719,-220.786 -11.691,-218.637C-16.207,-213.715 -17.254,-211.122 -19.602,-204.879C-20.236,-203.196 -20.427,-201.353 -20.554,-199.494C-21.247,-196.453 -22.167,-193.44 -22.973,-190.458C-24.359,-185.321 -25.855,-180.223 -27.531,-175.172C-29.187,-170.18 -30.867,-165.215 -31.809,-160.028C-33.199,-152.36 -34.121,-144.598 -33.598,-136.801C-33.223,-131.223 -32.664,-125.665 -32.242,-120.09C-31.816,-114.485 -31.695,-108.872 -31.562,-103.254C-31.437,-97.918 -31.18,-92.59 -30.793,-87.27C-30.207,-79.231 -29.016,-71.262 -27.906,-63.282C-26.922,-56.223 -25.055,-49.215 -23.121,-42.364C-20.125,-31.743 -16.566,-21.11 -10.406,-11.868C-8.84,-9.844 -7.277,-7.821 -5.715,-5.793C-1.969,-2.079 2.441,0.496 7.523,1.921C15.27,4.054 23.711,2.953 30.641,-1.106C37.348,-5.032 42.363,-11.536 44.43,-19.032C46.457,-26.403 45.738,-35.645 41.402,-42.149C40.143,-44.042 38.941,-45.934 37.886,-47.922C35.909,-53.499 34.428,-59.281 32.949,-64.981C31.636,-70.053 30.666,-75.167 29.852,-80.318C28.906,-90.471 28.527,-100.6 28.246,-110.801C28.094,-116.282 27.641,-121.731 27.141,-127.188C26.664,-132.407 26.129,-137.7 26.266,-142.942C26.29,-143.835 26.332,-144.719 26.386,-145.601C27.065,-148.732 27.89,-151.808 28.883,-154.883C30.184,-158.915 31.559,-162.915 32.777,-166.973C33.914,-170.766 34.922,-174.602 35.934,-178.43C36.1,-179.056 36.265,-179.682 36.428,-180.31C40.023,-183.933 42.689,-188.42 44.07,-193.434C46.203,-201.176 45.102,-209.622 41.047,-216.551C35.546,-225.948 25.249,-231.365 14.829,-231.366C9.733,-231.367 4.609,-230.072 0,-227.313" style="fill:rgb(70,0,0);fill-rule:nonzero;"/>
        </g>
    </g>
    <g id="Draw-Layer1" serif:id="Draw Layer" transform="matrix(1,0,0,1,-68,0)">
        <g transform="matrix(1,0,0,1,385.172,508.526)">
            <path d="M0,327.725C-0.1,327.74 -0.2,327.754 -0.3,327.766C-0.2,327.752 -0.1,327.739 0,327.725M137.849,-59.277C133.388,-59.156 128.786,-58.637 124.544,-57.203C122.896,-56.649 121.267,-56.215 119.583,-55.777C116.212,-54.899 111.896,-53.379 109.321,-51.774C107.229,-50.479 105.265,-48.996 103.432,-47.325C96.245,-44.332 89.204,-41.258 82.317,-37.641C77.56,-35.141 73.149,-31.973 68.833,-28.789C49.29,-14.375 31.7,2.531 16.208,21.211C7.853,31.281 0.048,41.848 -6.737,53.039C-12.362,62.324 -17.284,71.988 -21.534,81.976C-26.659,94.031 -31.663,106.172 -35.554,118.695C-38.894,129.449 -41.819,140.258 -44.312,151.238C-49.694,174.976 -53.323,199.203 -54.694,223.508C-55.3,234.246 -54.628,245.105 -54.132,255.836C-53.874,261.469 -53.323,267.086 -52.788,272.699C-52.065,280.273 -51.054,287.906 -49.659,295.387C-45.155,319.531 -37.444,342.863 -27.632,365.363C-24.636,372.239 -18.522,377.715 -12.214,381.489C-9.03,383.395 -5.394,385.067 -1.71,385.688C1.278,386.192 4.548,387.02 7.677,386.692C10.251,386.422 14.028,386.039 17.013,385.368C24.427,383.696 31.169,378.028 34.942,371.579C38.997,364.648 40.099,356.207 37.966,348.461C35.903,340.965 30.888,334.461 24.181,330.535C23.52,330.149 22.854,329.792 22.181,329.465C19.917,323.378 17.803,317.235 15.915,311.023C12.708,300.469 10.13,289.82 8.11,278.98C7.957,278.154 7.822,277.322 7.696,276.49C5.356,256.267 4.612,235.881 5.755,215.551C6.008,210.995 6.568,206.438 7.124,201.9C8.565,192.274 10.273,182.719 12.231,173.172C14.325,162.976 16.692,152.707 19.786,142.762C23.109,132.068 26.748,121.544 30.806,111.116C34.034,103.816 37.482,96.663 41.372,89.66C45.787,81.717 50.807,74.22 56.093,66.847C61.484,60.093 67.067,53.501 73.11,47.308C81.04,39.187 89.235,31.426 97.911,24.105C98.604,23.521 99.307,22.947 100.012,22.377C103.844,19.623 107.729,17.034 111.806,14.613C115.498,12.416 119.443,10.618 123.385,8.883C127.189,7.331 131.01,5.818 134.853,4.359C137.45,3.371 140.079,2.461 142.743,1.664C143.911,1.312 145.091,1 146.271,0.687C146.88,0.523 147.493,0.363 148.099,0.187C154.302,-1.57 157.415,-3.774 162.22,-7.871C165.938,-11.617 168.509,-16.027 169.935,-21.109C171.364,-26.43 171.364,-31.746 169.935,-37.063C169.435,-39.625 168.423,-42.031 166.899,-44.277C164.513,-48.359 160.306,-52.879 156.056,-55.082C149.974,-58.238 147.282,-58.777 140.372,-59.25C139.9,-59.283 139.427,-59.295 138.954,-59.295C138.585,-59.295 138.217,-59.288 137.849,-59.277" style="fill:rgb(70,0,0);fill-rule:nonzero;"/>
        </g>
        <g transform="matrix(1,0,0,1,671.597,1054.15)">
            <path d="M0,-190.875C-1.832,-191.087 -3.327,-191.214 -3.444,-191.219C-4.221,-191.262 -4.948,-191.227 -5.721,-191.145C-9.987,-190.688 -14.627,-190.336 -18.803,-189.004C-22.424,-187.844 -26.452,-186.313 -29.694,-184.106C-32.838,-181.961 -35.885,-179.5 -38.795,-177.004C-39.991,-175.977 -41.038,-174.782 -42.006,-173.543C-44.811,-169.973 -47.225,-167.125 -49.17,-163.223C-51.78,-157.981 -54.155,-152.508 -55.725,-146.852C-56.819,-142.903 -57.202,-138.293 -57.663,-134.411C-57.92,-132.262 -58.038,-130.118 -58.026,-127.954C-58.014,-126.086 -57.838,-124.223 -57.592,-122.375C-57.03,-118.133 -56.604,-113.969 -55.624,-109.829C-55.221,-108.118 -54.667,-106.45 -54.069,-104.801C-52.635,-100.833 -51.104,-96.79 -48.967,-93.133C-47.01,-89.786 -44.405,-86.778 -41.862,-83.868C-39.397,-81.051 -35.518,-78.458 -32.788,-76.422C-31.506,-75.473 -30.194,-74.668 -28.756,-73.981C-25.917,-72.622 -22.975,-71.461 -20.042,-70.313C-17.019,-69.127 -12.251,-68.9 -9.75,-68.608C-9.694,-61.916 -9.675,-55.221 -9.624,-48.528C-9.577,-42.165 -9.518,-35.797 -9.502,-29.434C-9.467,-13.083 4.115,0.566 20.498,0.566C36.822,0.566 50.533,-13.079 50.498,-29.434C50.443,-52.215 50.201,-74.997 49.794,-97.77C49.685,-104.036 49.107,-110.372 48.533,-116.61C48.304,-119.083 48.057,-121.573 47.772,-124.064C47.969,-125.043 48.143,-126.028 48.294,-127.016C49.251,-133.247 50.263,-139.387 49.482,-145.665C48.978,-149.723 48.619,-153.856 47.505,-157.809C46.431,-161.641 44.677,-165.305 42.943,-168.875C41.208,-172.446 38.244,-175.657 35.791,-178.602C35.248,-179.25 34.603,-179.793 33.951,-180.325C31.501,-182.325 28.708,-184.754 25.767,-186.329C19.595,-189.625 14.353,-191.008 7.404,-191.395C6.851,-191.426 6.304,-191.441 5.762,-191.441C3.777,-191.441 1.866,-191.24 0,-190.875" style="fill:rgb(70,0,0);fill-rule:nonzero;"/>
        </g>
        <g transform="matrix(1,0,0,1,570.017,1134.31)">
            <path d="M0,-130.092C0.02,-130.045 0.039,-130 0.058,-129.953C0.039,-129.999 0.02,-130.045 0,-130.092M68.102,-154.24C68.086,-154.233 68.072,-154.227 68.057,-154.22C68.055,-154.22 68.054,-154.219 68.052,-154.219C68.069,-154.227 68.085,-154.233 68.102,-154.24M-13.52,-211.233C-21.016,-209.17 -27.523,-204.155 -31.449,-197.447C-35.504,-190.518 -36.605,-182.076 -34.473,-174.33C-33.465,-171.94 -32.457,-169.553 -31.449,-167.162C-28.781,-162.655 -25.191,-159.069 -20.684,-156.401C-18.578,-155.432 -16.529,-154.444 -14.553,-153.301C-14.372,-153.114 -14.192,-152.926 -14.014,-152.736C-11.257,-148.732 -8.67,-144.577 -6.086,-140.487C-3.598,-136.549 -1.422,-132.451 0.581,-128.262C1.04,-126.919 1.595,-125.613 2.238,-124.355C2.313,-124.193 2.391,-124.03 2.469,-123.869C2.523,-123.725 2.576,-123.58 2.629,-123.436C3.477,-121.127 4.215,-118.779 4.898,-116.416C7.194,-108.51 8.651,-100.444 9.832,-92.319C10.986,-83.06 11.975,-73.789 12.863,-64.498C14.086,-51.783 15.488,-39.037 17.82,-26.471C19.727,-16.221 22.344,-6.178 26.039,3.576C28.734,10.697 31.586,17.849 35.234,24.541C36.414,26.701 37.781,28.791 39.254,30.76C42.188,34.685 45.133,38.685 48.352,42.396C53.266,48.064 59.422,52.517 65.594,56.732C69.898,59.666 74.152,62.658 78.418,65.646C82.359,68.4 86.504,71.01 90.922,72.935C95.539,74.955 100.094,76.924 104.871,78.467C107.184,79.217 109.492,79.967 111.793,80.752C114.539,81.685 119.945,82.213 121.297,82.213C128.016,82.213 130.934,80.549 136.918,77.904C138.941,76.342 140.965,74.779 142.988,73.213C146.707,69.47 149.281,65.06 150.703,59.974C151.516,57.127 151.957,54.135 151.875,51.17C151.727,45.873 150.613,41.912 148.738,37.322C146.82,32.635 144.781,28.025 142.664,23.431C142.308,22.66 141.952,21.888 141.593,21.117C141.88,20.852 142.163,20.582 142.441,20.303C148.039,14.701 151.227,7.013 151.227,-0.908C151.227,-8.881 148.02,-16.463 142.441,-22.123C141.402,-23.178 140.383,-24.259 139.395,-25.367C137.583,-28.258 136.119,-31.356 134.711,-34.47C131.417,-42.764 128.494,-51.178 126.188,-59.819C123.27,-70.737 120.879,-81.737 118.781,-92.838C117.484,-99.697 116.355,-106.592 115.168,-113.471C114.563,-116.975 113.887,-120.483 113.082,-123.947C112.508,-126.424 111.797,-128.869 110.82,-131.221C109.719,-133.889 108.461,-137.666 106.723,-140.416C103.73,-145.139 100.051,-149.139 95.188,-151.987C90.418,-154.779 84.305,-156.432 78.789,-156.432C74.204,-156.432 70.55,-155.545 66.764,-153.987C62.822,-153.226 59.802,-151.336 56.884,-149.104C56.336,-150.381 55.708,-151.624 55.003,-152.821C54.884,-153.096 54.765,-153.369 54.645,-153.643C52.535,-158.42 50.234,-163.08 47.648,-167.615C45.945,-170.608 43.965,-173.432 42.082,-176.315C40.266,-179.096 38.527,-181.936 36.637,-184.674C33.262,-189.565 29.652,-194.545 25.027,-198.346C21.668,-201.104 18.422,-203.631 14.691,-205.752C13.059,-206.682 11.305,-207.424 9.598,-208.209C7.211,-209.217 4.82,-210.225 2.434,-211.233C-0.225,-211.947 -2.884,-212.305 -5.543,-212.305C-8.202,-212.305 -10.861,-211.947 -13.52,-211.233" style="fill:rgb(70,0,0);fill-rule:nonzero;"/>
        </g>
    </g>
    <g id="Draw-Layer2" serif:id="Draw Layer" transform="matrix(0.997481,0.0709372,-0.0709372,0.997481,-176.361,29.1506)">
        <g transform="matrix(1,0,0,1,934.686,211.203)">
            <path d="M0,-108.74C-5.23,-99.627 -10.18,-90.439 -14.832,-81.017C-20.449,-69.642 -26.148,-57.998 -28.32,-45.408C-28.945,-41.799 -29.379,-38.154 -29.77,-34.513C-30.184,-30.674 -29.164,-26.271 -28.684,-22.732C-27.977,-17.517 -25.625,-12.494 -22.957,-7.99C-18.875,-1.099 -14.371,2.416 -8.059,7.069C-7.191,7.709 -6.234,8.198 -5.273,8.666C-2.168,10.186 1.496,11.729 4.949,12.783C5.977,13.096 7.043,13.283 8.098,13.467C11.512,14.057 15.578,14.768 19.246,14.701C24.145,14.612 29.43,13.752 34.027,11.854C37.609,10.369 41.117,9.057 44.441,7.139C47.75,5.237 50.684,2.631 53.617,0.237C57.277,-2.748 60.398,-7.244 63.063,-10.892C64.477,-12.834 65.668,-14.865 66.676,-17.049C68.738,-21.529 70.992,-26.431 72.297,-31.295C72.93,-33.646 73.492,-36.01 73.887,-38.412C74.711,-43.396 75.676,-48.447 75.711,-53.513C75.785,-63.42 73.199,-73.529 68.012,-82.006C67.047,-83.588 65.875,-85.06 64.801,-86.572C63.207,-88.806 61.504,-90.959 59.773,-93.084C59.738,-93.119 59.703,-93.158 59.668,-93.197C58.38,-94.21 57.087,-95.214 55.788,-96.213C55.636,-98.012 55.318,-99.806 54.832,-101.572C52.77,-109.068 47.754,-115.576 41.047,-119.502C36.408,-122.216 31.236,-123.507 26.1,-123.507C15.703,-123.508 5.443,-118.22 0,-108.74" style="fill:rgb(202,241,23);fill-rule:nonzero;"/>
        </g>
        <g transform="matrix(1,0,0,1,933.892,416.209)">
            <path d="M0,-139.414C-14.676,-123.781 -29.961,-108.75 -44.152,-92.668C-52.746,-82.93 -61.172,-72.816 -67.066,-61.184C-69.324,-56.726 -71.406,-52.055 -72.949,-47.316C-73.324,-46.168 -73.699,-45.012 -73.918,-43.816C-74.699,-39.551 -75.543,-35.078 -75.426,-30.695C-75.324,-26.922 -74.824,-23.055 -73.785,-19.414C-71.996,-13.16 -69.223,-8.711 -64.973,-3.91C-62.434,-1.043 -59.129,1.231 -55.844,3.203C-52.375,5.285 -48.352,6.996 -44.313,7.621C-41.383,8.074 -37.949,8.742 -34.785,8.762C-31.547,8.785 -28.336,7.984 -25.133,7.504C-24.402,7.395 -23.691,7.148 -23,6.914C-20.105,5.938 -17.352,4.574 -14.543,3.363C-13.129,2.754 -11.828,1.891 -10.57,1.008C-7.715,-0.988 -4.969,-3.164 -2.316,-5.426C-0.371,-7.086 1.359,-8.926 3.027,-10.859C6.387,-14.75 9.488,-18.922 12.152,-23.324C14.797,-27.695 17.055,-32.328 19.465,-36.832C21.93,-41.445 24.453,-46.043 26.523,-50.851C29.602,-58.008 32.5,-65.105 34.859,-72.519C35.734,-75.273 36.48,-78.074 37.148,-80.887C37.883,-83.973 38.188,-87.223 39.227,-90.223C39.718,-91.642 40.05,-93.129 40.239,-94.652C40.969,-95.431 41.698,-96.21 42.43,-96.988C47.93,-102.844 51.215,-110.066 51.215,-118.199C51.215,-126.125 48.027,-133.812 42.43,-139.414C36.828,-145.016 29.141,-148.199 21.215,-148.199C13.5,-148.199 5.344,-145.101 0,-139.414" style="fill:rgb(202,241,23);fill-rule:nonzero;"/>
        </g>
        <g transform="matrix(1,0,0,1,1029.98,473.584)">
            <path d="M0,-157.529C-2.023,-155.967 -4.051,-154.404 -6.074,-152.842C-9.789,-149.095 -12.363,-144.685 -13.789,-139.603C-14.211,-138.439 -14.651,-137.283 -15.104,-136.132C-17.062,-131.878 -19.204,-127.717 -21.254,-123.506C-23.586,-118.709 -25.68,-113.795 -27.789,-108.896C-30.922,-101.623 -33.957,-94.302 -36.793,-86.904C-38.613,-82.162 -40.566,-77.361 -41.848,-72.431C-43.836,-64.775 -44.797,-57.056 -45.816,-49.201C-46.152,-46.615 -46.145,-44.037 -45.941,-41.443C-45.254,-32.576 -43.617,-24.927 -39.164,-17.084C-37.293,-13.787 -34.832,-10.654 -32.016,-8.095C-29.27,-5.599 -26.148,-3.025 -22.73,-1.384C-19.637,0.1 -15.715,2.026 -12.07,2.627C-7.797,3.334 -3.578,4.092 0.734,3.748C6.504,3.291 12.363,2.381 17.926,0.698C19.094,0.342 20.23,-0.146 21.359,-0.607C24.27,-1.795 27.133,-2.978 29.969,-4.291C33.57,-5.959 36.613,-8.845 39.645,-11.271C42.336,-13.427 45.266,-17.845 46.855,-20.049C47.848,-21.424 48.684,-22.869 49.445,-24.384C51.316,-28.099 52.973,-32.049 54.363,-35.99C56.934,-43.271 57.773,-50.978 58.406,-58.646C58.824,-63.744 58.523,-68.912 58.23,-74.006C58.09,-76.517 57.887,-79.017 57.598,-81.517C57.043,-86.357 56.516,-91.674 55.227,-96.47C53.234,-103.877 49.68,-110.869 46.297,-117.732C45.3,-119.02 44.306,-120.307 43.311,-121.595C43.567,-122.279 43.821,-122.964 44.07,-123.65C44.426,-126.31 44.785,-128.967 45.141,-131.627C45.125,-137.041 43.758,-142.088 41.043,-146.767C37.117,-153.478 30.613,-158.49 23.117,-160.556C20.526,-161.27 17.857,-161.621 15.193,-161.621C9.893,-161.621 4.612,-160.23 0,-157.529" style="fill:rgb(202,241,23);fill-rule:nonzero;"/>
        </g>
        <g transform="matrix(1,0,0,1,1149.89,438.766)">
            <path d="M0,-128.992C-5.059,-123.937 -8.148,-117.179 -8.699,-110.086C-8.781,-109.953 -8.859,-109.82 -8.938,-109.683C-8.965,-109.616 -8.993,-109.549 -9.021,-109.482C-9.347,-106.807 -9.636,-104.128 -9.809,-101.441C-10.059,-97.48 -10.168,-93.523 -10.195,-89.554C-10.216,-86.034 -10.18,-82.515 -10.167,-78.995C-10.128,-78.435 -10.086,-77.876 -10.043,-77.316C-9.699,-72.863 -9.109,-68.441 -8.707,-63.996C-8.496,-61.672 -8.316,-59.351 -8.195,-57.023C-8.145,-56.035 -8.105,-55.043 -8.055,-54.054C-7.566,-49.664 -7.004,-45.285 -6.27,-40.922C-5.113,-34.078 -2.43,-27.625 0.629,-21.422C1.371,-19.914 2.293,-18.512 3.297,-17.168C5.484,-14.246 7.723,-11.062 10.371,-8.449C12.957,-5.898 16.105,-3.742 18.996,-1.656C20.004,-0.926 21.105,-0.301 22.227,0.242C26.727,2.426 31.551,4.641 36.418,6.043C37.809,6.442 39.195,6.774 40.609,7.086C44.336,7.914 48.18,8.281 51.98,8.625C53.742,8.785 55.516,8.692 57.266,8.461C61.129,7.957 65.141,7.774 68.848,6.457C75.574,4.059 79.512,1.91 84.82,-2.969C89.137,-6.933 92.023,-12.898 93.695,-18.394C94.598,-21.363 94.574,-24.566 94.98,-27.644C95.078,-28.39 95.066,-29.172 95.035,-29.922C94.828,-34.957 94.145,-40.043 93.133,-44.965C92.059,-50.203 90.18,-55.144 88.32,-60.14C86.516,-64.992 84.805,-69.879 82.855,-74.679C81.043,-79.133 79.285,-83.633 77.031,-87.883C74.215,-93.191 70.254,-97.996 66.379,-102.519C64.535,-104.672 62.512,-106.68 60.492,-108.664C57.145,-111.949 53.879,-115.277 50.824,-118.84C47.965,-122.176 45.328,-125.691 42.426,-128.992C37.355,-134.762 28.707,-137.777 21.211,-137.777C13.285,-137.777 5.598,-134.594 0,-128.992" style="fill:rgb(202,241,23);fill-rule:nonzero;"/>
        </g>
        <g transform="matrix(1,0,0,1,899.779,651.683)">
            <path d="M0,-129.86C-5.777,-123.598 -10.797,-116.657 -15.871,-109.829C-18.895,-105.762 -21.703,-101.532 -24.512,-97.317C-30.559,-88.255 -37.383,-79.704 -42.836,-70.262C-44.145,-67.997 -45.203,-65.59 -46.258,-63.2C-48.316,-58.532 -50.258,-53.88 -51.875,-49.051C-53.703,-43.598 -54.391,-38.028 -55.031,-32.294C-55.488,-28.247 -54.441,-24.008 -53.805,-20.094C-53.371,-17.422 -50.563,-11.84 -50.273,-11.223C-48.926,-8.325 -46.828,-6.231 -44.75,-3.602C-42.426,-0.657 -39.164,1.64 -35.902,3.449C-29.066,7.238 -24.309,7.722 -16.656,8.609C-15.133,8.785 -13.559,8.617 -12.047,8.417C-7.922,7.87 -3.93,7.535 0.047,6.437C4.738,5.148 9.129,2.952 13.59,1.038C15.934,0.035 18.305,-1.141 20.43,-2.555C27.043,-6.958 33.234,-11.86 38.578,-17.743C42.008,-21.52 45.09,-25.669 47.855,-29.958C50.57,-34.161 52.277,-39.145 54.152,-43.692C56.211,-48.688 57.469,-53.962 58.195,-59.305C59.273,-67.227 60.055,-75.04 60.648,-82.993C60.922,-86.63 61.16,-90.278 61.496,-93.915C61.57,-94.208 61.648,-94.497 61.73,-94.786C61.723,-94.938 61.719,-95.094 61.715,-95.247C61.66,-96.915 61.594,-98.583 61.582,-100.251C61.57,-102.102 61.523,-103.95 61.473,-105.798C61.422,-107.684 61.227,-109.559 60.992,-111.426C60.475,-115.046 59.764,-118.65 58.622,-122.117C58.437,-122.42 58.248,-122.721 58.055,-123.02C56.949,-124.735 55.898,-126.501 54.676,-128.133C54.599,-128.232 54.521,-128.329 54.442,-128.426C50.942,-131.659 46.688,-134.064 42.055,-135.34C38.984,-136.184 35.805,-136.524 32.656,-136.368C29.055,-137.852 25.164,-138.645 21.215,-138.645C13.559,-138.645 5.273,-135.571 0,-129.86" style="fill:rgb(202,241,23);fill-rule:nonzero;"/>
        </g>
        <g transform="matrix(1,0,0,1,1125.4,658.885)">
            <path d="M0,-148.638C-2.391,-147.63 -4.777,-146.622 -7.168,-145.615C-11.676,-142.947 -15.262,-139.361 -17.93,-134.853C-21.125,-130.365 -24.344,-125.81 -26.602,-120.763C-29.781,-113.646 -32.652,-106.556 -34.859,-99.099C-38.547,-86.65 -41.215,-73.829 -41.348,-60.798C-41.363,-59.419 -41.23,-58.029 -41.086,-56.654C-40.672,-52.689 -40.215,-48.669 -39.336,-44.767C-38.992,-43.236 -38.465,-41.755 -37.875,-40.306C-36.324,-36.505 -34.891,-32.548 -32.672,-29.056C-29.758,-24.47 -26.223,-19.935 -21.969,-16.478C-17.133,-12.548 -12.418,-8.904 -6.68,-6.47C-2.023,-4.497 2.48,-2.38 7.418,-1.271C8.887,-0.939 10.336,-0.673 11.828,-0.439C15.566,0.139 19.293,0.632 23.055,0.956C24.336,1.065 25.633,1.018 26.914,0.944C30.145,0.757 33.336,0.132 36.535,-0.337C39.461,-0.763 44.41,-3.329 45.848,-3.97C49.188,-5.462 52.047,-8.15 54.754,-10.474C57.66,-12.966 59.906,-16.404 61.867,-19.701C63.898,-23.118 65.305,-26.974 66.531,-30.759C67.824,-34.763 68.027,-39.322 68.527,-43.372C68.863,-46.103 68.766,-48.919 68.453,-51.646C68.004,-55.591 67.582,-59.54 66.887,-63.45C65.914,-68.935 64.457,-74.275 62.926,-79.626C60.758,-87.189 58.266,-94.658 55.332,-101.954C52.969,-107.837 50.449,-113.462 47.277,-118.927C45.25,-122.423 42.781,-125.658 40.539,-129.013C38.977,-131.036 37.414,-133.06 35.848,-135.087C34.291,-136.633 32.617,-137.981 30.828,-139.131C28.65,-141.696 26.045,-143.901 23.117,-145.615C18.506,-148.313 13.226,-149.703 7.926,-149.703C5.262,-149.703 2.592,-149.352 0,-148.638" style="fill:rgb(202,241,23);fill-rule:nonzero;"/>
        </g>
        <g transform="matrix(1,0,0,1,1013.83,816.236)">
            <path d="M0,-152.669C-7.496,-150.606 -14.004,-145.591 -17.93,-138.884C-18.937,-136.493 -19.945,-134.107 -20.953,-131.716C-21.006,-131.516 -21.058,-131.315 -21.107,-131.115C-21.444,-130.936 -21.778,-130.749 -22.109,-130.556C-29.086,-126.474 -33.418,-120.181 -35.898,-112.626C-37.789,-106.86 -39.719,-101.11 -41.621,-95.349C-43.215,-90.517 -44.758,-85.61 -45.715,-80.606C-46.715,-75.368 -47.414,-70.099 -48.051,-64.798C-48.352,-62.31 -48.66,-59.771 -48.672,-57.263C-48.699,-50.817 -48.191,-44.142 -46.219,-38.005C-45.051,-34.38 -43.484,-30.833 -41.703,-27.462C-39.941,-24.13 -37.219,-21.196 -34.918,-18.314C-32.582,-15.388 -28.738,-12.923 -26.012,-10.849C-24.316,-9.556 -22.496,-8.552 -20.559,-7.669C-15.254,-5.247 -10.043,-3.138 -4.418,-1.778C0.523,-0.587 5.691,0.179 10.723,0.655C15.039,1.065 19.11,0.257 23.445,-0.403C24.887,-0.622 26.246,-0.954 27.614,-1.462C35.039,-4.224 41.461,-7.583 46.996,-13.45C52.32,-19.091 55.918,-25.458 58.102,-32.903C59.254,-36.841 59.57,-41.103 59.738,-45.208C59.918,-49.571 58.863,-54.274 58.27,-58.446C57.398,-64.571 55.188,-70.532 53.09,-76.325C51.297,-81.294 49.445,-86.239 47.73,-91.239C43.203,-104.45 38.848,-117.849 36.906,-131.716C35.898,-134.107 34.887,-136.493 33.879,-138.884C31.215,-143.392 27.625,-146.978 23.118,-149.646C18.507,-152.344 13.226,-153.734 7.927,-153.734C5.262,-153.734 2.592,-153.383 0,-152.669" style="fill:rgb(202,241,23);fill-rule:nonzero;"/>
        </g>
        <g transform="matrix(1,0,0,1,1020.83,615.431)">
            <path d="M0,-105.748C-0.544,-105.599 -1.084,-105.433 -1.617,-105.253C-4.854,-104.606 -7.988,-103.432 -10.863,-101.748C-12.887,-100.186 -14.914,-98.623 -16.937,-97.06C-20.656,-93.314 -23.227,-88.904 -24.652,-83.822C-26.711,-78.576 -28.465,-73.248 -29.789,-67.775C-30.418,-65.185 -30.801,-62.529 -31.18,-59.9C-31.895,-54.939 -32.656,-49.885 -32.992,-44.861C-33.34,-39.713 -32.652,-34.58 -31.621,-29.518C-31.383,-28.361 -31.059,-27.232 -30.617,-26.135C-27.793,-19.131 -25.766,-13.99 -20.059,-8.6C-15.063,-3.881 -12.512,-2.92 -6.176,-0.455C-3.215,0.693 0.051,0.58 3.188,0.967C3.426,0.936 3.664,0.908 3.902,0.877C6.957,1.065 9.855,0.619 12.594,-0.463C18.883,-2.803 21.586,-4.021 26.539,-8.623C32.105,-13.795 35.547,-20.744 38.051,-27.768C39.828,-32.76 40.305,-37.764 40.996,-43.064C42.043,-51.092 40.824,-58.935 39.691,-66.908C38.84,-72.881 37.727,-78.814 36.902,-84.795C35.895,-87.186 34.887,-89.572 33.879,-91.963C31.211,-96.471 27.625,-100.057 23.117,-102.725C18.506,-105.423 13.224,-106.813 7.924,-106.813C5.259,-106.813 2.59,-106.462 0,-105.748" style="fill:rgb(202,241,23);fill-rule:nonzero;"/>
        </g>
        <g transform="matrix(1,0,0,1,1093.35,260.829)">
            <path d="M0,-73.697C0.043,-73.596 0.085,-73.496 0.127,-73.396C0.085,-73.477 0.045,-73.56 0.008,-73.643C0.005,-73.661 0.003,-73.679 0,-73.697M-0.381,-75.064C-0.371,-74.992 -0.361,-74.921 -0.352,-74.849C-0.362,-74.92 -0.372,-74.992 -0.381,-75.064M-50.435,-89.122C-51.997,-87.095 -53.56,-85.072 -55.126,-83.048C-57.838,-78.368 -59.205,-73.322 -59.221,-67.907C-59.364,-66.537 -59.356,-65.199 -59.23,-63.889C-59.72,-62.72 -60.14,-61.512 -60.49,-60.263C-62.4,-55.224 -64.178,-50.134 -65.111,-44.814C-65.979,-39.849 -66.717,-34.833 -67.146,-29.81C-67.357,-27.341 -67.498,-24.857 -67.221,-22.388C-66.662,-17.325 -66.256,-12.029 -64.631,-7.142C-63.537,-3.868 -62.127,-0.689 -60.618,2.417C-59.08,5.593 -56.389,8.401 -54.251,11.022C-52.118,13.632 -48.806,15.577 -46.247,17.456C-43.357,19.581 -39.545,20.608 -36.35,21.909C-30.689,24.21 -23.557,23.448 -17.783,22.303C-12.408,21.237 -6.143,17.268 -2.424,13.35C2.404,8.261 5.088,2.386 7.271,-4.189C8.104,-6.685 8.502,-9.29 8.865,-11.884C9.756,-18.197 10.908,-24.654 10.463,-31.064C10.01,-37.677 9.061,-44.29 7.545,-50.747C6.607,-54.739 5.479,-58.681 4.275,-62.603C3.084,-66.492 1.562,-70.268 -0.042,-74.009C-0.126,-74.634 -0.21,-75.259 -0.295,-75.884C-1.721,-80.966 -4.291,-85.376 -8.01,-89.122C-13.607,-94.72 -21.299,-97.907 -29.221,-97.907C-37.146,-97.907 -44.834,-94.72 -50.435,-89.122" style="fill:rgb(202,241,23);fill-rule:nonzero;"/>
        </g>
        <g transform="matrix(1,0,0,1,1181.62,195.788)">
            <path d="M0,-69.21C0.058,-69.135 0.115,-69.061 0.173,-68.986C0.115,-69.061 0.058,-69.135 0,-69.21M-50.285,-87.036C-50.887,-86.737 -51.479,-86.417 -52.062,-86.076C-58.507,-82.307 -64.179,-75.564 -65.847,-68.15C-67.28,-61.783 -68.452,-55.338 -68.632,-48.799C-68.647,-48.154 -68.589,-47.502 -68.565,-46.861C-68.425,-42.787 -67.909,-38.604 -66.714,-34.693C-65.358,-30.256 -63.28,-26.018 -61.14,-21.9C-57.64,-15.158 -52.702,-8.924 -48.007,-3.025C-44.784,1.033 -41.093,4.576 -37.425,8.217C-33.913,11.701 -30.499,14.475 -26.452,17.537C-23.276,19.939 -19.354,21.283 -15.632,22.58C-11.913,23.873 -7.972,24.146 -4.065,24.592C-0.319,25.021 3.579,24.213 7.2,23.381C13.536,21.924 18.009,18.271 22.849,14.264C25.13,12.369 27.896,8.115 28.989,6.666C29.427,6.084 29.81,5.482 30.192,4.865C34.188,-1.6 35.106,-7.756 35.833,-15.127C35.86,-15.561 35.856,-15.994 35.825,-16.424C35.692,-19.58 35.126,-22.732 34.528,-25.842C34.376,-26.619 34.087,-27.373 33.817,-28.115C32.751,-31.037 31.462,-33.881 30.181,-36.717C29.649,-37.897 28.884,-38.967 28.13,-40.01C26.29,-42.541 24.29,-45.006 22.337,-47.471C21.583,-48.424 20.771,-49.326 19.97,-50.244C18.556,-51.869 17.028,-53.42 15.517,-54.955C9.851,-60.708 3.652,-66.038 -1.819,-71.991C-2.488,-74.558 -3.507,-77.05 -4.89,-79.412C-8.815,-86.119 -15.323,-91.135 -22.819,-93.197C-25.354,-93.896 -27.941,-94.23 -30.51,-94.23C-37.725,-94.231 -44.807,-91.6 -50.285,-87.036" style="fill:rgb(202,241,23);fill-rule:nonzero;"/>
        </g>
        <g transform="matrix(1,0,0,1,1133.56,853.596)">
            <path d="M0,-128.692C-6.805,-124.708 -11.574,-118.282 -13.785,-110.762C-16.867,-100.286 -19.574,-89.817 -21.223,-79.012C-21.992,-73.981 -22.711,-68.915 -23.199,-63.84C-23.578,-59.891 -23.824,-55.981 -23.437,-52.016C-22.941,-46.962 -22.402,-41.122 -20.605,-36.188C-19.266,-32.512 -17.734,-28.922 -16.16,-25.337C-12.012,-15.903 -4.687,-8.321 4.004,-2.907C7.168,-0.934 11.504,0.703 14.68,1.878C18.555,3.312 22.684,3.468 26.773,3.992C27.539,4.089 28.312,4.042 29.082,3.995C32.23,3.808 35.371,3.277 38.48,2.706C42.285,2.007 45.973,0.179 49.297,-1.77C55.516,-5.419 60.844,-11.071 64.363,-17.325C66.445,-21.024 68.215,-25.282 69.211,-29.493C70.359,-34.364 71.121,-39.422 71.004,-44.434C70.914,-48.36 70.133,-52.481 69.613,-56.266C69.219,-59.126 68.727,-61.958 68.184,-64.797C67.191,-70.004 65.945,-75.169 64.328,-80.223C62,-87.508 58.594,-94.442 55.383,-101.376C54.641,-102.985 53.93,-104.614 53.238,-106.247C51.676,-108.27 50.109,-110.294 48.547,-112.317C46.275,-114.574 43.756,-116.409 40.991,-117.821C37.104,-124.418 30.783,-129.605 23.117,-131.715C20.527,-132.429 17.857,-132.78 15.193,-132.78C9.893,-132.781 4.611,-131.39 0,-128.692" style="fill:rgb(202,241,23);fill-rule:nonzero;"/>
        </g>
        <g transform="matrix(1,0,0,1,883.672,814.336)">
            <path d="M0,-113.539C-5.082,-112.113 -9.496,-109.539 -13.238,-105.824C-21.957,-99.047 -29.551,-90.801 -37.176,-82.859C-40.82,-79.062 -44.469,-75.258 -47.82,-71.191C-52.816,-65.137 -58.004,-59.016 -61.891,-52.172C-63.629,-49.113 -64.965,-45.762 -66.074,-42.453C-67.055,-39.519 -67.246,-36.273 -67.285,-33.172C-67.367,-26.961 -65.691,-22.871 -63.078,-17.418C-60.453,-11.945 -55.328,-7.766 -50.355,-4.574C-47.828,-2.953 -44.82,-2.176 -42.043,-1.019C-41.176,-0.656 -40.238,-0.476 -39.32,-0.305C-35.352,0.441 -31.227,1.07 -27.156,1.051C-22.973,1.031 -18.777,0.207 -14.664,-0.504C-13.133,-0.766 -11.641,-1.211 -10.168,-1.711C-6.102,-3.098 -2.086,-4.851 1.723,-6.867C3.219,-7.66 4.621,-8.613 5.984,-9.609C9.148,-11.926 12.305,-14.312 15.23,-16.93C17.211,-18.703 19,-20.66 20.695,-22.699C24.082,-26.777 27.262,-31.012 30.414,-35.269C33.484,-39.422 36.234,-43.949 38.797,-48.426C42.77,-55.371 46.043,-62.461 48.863,-69.976C50.383,-74.027 50.531,-78.574 50.992,-82.805C50.633,-85.461 50.277,-88.121 49.918,-90.777C48.492,-95.859 45.922,-100.273 42.203,-104.016C36.602,-109.617 28.914,-112.805 20.992,-112.805C20.152,-112.805 19.315,-112.768 18.482,-112.698C15.146,-113.948 11.584,-114.609 7.973,-114.609C5.316,-114.254 2.656,-113.894 0,-113.539" style="fill:rgb(202,241,23);fill-rule:nonzero;"/>
        </g>
        <g transform="matrix(1,0,0,1,956.615,985.836)">
            <path d="M0,-131.59C-2.387,-130.582 -4.777,-129.574 -7.168,-128.567C-11.676,-125.899 -15.262,-122.309 -17.93,-117.801C-20.121,-114.754 -22.227,-111.711 -23.949,-108.367C-26.172,-104.043 -28.012,-99.481 -29.629,-94.895C-30.613,-92.106 -31.516,-89.34 -32.34,-86.496C-33.797,-81.477 -35.145,-76.328 -36.012,-71.168C-37.16,-64.344 -38.512,-57.469 -38.668,-50.543C-38.754,-46.547 -37.855,-42.453 -37.289,-38.57C-36.734,-34.762 -34.523,-30.492 -33.094,-27.301C-31.437,-23.602 -28.715,-20.629 -26.219,-17.442C-25.047,-15.942 -23.734,-14.645 -22.242,-13.465C-19.242,-11.094 -16.309,-8.602 -12.988,-6.695C-9.383,-4.629 -5.402,-3.203 -1.531,-1.715C0.082,-1.094 1.758,-0.692 3.461,-0.434C7.477,0.176 11.797,1.066 15.938,0.715C19.883,0.379 23.996,-0.008 27.805,-1.231C31.594,-2.445 35.328,-4.067 38.793,-6.043C42.246,-8.012 45.309,-10.699 48.332,-13.27C51.48,-15.942 54.313,-20.059 56.578,-23.188C57.84,-24.926 58.859,-26.742 59.711,-28.711C61.438,-32.695 63.25,-36.496 64.242,-40.699C65.746,-47.082 66.48,-53.922 65.703,-60.473C64.941,-66.906 63.997,-73.252 62.256,-79.461C61.004,-82.145 59.737,-84.861 58.207,-87.391C56.777,-89.758 55.105,-91.985 53.426,-94.176C52.035,-95.969 50.656,-97.774 49.277,-99.574C49.074,-99.832 48.871,-100.09 48.664,-100.348C46.715,-102.805 44.773,-105.281 42.766,-107.695C42.047,-108.559 41.367,-109.457 40.637,-110.309C40.113,-110.918 39.555,-111.496 39.027,-112.102C38.063,-113.207 37.074,-114.293 36.152,-115.43C35.035,-116.809 34.031,-118.254 32.977,-119.676C32.906,-119.766 32.836,-119.856 32.766,-119.949C32.094,-120.754 31.277,-121.531 30.805,-122.445C30.803,-122.449 30.802,-122.452 30.8,-122.456C30.687,-122.474 30.574,-122.491 30.461,-122.508C28.359,-124.891 25.883,-126.949 23.117,-128.567C18.504,-131.266 13.223,-132.656 7.926,-132.656C5.262,-132.656 2.59,-132.305 0,-131.59" style="fill:rgb(202,241,23);fill-rule:nonzero;"/>
        </g>
        <g transform="matrix(1,0,0,1,1084.75,1030.67)">
            <path d="M0,-150.243C-7.496,-148.177 -14.004,-143.165 -17.93,-136.454C-21.777,-129.876 -23.488,-120.72 -20.953,-113.341C-18.996,-107.645 -17.469,-101.927 -16.219,-96.04C-15.074,-90.661 -14.191,-85.216 -13.176,-79.813C-12.148,-74.329 -10.684,-68.962 -9.207,-63.591C-8.598,-61.36 -7.832,-59.177 -7.043,-57.005C-4.961,-51.259 -2.563,-45.575 0.223,-40.134C2.953,-34.809 6.602,-30.247 10.277,-25.536C14.121,-20.61 18.75,-17.032 23.773,-13.286C29.922,-8.7 37.223,-6.005 44.387,-3.427C46.883,-2.528 49.527,-1.954 52.109,-1.364C57.086,-0.22 62.336,0.394 67.363,0.921C68.543,1.046 69.699,1.062 70.875,0.925C73.664,0.609 77.27,0.444 80.227,-0.513C82.141,-1.134 86.238,-2.739 88.73,-4.247C97.594,-9.618 103.34,-18.286 106.324,-28.036C108.848,-36.282 107.844,-44.391 106.395,-52.665C105.969,-55.106 105.262,-57.481 104.582,-59.856C103.84,-62.458 103.02,-65.04 102.211,-67.622C99.547,-76.141 96.656,-84.95 91.91,-92.532C87.729,-99.213 82.287,-105.282 76.893,-111.036C75.031,-112.652 73.241,-114.347 71.32,-115.895C69.563,-117.212 67.73,-118.427 65.965,-119.731C63.938,-121.235 61.906,-122.731 59.891,-124.251C55.613,-127.47 51.32,-130.618 46.766,-133.434C45.047,-134.501 43.367,-135.618 41.684,-136.731C40.184,-137.723 38.633,-138.622 37.086,-139.536C35.707,-140.348 34.316,-141.141 32.941,-141.962C31.926,-142.563 30.914,-143.196 29.871,-143.751C28.355,-144.559 26.77,-145.227 25.273,-146.083C24.5,-146.524 23.746,-146.993 22.953,-147.399C22.616,-147.571 22.301,-147.771 21.996,-147.986L21.785,-147.954C17.5,-150.169 12.723,-151.305 7.926,-151.305C5.262,-151.305 2.59,-150.954 0,-150.243" style="fill:rgb(202,241,23);fill-rule:nonzero;"/>
        </g>
        <g transform="matrix(1,0,0,1,1246.77,755.256)">
            <path d="M0,-110.129C-7.496,-108.066 -14.004,-103.051 -17.93,-96.344C-19.017,-94.487 -19.892,-92.522 -20.549,-90.491C-20.533,-87.805 -20.52,-85.119 -20.445,-82.434C-20.34,-78.57 -20.266,-74.695 -20.016,-70.836C-19.777,-67.117 -19.426,-63.426 -18.953,-59.734C-17.945,-53.032 -16.693,-46.382 -15.075,-39.797C-12.882,-37.011 -10.699,-34.218 -8.344,-31.563C-6.758,-29.777 -5.074,-28.094 -3.301,-26.492C1.262,-22.379 6.238,-18.598 11.477,-15.383C16.523,-12.281 22.391,-9.844 27.852,-7.715C32.828,-5.774 37.836,-3.938 43.055,-2.734C50.938,-0.914 59.02,0.418 67.102,0.828C72.027,1.082 77.176,0.269 81.93,-0.715C85.566,-1.469 89.016,-3.406 92.352,-4.82C95.805,-6.289 99.445,-9.531 102.004,-11.652C105.008,-14.141 107.281,-17.602 109.496,-20.711C109.902,-21.281 110.211,-21.914 110.523,-22.535C111.902,-25.305 113.07,-28.195 114.094,-31.121C114.367,-31.899 114.496,-32.723 114.633,-33.535C115.137,-36.559 115.656,-40.027 115.852,-43.246C115.91,-44.152 115.836,-45.059 115.758,-45.957C115.457,-49.566 115.008,-53.199 114.176,-56.731C113.297,-60.457 111.395,-64.141 109.805,-67.504C108.234,-70.82 104.98,-74.481 102.949,-76.981C101.922,-78.25 100.805,-79.399 99.586,-80.484C96.316,-83.395 92.75,-86.063 89.07,-88.449C83.832,-91.852 77.488,-94.375 71.742,-96.645C66.523,-98.699 61.309,-100.512 55.918,-102.066C51.086,-103.461 46.004,-104.32 41.031,-105.031C37.496,-105.535 33.949,-106 30.414,-106.512C27.484,-106.941 24.512,-107.32 21.617,-107.988C17.578,-110.172 12.828,-111.211 8.141,-111.211C5.348,-111.211 2.582,-110.844 0,-110.129" style="fill:rgb(202,241,23);fill-rule:nonzero;"/>
        </g>
        <g transform="matrix(1,0,0,1,1277.95,675.142)">
            <path d="M0,49.55C0.107,49.565 0.215,49.579 0.323,49.593C0.322,49.594 0.321,49.594 0.321,49.595C0.214,49.582 0.106,49.568 0,49.55M-39.574,-19.747C-41.945,-19.493 -43.289,-19.341 -45.395,-18.188C-46.422,-17.626 -47.332,-16.845 -48.203,-16.059C-49.172,-15.184 -50.074,-13.817 -50.777,-12.864C-51.168,-12.333 -51.496,-11.763 -51.805,-11.18C-53.047,-8.856 -54.672,-6.305 -55.105,-3.716C-55.135,-3.541 -55.162,-3.366 -55.189,-3.192C-55.403,-2.389 -55.516,-1.556 -55.516,-0.712C-55.516,-0.64 -55.515,-0.568 -55.513,-0.496C-55.691,1.535 -55.729,3.565 -55.664,5.628C-55.617,7.269 -55.363,8.905 -55.164,10.534C-54.9,12.671 -54.642,14.808 -54.36,16.943C-54.401,16.641 -54.441,16.34 -54.48,16.038C-53.969,19.874 -53.68,23.812 -52.766,27.585C-51.992,30.761 -50.328,33.886 -48.645,36.691C-47.629,38.39 -46.887,40.218 -45.746,41.847C-44.563,43.538 -43.246,45.144 -41.969,46.769C-40.359,48.823 -38.516,50.37 -36.449,51.968C-33.504,54.241 -30.203,55.917 -26.973,57.734C-25.148,58.757 -23.371,59.866 -21.484,60.773C-19.355,61.795 -17.149,62.478 -14.959,63.273C-14.142,63.677 -13.341,64.107 -12.543,64.558C-10.434,65.745 -8.391,66.82 -6.125,67.737C-4.137,68.542 -2.145,68.843 0,69.05C3.129,69.355 6.246,68.53 9.012,67.077C11.477,65.784 13.754,64.054 15.906,62.304C17.805,60.757 18.762,57.761 18.762,55.409C18.762,52.835 17.727,50.335 15.906,48.515C14.086,46.695 11.586,45.659 9.012,45.659C8.148,45.777 7.281,45.89 6.418,46.007C4.886,46.438 3.542,47.188 2.387,48.257C1.785,48.672 1.174,49.076 0.551,49.456C0.465,49.431 0.38,49.405 0.294,49.378C-1.553,48.413 -3.298,47.255 -5.191,46.382C-6.887,45.601 -8.602,44.859 -10.371,44.261C-11.005,44.048 -11.636,43.845 -12.261,43.626C-14.663,42.407 -16.966,40.976 -19.32,39.671C-21.357,38.542 -23.374,37.42 -25.28,36.097C-26.402,35.084 -27.385,33.957 -28.329,32.784C-29.391,31.311 -30.242,29.784 -31.078,28.159C-31.902,26.566 -32.858,25.04 -33.667,23.437C-34.16,21.887 -34.43,20.263 -34.655,18.643C-34.887,16.882 -35.11,15.121 -35.346,13.36C-35.287,13.797 -35.228,14.234 -35.168,14.671C-35.469,12.382 -35.742,10.081 -35.992,7.788C-36.195,5.921 -36.191,4.066 -36.172,2.191C-36.167,1.77 -36.162,1.348 -36.146,0.927C-35.991,0.641 -35.836,0.357 -35.688,0.07C-35.603,-0.096 -35.518,-0.261 -35.433,-0.427C-30.915,-1.224 -27.406,-5.369 -27.406,-10.04C-27.406,-15.423 -31.844,-19.704 -37.156,-19.79C-37.533,-19.795 -37.912,-19.805 -38.291,-19.805C-38.72,-19.805 -39.148,-19.792 -39.574,-19.747" style="fill:rgb(202,241,23);fill-rule:nonzero;"/>
        </g>
        <g transform="matrix(1,0,0,1,1149.75,758.176)">
            <path d="M0,-30.983C-2.332,-30.198 -4.137,-29.171 -5.906,-27.452C-6.474,-26.901 -6.974,-26.293 -7.431,-25.651C-9.116,-24.642 -10.513,-23.238 -11.621,-21.487C-12.469,-20.147 -12.855,-18.545 -13.156,-17.01C-13.68,-14.366 -13.57,-11.885 -12.172,-9.499C-10.898,-7.319 -8.785,-5.686 -6.348,-5.018C-3.828,-4.323 -1.086,-4.682 1.168,-5.999C2.162,-6.582 3.139,-7.412 3.933,-8.386C5.125,-8.382 6.321,-8.321 7.496,-8.212C8.563,-8.005 9.599,-7.733 10.622,-7.387C11.037,-7.168 11.439,-6.935 11.833,-6.684C12.966,-5.633 13.983,-4.49 14.988,-3.303C16.977,-0.952 19.844,0.576 22.973,0.576C27.73,0.576 31.941,-2.932 32.926,-7.561C33.508,-10.276 33.414,-13.198 32.379,-15.799C31.762,-17.346 31.141,-19.096 30.148,-20.487C29.09,-21.975 28.086,-23.288 26.672,-24.405C25.602,-25.253 24.539,-26.139 23.336,-26.799C22.168,-27.44 20.902,-27.901 19.668,-28.401C18.68,-28.803 17.598,-28.948 16.559,-29.155C15.5,-29.362 14.469,-29.647 13.441,-29.96C11.832,-30.452 10.227,-30.854 8.559,-31.081C6.9,-31.306 5.313,-31.559 3.72,-31.559C2.495,-31.559 1.267,-31.409 0,-30.983" style="fill:rgb(202,241,23);fill-rule:nonzero;"/>
        </g>
        <g id="Draw-Layer3" serif:id="Draw Layer" transform="matrix(1,0,0,1,11.0665,-286.224)">
            <g transform="matrix(1,0,0,1,955.275,475.163)">
                <path d="M0,-96.636C-2.18,-95.359 -3.809,-93.245 -4.48,-90.808C-5.176,-88.292 -4.816,-85.546 -3.5,-83.296C-2.141,-80.976 -0.133,-79.706 2.328,-78.816C2.438,-78.776 2.549,-78.737 2.658,-78.697C3.261,-78.373 3.835,-78.007 4.395,-77.615C7.353,-75.128 10.009,-72.314 12.44,-69.313C14.89,-65.956 16.962,-62.363 18.667,-58.576C21.319,-51.984 23.537,-45.06 24.702,-38.046C25.132,-34.051 25.188,-30.059 24.801,-26.054C24.093,-21.781 22.936,-17.651 21.376,-13.61C20.207,-11.184 19.666,-8.792 20.402,-6.12C21.074,-3.683 22.703,-1.57 24.883,-0.292C27.137,1.024 29.879,1.384 32.398,0.688C34.672,0.063 37.168,-1.601 38.223,-3.792C43.051,-13.792 45.184,-25.116 44.395,-36.179C43.598,-47.296 39.961,-57.995 35.621,-68.179C32.938,-74.472 28.883,-80.097 24.437,-85.257C22.656,-87.323 20.68,-89.253 18.617,-91.038C17.02,-92.425 15.34,-93.773 13.559,-94.921C11.699,-96.116 9.586,-96.866 7.512,-97.62C6.749,-97.896 5.915,-98.02 5.066,-98.02C3.282,-98.02 1.427,-97.473 0,-96.636" style="fill:rgb(202,241,23);fill-rule:nonzero;"/>
            </g>
            <g transform="matrix(1,0,0,1,1036.41,529.608)">
                <path d="M0,-73.346C-4.246,-70.635 -7.23,-66.662 -10.109,-62.604C-12.461,-59.287 -13.852,-55.463 -15.039,-51.604C-16.059,-48.295 -16.621,-44.885 -17.109,-41.463C-17.867,-36.155 -18.465,-30.877 -18.453,-25.51C-18.437,-19.08 -18.562,-12.311 -16.535,-6.147C-15.727,-3.69 -14.32,-1.647 -12.055,-0.319C-9.801,0.998 -7.059,1.357 -4.539,0.662C0.391,-0.694 3.93,-6.28 2.27,-11.33C1.929,-12.367 1.634,-13.39 1.419,-14.446C1.089,-17.911 1.063,-21.394 1.051,-24.877C1.032,-29.024 1.32,-33.098 1.824,-37.203C2.424,-41.276 3.222,-45.365 4.635,-49.237C5.456,-50.895 6.469,-52.437 7.571,-53.931C8.316,-54.862 9.094,-55.773 9.959,-56.587C12.066,-57.968 13.642,-59.865 14.32,-62.338C15.016,-64.854 14.656,-67.596 13.34,-69.85C11.582,-72.853 8.155,-74.702 4.736,-74.703C3.094,-74.703 1.453,-74.276 0,-73.346" style="fill:rgb(202,241,23);fill-rule:nonzero;"/>
            </g>
            <g transform="matrix(1,0,0,1,1043.68,703.059)">
                <path d="M0,-98.553C-2.438,-97.885 -4.551,-96.252 -5.828,-94.073C-7.145,-91.823 -7.504,-89.076 -6.809,-86.561C-6.48,-85.783 -6.156,-85.01 -5.828,-84.233C-5.467,-83.623 -5.053,-83.064 -4.588,-82.558C-5.019,-81.81 -5.35,-81.007 -5.559,-80.166C-6.293,-77.201 -5.555,-74.283 -4.695,-71.451C-3.432,-67.301 -1.621,-63.311 0.127,-59.341C0.853,-57.507 1.481,-55.634 1.914,-53.705C2.395,-51.559 2.755,-49.388 3.075,-47.213C3.728,-41.909 4.137,-36.577 4.211,-31.237C4.282,-25.855 4.569,-20.438 4.043,-15.073C3.759,-13.191 3.483,-11.321 3.539,-9.401C3.695,-4.088 7.855,0.349 13.289,0.349C18.484,0.349 23.195,-4.084 23.039,-9.401C23.023,-9.946 22.999,-10.488 23.018,-11.031C23.378,-13.393 23.663,-15.763 23.766,-18.151C23.816,-19.298 23.84,-20.446 23.845,-21.593C25.441,-23.6 26.312,-25.708 27.266,-28.174C28.422,-31.174 28.711,-34.487 29.035,-37.655C29.27,-39.924 29.387,-42.24 29.293,-44.522C29.164,-47.651 28.672,-50.776 28.191,-53.862C27.496,-58.33 26.617,-62.885 25.301,-67.221C24.391,-70.217 23.238,-73.151 21.844,-75.959C20.91,-77.841 19.822,-79.628 18.907,-81.512C18.429,-82.826 18.037,-84.16 17.719,-85.53C17.312,-87.268 16.82,-89.061 15.828,-90.565C13.77,-93.69 10.953,-96.084 7.512,-97.573C6.738,-97.901 5.961,-98.229 5.184,-98.553C4.32,-98.785 3.456,-98.902 2.592,-98.902C1.728,-98.902 0.863,-98.785 0,-98.553" style="fill:rgb(202,241,23);fill-rule:nonzero;"/>
            </g>
            <g transform="matrix(1,0,0,1,1042.74,698.217)">
                <path d="M0,-94.356C-2.18,-93.079 -3.813,-90.965 -4.48,-88.528C-4.612,-88.053 -4.711,-87.533 -4.771,-86.989C-6.097,-85.776 -7.092,-84.353 -7.613,-82.465C-8.305,-79.946 -7.949,-77.204 -6.629,-74.95C-5.355,-72.77 -3.238,-71.141 -0.801,-70.469C-0.153,-70.291 0.553,-70.177 1.278,-70.135C2.55,-68.275 3.759,-66.365 4.941,-64.458C6.477,-61.98 7.918,-59.403 9.157,-56.756C10.062,-54.253 10.585,-51.676 10.996,-49.047C11.514,-44.326 11.512,-39.513 11.25,-34.786C11.094,-31.973 10.98,-29.168 10.941,-26.352C10.909,-24.284 10.888,-22.239 10.695,-20.189C10.432,-18.569 10.135,-16.955 9.855,-15.336C9.188,-11.434 7.754,-7.133 10.18,-3.504C11.625,-1.344 13.449,0.273 16.008,0.976L18.598,1.328C20.359,1.32 22,0.878 23.52,-0.004C25.395,-0.872 26.992,-2.907 27.809,-4.751C28.355,-5.989 28.855,-7.176 29.258,-8.454C29.641,-9.672 29.953,-10.918 30.281,-12.153C30.891,-14.434 31.441,-16.727 31.766,-19.067C32.199,-22.176 32.527,-25.227 32.586,-28.364C32.633,-30.817 32.461,-33.274 32.305,-35.723C31.957,-41.188 31.371,-46.653 30.516,-52.059C30.109,-54.622 29.578,-57.118 28.84,-59.606C28.129,-62.008 27.219,-64.368 26.398,-66.735C24.785,-71.383 23.035,-75.95 21.086,-80.469C19.977,-83.051 18.559,-85.34 16.602,-87.403C15.844,-88.208 15.023,-88.946 14.281,-89.766C13.747,-90.354 13.254,-90.977 12.763,-91.602C12.445,-92.012 12.128,-92.42 11.813,-92.829C10.598,-94.04 9.164,-94.876 7.512,-95.336C6.67,-95.569 5.801,-95.684 4.935,-95.684C3.213,-95.684 1.496,-95.231 0,-94.356" style="fill:rgb(202,241,23);fill-rule:nonzero;"/>
            </g>
            <g transform="matrix(1,0,0,1,1141.48,472.039)">
                <path d="M0,-81.05C-3.848,-80.933 -7.449,-79.734 -10.805,-77.898C-11.215,-77.675 -11.605,-77.421 -11.992,-77.155C-12.949,-76.503 -13.84,-75.745 -14.75,-75.023C-15.836,-74.163 -16.738,-72.796 -17.535,-71.741C-18.84,-70.015 -19.723,-67.925 -20.473,-65.909C-21.352,-63.554 -21.875,-61.089 -22.457,-58.648C-23.074,-56.07 -22.832,-53.448 -21.477,-51.132C-20.199,-48.952 -18.086,-47.323 -15.648,-46.652C-10.66,-45.28 -4.891,-48.296 -3.656,-53.464C-3.299,-54.955 -2.966,-56.454 -2.561,-57.932C-1.2,-57.655 0.146,-57.319 1.5,-57.011C3.637,-56.523 5.746,-55.972 7.855,-55.39C11.403,-54.416 14.987,-53.533 18.443,-52.262C18.564,-52.2 18.685,-52.136 18.804,-52.071C21.495,-48.529 24.145,-44.942 26.766,-41.351C28.312,-39.234 29.82,-37.097 31.203,-34.866C32.285,-33.114 33.194,-31.27 34.036,-29.395C35.153,-26.55 36.076,-23.622 36.84,-20.651C36.962,-20.02 37.08,-19.387 37.195,-18.753C37.625,-16.374 38.023,-13.991 38.387,-11.597C38.543,-10.558 38.703,-9.523 38.891,-8.487C38.934,-8.241 38.977,-7.995 39.031,-7.753C39.051,-7.652 39.074,-7.554 39.109,-7.456C39.574,-5.804 40.41,-4.37 41.617,-3.155C42.266,-2.62 42.934,-2.105 43.613,-1.612C45.637,-0.152 48.813,0.009 51.129,-0.632C54.547,-1.573 56.836,-4.163 57.938,-7.441C58.723,-9.784 58.105,-12.597 57.777,-14.933C57.613,-16.101 57.426,-17.265 57.219,-18.425C56.804,-20.724 56.329,-23.002 55.749,-25.265C54.916,-29.602 53.939,-33.844 52.234,-37.945C51.074,-40.741 49.801,-43.386 48.27,-45.991C47.234,-47.749 46.145,-49.488 45.031,-51.198C43.871,-52.991 42.625,-54.726 41.328,-56.421C39.469,-58.851 37.531,-61.073 35.457,-63.316C34.586,-64.261 33.703,-65.195 32.707,-66.007C32.488,-66.185 32.27,-66.362 32.049,-66.538C30.969,-67.829 29.825,-69.041 28.543,-70.148C26.16,-72.202 23.602,-74.159 20.863,-75.726C16.602,-78.163 11.863,-79.116 7.148,-80.21C5.023,-80.7 2.8,-81.059 0.604,-81.059C0.402,-81.059 0.201,-81.056 0,-81.05" style="fill:rgb(202,241,23);fill-rule:nonzero;"/>
            </g>
            <g transform="matrix(1,0,0,1,982.63,999.084)">
                <path d="M0,9.678C0.059,9.819 0.118,9.959 0.178,10.099C0.112,9.961 0.054,9.82 0,9.678M21.412,-50.26C20.334,-50.174 19.26,-50.053 18.209,-49.807C16.943,-49.506 15.717,-48.854 14.541,-48.272C13.99,-47.998 13.443,-47.717 12.912,-47.405C10.154,-45.783 7.654,-43.881 5.139,-41.905C1.014,-38.658 -2.494,-34.873 -5.861,-30.858C-9.568,-26.44 -13.354,-21.873 -16.041,-16.737C-17.818,-13.338 -19.256,-9.768 -20.217,-6.057C-21.189,-2.307 -21.506,1.635 -21.697,5.494C-21.846,8.478 -21.896,11.494 -21.607,14.467C-21.296,17.672 -20.782,20.86 -20.311,24.046C-19.849,28.112 -19.795,32.185 -19.623,36.275C-19.533,38.369 -19.467,40.467 -19.303,42.556C-18.99,46.545 -18.354,51.451 -15.959,54.775C-15.451,55.431 -14.943,56.092 -14.436,56.748C-13.217,57.955 -11.783,58.791 -10.135,59.256C-7.615,59.947 -4.873,59.592 -2.619,58.271C-0.439,56.998 1.189,54.881 1.861,52.447C2.498,50.127 2.338,46.959 0.877,44.931C0.81,44.851 0.744,44.769 0.683,44.685C0.492,43.971 0.335,43.251 0.2,42.524C-0.165,38.554 -0.202,34.535 -0.314,30.556C-0.404,27.354 -0.765,24.178 -1.2,21.011C1.636,17.943 2.548,13.047 0.162,9.396C0.09,9.286 0.02,9.177 -0.05,9.067C-0.048,8.984 -0.045,8.9 -0.042,8.817C0.354,6.871 0.935,4.998 1.638,3.135C3.918,-1.868 6.634,-6.629 9.326,-11.42C12.147,-16.438 15.24,-21.324 18.644,-25.976C19.495,-27.015 20.404,-28.033 21.391,-28.939C22.201,-29.459 23.047,-29.923 23.904,-30.362C24.498,-30.666 25.1,-30.963 25.686,-31.291C28.857,-33.069 31.658,-36.498 31.389,-40.358C31.248,-42.354 31.072,-43.608 30.053,-45.35C28.955,-47.225 28.182,-47.612 26.482,-48.901C25.521,-49.631 23.018,-50.269 21.674,-50.269C21.581,-50.269 21.493,-50.266 21.412,-50.26" style="fill:rgb(202,241,23);fill-rule:nonzero;"/>
            </g>
            <g transform="matrix(1,0,0,1,955.45,681.517)">
                <path d="M0,-113.184C-2.18,-111.907 -3.809,-109.793 -4.48,-107.356C-5.094,-105.139 -4.833,-103.066 -4.035,-101.042C-3.343,-98.829 -3.094,-96.441 -2.802,-94.126C-2.854,-94.522 -2.908,-94.917 -2.961,-95.313C-2.531,-91.906 -2.483,-88.38 -2.829,-84.951C-3.636,-79.945 -4.961,-75.038 -6.838,-70.331C-8.102,-67.456 -9.42,-64.606 -10.672,-61.727C-12.301,-57.985 -14.145,-54.321 -16.227,-50.809C-18.266,-47.375 -20.488,-44.032 -22.609,-40.649C-24.434,-37.736 -26.301,-34.86 -28.356,-32.106C-29.554,-30.574 -30.75,-29.043 -31.848,-27.438C-32.754,-26.114 -33.617,-24.754 -34.516,-23.422C-36.457,-20.543 -38.363,-17.692 -40.066,-14.664C-42.676,-10.032 -41.207,-4.036 -36.57,-1.325C-32.039,1.328 -25.836,-0.196 -23.23,-4.821C-21.707,-7.524 -20.039,-10.09 -18.305,-12.657C-16.625,-15.141 -15.035,-17.688 -13.211,-20.067C-13.413,-19.807 -13.614,-19.546 -13.815,-19.286C-11.066,-22.876 -8.479,-26.508 -6.059,-30.348C-4.82,-32.309 -3.637,-34.305 -2.387,-36.258C-1.105,-38.258 0.199,-40.235 1.387,-42.289C3.648,-46.215 5.445,-50.36 7.309,-54.481C9.434,-59.164 11.633,-63.844 13.313,-68.711C14.254,-71.446 14.887,-74.301 15.496,-77.125C16.246,-80.625 16.824,-84.27 16.863,-87.856C16.902,-91.356 16.648,-94.754 16.145,-98.223C15.918,-99.782 15.703,-101.34 15.465,-102.891C15.094,-105.325 14.453,-107.446 13.34,-109.684C12.254,-111.875 9.809,-113.536 7.512,-114.164C6.669,-114.397 5.801,-114.512 4.935,-114.512C3.212,-114.512 1.496,-114.059 0,-113.184" style="fill:rgb(202,241,23);fill-rule:nonzero;"/>
            </g>
        </g>
    </g>
</svg>
